<svg width="80" height="80" viewBox="0 0 80 80" fill="none" xmlns="http://www.w3.org/2000/svg">
<path d="M40 80C29.3913 80 19.2172 75.7857 11.7157 68.2843C4.21428 60.7828 0 50.6087 0 40C0 29.3913 4.21428 19.2172 11.7157 11.7157C19.2172 4.21428 29.3913 0 40 0C50.6087 0 60.7828 4.21428 68.2843 11.7157C75.7857 19.2172 80 29.3913 80 40C80 50.6087 75.7857 60.7828 68.2843 68.2843C60.7828 75.7857 50.6087 80 40 80ZM40 70.8861C48.1915 70.8861 56.0475 67.632 61.8398 61.8398C67.632 56.0475 70.8861 48.1915 70.8861 40C70.8861 31.8085 67.632 23.9525 61.8398 18.1602C56.0475 12.368 48.1915 9.11392 40 9.11392C31.8085 9.11392 23.9525 12.368 18.1602 18.1602C12.368 23.9525 9.11392 31.8085 9.11392 40C9.11392 48.1915 12.368 56.0475 18.1602 61.8398C23.9525 67.632 31.8085 70.8861 40 70.8861Z" fill="#F4F4ED"/>
<path fill-rule="evenodd" clip-rule="evenodd" d="M39.4146 58.9388C39.0947 57.7326 38.7037 56.5468 38.2439 55.3878L34.1463 49.4694C32.6788 47.7995 31.1151 46.2185 29.4634 44.7347C27.7073 42.9592 25.3659 41.1837 23.0244 40.5918C20.7939 39.4992 18.4328 38.7035 16 38.2245L17.7561 38.8163L22.439 42.3673L24.1951 45.3265C25.8004 48.5045 27.7647 51.4836 30.0488 54.2041L30.6341 54.7959C33.3411 57.6764 36.5071 60.0771 40 61.898L40.5854 62.4898V61.898L39.4146 58.9388ZM41.1707 61.3061L41.7561 60.7143C43.1696 58.1311 44.1581 55.3327 44.6829 52.4286L45.2683 44.1429C45.3114 42.7443 45.5078 41.3548 45.8537 40C45.8537 38.8163 45.8537 37.6327 47.6098 35.8571C44.8185 38.3327 42.6665 41.4592 41.3405 44.9657C40.0145 48.4721 39.5543 52.2527 40 55.9796L41.1707 60.7143V61.3061ZM40.5854 22.2449L41.7561 21.0612H41.1707L40 22.2449V22.8367C40.1811 22.6257 40.3767 22.428 40.5854 22.2449ZM38.2439 27.5714L37.6585 29.9388C37.6649 30.3333 37.6649 30.7279 37.6585 31.1224L38.2439 28.1633V27.5714ZM41.1707 63.0816H40.5854L41.7561 68.4082L42.3415 69L41.1707 63.0816ZM42.3415 31.1224L43.5122 28.7551L44.0976 26.9796C42.9268 27.5714 40.5854 28.1633 39.4146 29.9388L38.2439 33.4898L37.6585 35.2653C38.8293 35.2653 40.5854 34.0816 42.3415 31.1224ZM32.3902 31.7143C33.561 34.0816 34.7317 35.2653 35.9024 35.2653L36.4878 32.898L35.9024 29.3469L32.9756 24.6122C32.9756 26.3878 31.8049 29.9388 32.3902 31.7143ZM44.6829 23.4286C45.597 22.3819 46.5745 21.3936 47.6098 20.4694L44.0976 21.0612L41.1707 22.8367L40 24.6122C39.6036 25.3361 39.4018 26.1523 39.4146 26.9796C41.1707 26.9796 43.5122 25.2041 44.6829 23.4286ZM35.9024 24.0204C35.9024 25.2041 37.0732 26.3878 37.6585 26.9796L38.2439 26.3878L39.4146 24.0204V22.8367C39.3175 20.2654 39.1222 17.6989 38.8293 15.1429V15.7347L35.9024 21.6531V24.0204ZM41.7561 19.8776C42.3415 19.8776 43.5122 20.4694 47.0244 16.3265L49.3659 12.7755L51.1219 11C49.3659 11.5918 45.2683 13.3673 43.5122 15.7347C42.3415 16.9184 41.1707 18.102 41.7561 19.8776ZM30.0488 54.7959L29.4634 54.2041C26.2126 50.6531 23.4556 46.6709 21.2683 42.3673L17.7561 40C18.3415 50.6531 26.5366 58.9388 37.0732 60.7143C34.7317 59.5306 32.3902 57.1633 30.0488 54.7959ZM40.5854 21.0612L41.1707 20.4694C40.5854 18.6939 41.1707 17.5102 42.3415 16.3265H40L40.5854 21.0612ZM47.0244 16.9184V17.5102L42.3415 21.0612H41.7561H42.9268L48.1951 19.8776L49.3659 20.4694H48.7805L47.0244 22.2449L50.5366 24.0204L41.7561 33.4898L40.5854 34.6735L36.4878 38.8163V39.4082H35.9024V40H35.3171V40.5918L31.2195 34.6735V36.449L31.8049 42.3673L32.3902 43.551L31.8049 44.1429L30.6341 45.3265L34.1463 48.8776L35.9024 47.6939V47.102L37.6585 54.2041C38.311 55.1482 38.8978 56.1369 39.4146 57.1633V56.5714L38.2439 54.2041L36.4878 46.5102H37.0732L54.0488 27.5714C56.9756 30.5306 58.7317 34.6735 58.7317 38.8163C58.7317 47.102 52.878 54.2041 44.6829 55.9796L42.3415 61.898C54.6341 60.7143 64 51.2449 64 38.8163C64 28.7551 56.9756 19.8776 47.0244 16.9184ZM23.0244 38.2245C23.0244 30.5306 28.2927 24.0204 35.3171 22.2449C35.3171 19.8776 36.4878 17.5102 37.6585 16.3265C26.5366 17.5102 18.3415 26.9796 17.7561 37.6327L23.0244 39.4082V38.2245Z" fill="#F4F4ED"/>
</svg>
