<svg width="15" height="9" viewBox="0 0 15 9" fill="none" xmlns="http://www.w3.org/2000/svg">
<path d="M1.72934 0.315846C1.35149 -0.0869561 0.718648 -0.107185 0.315846 0.270663C-0.0869561 0.64851 -0.107185 1.28135 0.270663 1.68415L1.72934 0.315846ZM14.7369 1.67602C15.1102 1.26905 15.083 0.636474 14.676 0.263118C14.2691 -0.110238 13.6365 -0.0829899 13.2631 0.323979L14.7369 1.67602ZM6.83571 7.21497L6.10656 7.89932L6.83571 7.21497ZM0.270663 1.68415C2.21548 3.75741 4.16272 5.82823 6.10656 7.89932L7.56486 6.53062C5.61823 4.45655 3.67499 2.39 1.72934 0.315846L0.270663 1.68415ZM9.03716 7.88444C10.9373 5.81773 12.8373 3.74664 14.7369 1.67602L13.2631 0.323979C11.3634 2.39473 9.46409 4.46503 7.56484 6.53083L9.03716 7.88444ZM6.10656 7.89932C6.90189 8.74672 8.25009 8.74054 9.03716 7.88444L7.56484 6.53083L7.56486 6.53062L6.10656 7.89932Z" fill="#F6B626"/>
</svg>
