<svg width="25" height="21" viewBox="0 0 25 21" fill="none" xmlns="http://www.w3.org/2000/svg">
<path d="M12.2947 20.9999C10.643 21.0089 9.28426 20.3914 8.22744 19.5341C7.16458 18.6769 6.34328 17.6038 5.53406 16.5666C5.00565 15.8802 4.28098 15.1728 3.64085 14.3155C3.00676 13.4642 2.44815 12.3911 2.45117 11.0663C2.45117 10.0081 2.61724 8.986 2.92221 8.02681L0.0808858 1.39638C-0.0791466 1.02169 0.00237545 0.590055 0.289226 0.302296C0.576076 0.0115408 1.00786 -0.0783837 1.38832 0.0714904L7.39406 2.45449C8.83737 1.61819 10.5132 1.1326 12.2947 1.1326C14.1335 1.1326 15.9694 1.54325 17.5516 2.47547L23.6117 0.0714904C23.9921 -0.0783837 24.4239 0.0115408 24.7108 0.302296C24.9976 0.593052 25.0791 1.02469 24.9191 1.39638L21.8453 8.56935C22.0355 9.37567 22.1382 10.212 22.1382 11.0663C22.1382 12.4541 21.5464 13.5961 20.8609 14.5164C20.1695 15.4456 19.3693 16.2189 18.7684 16.9413C17.9622 17.9005 17.1862 18.8807 16.1717 19.669C15.1722 20.4514 13.895 20.9999 12.3339 20.9999H12.2977H12.2947ZM4.93319 7.58917C5.03283 7.82298 5.04189 8.08675 4.95432 8.32356C4.64332 9.17784 4.47422 10.0981 4.47422 11.0663C4.47724 11.8216 4.76409 12.4331 5.27137 13.1255C5.77562 13.8119 6.48822 14.5074 7.13741 15.3407C7.94361 16.3808 8.69546 17.331 9.50166 17.9754C10.3169 18.6199 11.1292 18.9856 12.2947 18.9946C13.424 18.9856 14.1698 18.6619 14.9277 18.0864C15.6795 17.5108 16.3951 16.6416 17.2074 15.6614C17.9049 14.8311 18.6718 14.0817 19.2244 13.3294C19.783 12.571 20.1091 11.8726 20.1091 11.0663C20.1091 10.2749 20.0004 9.49257 19.7981 8.7462C19.7407 8.53038 19.7558 8.29658 19.8434 8.09275L22.0989 2.83217L17.8173 4.53174C17.5033 4.65764 17.15 4.61867 16.8722 4.42983C15.595 3.56056 13.9856 3.14391 12.2917 3.14391C10.7245 3.14391 9.27218 3.61152 8.04627 4.41484C7.76848 4.59769 7.42124 4.63066 7.11325 4.51076L2.889 2.83517L4.93017 7.59517L4.93319 7.58917Z" fill="#81C3D7"/>
</svg>
