<svg width="17" height="20" viewBox="0 0 17 20" fill="none" xmlns="http://www.w3.org/2000/svg">
<path fill-rule="evenodd" clip-rule="evenodd" d="M13.9987 6.70003C14.551 6.70003 14.9987 7.12535 14.9987 7.65002V17.15C14.9987 18.724 13.6556 20 11.9987 20H5.99871C4.34186 20 2.99871 18.724 2.99871 17.15V7.65002C2.99871 7.12535 3.44643 6.70003 3.99871 6.70003H13.9987ZM12.9965 8.60011H4.99652V17.1501C4.99652 17.6748 5.44423 18.1001 5.99652 18.1001H11.9965C12.5488 18.1001 12.9965 17.6748 12.9965 17.1501V8.60011ZM6.21047 1.44335C6.30158 0.92665 6.81635 0.585528 7.36025 0.681431L11.2995 1.37602C11.8434 1.47193 12.2104 1.96854 12.1193 2.48524L11.9544 3.42081L15.8936 4.1154C16.4375 4.2113 16.8045 4.70792 16.7134 5.22461C16.6223 5.74131 16.1075 6.08244 15.5637 5.98653L1.77635 3.55546C1.23245 3.45956 0.865397 2.96294 0.956505 2.44624C1.04761 1.92954 1.56238 1.58842 2.10628 1.68432L6.04551 2.37892L6.21047 1.44335Z" fill="#F6B626"/>
</svg>
