<svg width="16" height="19" viewBox="0 0 16 19" fill="none" xmlns="http://www.w3.org/2000/svg">
<path fill-rule="evenodd" clip-rule="evenodd" d="M12.999 5.70001C13.5513 5.70001 13.999 6.12534 13.999 6.65001V16.15C13.999 17.724 12.6559 19 10.999 19H4.99902C3.34217 19 1.99902 17.724 1.99902 16.15V6.65001C1.99902 6.12534 2.44674 5.70001 2.99902 5.70001H12.999ZM12.001 7.60001H4.00098V16.15C4.00098 16.6747 4.44869 17.1 5.00098 17.1H11.001C11.5533 17.1 12.001 16.6747 12.001 16.15V7.60001ZM5 0.95C5 0.425329 5.44772 -9.65645e-08 6 0L10 6.99382e-07C10.5523 7.95947e-07 11 0.42533 11 0.950001V1.9L15 1.9C15.5523 1.9 16 2.32533 16 2.85C16 3.37467 15.5523 3.8 15 3.8L1 3.8C0.447715 3.8 -9.17363e-08 3.37467 0 2.85C9.17363e-08 2.32533 0.447715 1.9 1 1.9L5 1.9L5 0.95Z" fill="#F6B626"/>
</svg>
