<svg width="25" height="21" viewBox="0 0 25 21" fill="none" xmlns="http://www.w3.org/2000/svg">
<path d="M23.9906 11.8081C23.4064 9.95403 23.3312 8.76838 23.3283 7.7884C23.3283 7.34983 23.3457 6.94756 23.3457 6.53318C23.3572 5.68024 23.2329 4.70329 22.6255 3.71424C22.2119 3.03067 21.7087 2.45599 21.1274 2.0386C20.5489 1.6212 19.8837 1.35503 19.1751 1.35201C18.6517 1.35201 18.1137 1.51231 17.6481 1.82687C17.0494 1.28849 16.4392 0.868067 15.7566 0.568629C14.8166 0.15728 13.7899 0 12.5781 0C12.5521 0 12.526 0.00604925 12.5 0.00907388C12.474 0.00907388 12.4508 0 12.4248 0C11.213 0 10.1863 0.154256 9.2463 0.568629C8.56374 0.865042 7.95349 1.28849 7.35481 1.82687C6.88628 1.50929 6.35123 1.34898 5.82774 1.34898C5.11916 1.34898 4.45396 1.61817 3.87552 2.03557C3.29419 2.45599 2.78806 3.02765 2.37737 3.71121C1.76712 4.69724 1.64565 5.67722 1.65722 6.52714C1.65722 6.94453 1.67746 7.34681 1.67457 7.78235C1.67457 8.76233 1.59359 9.94496 1.01226 11.7991C0.312355 14.0161 0.00289218 15.7069 0 17.0468C0 18.1992 0.234266 19.1338 0.780888 19.8234C1.31883 20.5039 2.11997 20.7943 2.85169 20.7943C2.86615 20.7943 2.88061 20.7943 2.89218 20.7943C4.3267 20.7731 5.7323 19.9897 6.89785 19.0521C7.34035 18.6891 7.73947 18.2959 8.08075 17.8876C8.41335 18.5137 8.80669 19.0944 9.28679 19.5935C10.0735 20.4162 11.1494 21 12.4046 21C12.4103 21 12.419 21 12.4248 21C12.4508 21 12.474 20.9939 12.4971 20.9909C12.5231 20.9909 12.5492 21 12.5752 21C13.8391 21.006 14.9236 20.4223 15.7132 19.5935C16.1904 19.0944 16.5866 18.5107 16.9193 17.8846C17.4803 18.5621 18.2121 19.1973 19.0161 19.7175C19.9763 20.3255 21.0233 20.7822 22.1049 20.7943C22.1194 20.7943 22.131 20.7943 22.1454 20.7943C22.8771 20.7943 23.6812 20.5069 24.2191 19.8234C24.7657 19.1338 25 18.1992 25 17.0498C25 15.7099 24.6876 14.0191 23.9906 11.8021V11.8081ZM22.7991 18.5833C22.6429 18.7678 22.4809 18.8494 22.1078 18.8585C21.4021 18.8827 20.1758 18.3111 19.2446 17.5307C18.776 17.1466 18.3711 16.7201 18.1108 16.3511C17.9807 16.1666 17.8852 16.0003 17.8332 15.8732C17.8129 15.8278 17.8014 15.7916 17.7927 15.7613C17.8823 15.477 17.9662 15.1957 18.0414 14.9114C18.4781 13.2206 18.6488 11.5934 18.6517 10.5317C18.6517 9.99638 18.2381 9.56386 17.7262 9.56386C17.2143 9.56386 16.7978 9.99638 16.7978 10.5317C16.8036 11.551 16.5722 13.5261 15.9938 15.2864C15.9938 15.2895 15.9938 15.2925 15.9909 15.2955C15.9272 15.4921 15.8578 15.6857 15.7855 15.8762C15.424 16.826 14.9526 17.6638 14.4117 18.2173C13.8622 18.7738 13.3069 19.0581 12.5781 19.0642C12.5521 19.0642 12.5289 19.0702 12.5029 19.0733C12.4769 19.0733 12.4537 19.0642 12.4277 19.0642C11.696 19.0581 11.1407 18.7738 10.5941 18.2173C9.78135 17.3886 9.13929 15.9065 8.75463 14.4033C8.36418 12.9061 8.20801 11.3786 8.2109 10.5317C8.2109 9.99638 7.79442 9.56386 7.28251 9.56386C6.77059 9.56386 6.35701 9.99638 6.35701 10.5317C6.3599 11.7688 6.58838 13.7862 7.21309 15.7643C7.20442 15.7946 7.19285 15.8309 7.1755 15.8732C6.99618 16.336 6.27025 17.192 5.3997 17.809C4.53783 18.4472 3.514 18.8736 2.90086 18.8585C2.52776 18.8494 2.3658 18.7648 2.20963 18.5803C2.05056 18.3897 1.85967 17.939 1.86256 17.0528C1.86256 16.0365 2.11708 14.5061 2.77938 12.4131C3.42723 10.3745 3.53714 8.89844 3.53424 7.7884C3.53424 7.29539 3.514 6.88102 3.514 6.53318C3.52557 5.79518 3.56316 5.4171 3.95072 4.74866C4.24572 4.25867 4.59278 3.87757 4.93117 3.6356C5.26955 3.3906 5.5848 3.29079 5.83353 3.29079C6.03309 3.29381 6.19794 3.34221 6.39172 3.48134C6.41485 3.49949 6.44378 3.51159 6.46691 3.52671C6.51319 3.65072 6.57971 3.76566 6.67515 3.86547C6.85736 4.05602 7.09452 4.14978 7.33168 4.14978C7.56883 4.14978 7.80599 4.05602 7.9882 3.86547C8.71992 3.10024 9.3186 2.64654 9.96645 2.36223C10.6172 2.07792 11.3605 1.94483 12.4306 1.94483C12.4566 1.94483 12.4798 1.93878 12.5058 1.93576C12.5318 1.93576 12.5578 1.94483 12.5839 1.94483C13.654 1.94483 14.3973 2.07792 15.0451 2.36223C15.693 2.64654 16.2945 3.10326 17.0263 3.86547C17.2085 4.05602 17.4456 4.14978 17.6828 4.14978C17.9199 4.14978 18.1571 4.05602 18.3393 3.86547C18.4348 3.76566 18.5042 3.65072 18.5475 3.52671C18.5736 3.51159 18.5996 3.49949 18.6256 3.48134C18.8194 3.34221 18.9843 3.29381 19.1838 3.29079C19.4297 3.29079 19.7449 3.3906 20.0862 3.6356C20.4246 3.87757 20.7745 4.25867 21.0666 4.74866C21.4542 5.41407 21.4918 5.79518 21.5034 6.53318C21.5034 6.88102 21.486 7.29539 21.486 7.7884C21.486 8.90146 21.5959 10.3775 22.2409 12.4161C22.9032 14.5091 23.1606 16.0426 23.1577 17.0558C23.1577 17.9421 22.9668 18.3958 22.8106 18.5833H22.7991Z" fill="#B57B49"/>
</svg>
