<svg width="65" height="79" viewBox="0 0 65 79" fill="none" xmlns="http://www.w3.org/2000/svg">
<path d="M31.9523 64.6333C31.5447 63.389 31.1052 62.2082 30.6212 61.0845C30.4938 60.7798 30.3537 60.4814 30.2136 60.1894C28.8698 57.2945 27.1629 54.6726 24.6918 51.8095C23.3226 50.216 21.7112 48.5464 19.8133 46.7117C19.3866 46.299 18.9599 45.8864 18.5014 45.4547C15.75 42.8772 12.7121 41.0616 9.75064 39.7411C7.20948 38.6047 4.75113 37.8492 2.57937 37.3541C1.66863 37.1446 0.789732 36.9668 0 36.8398C0.827944 37.17 1.71321 37.5826 2.61121 38.0333C4.6747 39.0745 6.80825 40.4267 8.48961 42.1916C9.56594 43.3216 10.292 44.6675 11.2155 46.3689C12.0689 47.9496 13.1261 49.8795 14.782 52.2983C15.9029 53.9362 17.3168 55.809 19.1383 57.9738C19.4694 58.3674 19.7751 58.742 20.1318 59.1483C23.7811 63.3319 28.1947 66.4109 31.1434 68.2011C31.6975 68.5376 32.1816 68.8233 32.621 69.0645C32.7547 69.1407 32.8758 69.2042 32.9968 69.274C33.1114 69.3375 33.2515 69.42 33.3534 69.4708C33.2515 69.0645 33.1432 68.6836 33.0413 68.2964C32.6911 66.9949 32.3344 65.776 31.9523 64.627V64.6333Z" fill="#525051"/>
<path d="M19.3101 59.8722C18.9853 59.4976 18.7051 59.1548 18.3994 58.7993C16.5779 56.6472 15.1577 54.7744 14.0304 53.1365C12.2599 50.5717 11.1517 48.5466 10.2537 46.8896C9.33657 45.1946 8.67422 43.9693 7.69979 42.9409C6.27955 41.4427 4.47718 40.2364 2.6748 39.2842C3.63013 53.7523 14.5208 65.5223 28.6086 67.8776C25.7808 65.9921 22.2971 63.294 19.3037 59.8658L19.3101 59.8722Z" fill="#525051"/>
<path d="M33.9391 71.0068C33.9391 71.0068 33.8053 70.9434 33.6143 70.8418C34.2958 74.6696 34.7034 78.053 34.7608 78.5164C34.9773 78.9545 35.1111 78.9989 35.1111 78.9989C35.1684 78.9798 35.2894 78.8021 35.3531 78.6307C35.3276 77.4563 34.8881 74.5363 34.2321 71.1465L33.9455 71.0068H33.9391Z" fill="#525051"/>
<path d="M39.6401 44.0641C39.8694 42.8959 40.0859 41.7723 41.7611 39.3789C39.1624 41.9818 36.0668 45.7337 34.8375 49.7904C33.3789 54.6088 32.8375 58.5893 33.1751 62.4872C33.3471 64.4489 33.7483 66.3915 34.3725 68.404C34.4235 68.569 34.4617 68.7277 34.5127 68.8928C34.6082 68.7468 34.7229 68.5627 34.8311 68.3786C35.6528 67.0391 36.8885 64.7981 37.7929 62.1444C38.156 61.0779 38.4745 59.9479 38.6783 58.7797C39.3025 55.2056 39.3025 51.5489 39.3025 48.8762C39.3025 47.0288 39.3025 45.5686 39.4936 44.7179C39.5445 44.4894 39.5891 44.2736 39.6273 44.0577L39.6401 44.0641Z" fill="#525051"/>
<path d="M33.6276 15.3375L33.6531 15.2994C33.9524 14.7979 34.5448 13.8457 34.9142 13.2617C34.8123 13.2427 34.7168 13.2173 34.6149 13.1856C34.4047 13.1284 34.2136 13.0586 34.0671 12.9951C34.0416 13.0396 34.0098 13.103 33.9779 13.1538C33.6913 13.6553 33.2454 14.4742 33.0098 14.9122V15.8136C33.1945 15.6549 33.3537 15.5343 33.4811 15.4454C33.5321 15.4073 33.5958 15.3565 33.634 15.3375H33.6276Z" fill="#525051"/>
<path d="M28.4306 41.5568C28.2713 41.5822 28.1121 41.6774 27.9529 41.8551L27.6025 42.2487L28.5643 43.1184L28.9274 42.7121C29.0739 42.547 29.1503 42.3757 29.1439 42.2043C29.1439 42.0329 29.0611 41.8742 28.9146 41.7345C28.7554 41.5885 28.5962 41.5314 28.4306 41.5504V41.5568Z" fill="#525051"/>
<path d="M33.2198 13.179C33.4237 12.8108 33.602 12.4998 33.6721 12.3982L33.6975 12.3601C33.0606 10.0876 33.895 8.0245 35.4428 6.21534C34.8886 6.1836 34.3472 6.13281 33.7867 6.13281C33.3409 6.13281 32.9141 6.1836 32.4746 6.19629C32.7358 8.33554 32.8568 11.1604 32.9141 13.1981C33.016 13.1981 33.1179 13.1854 33.2262 13.1854L33.2198 13.179Z" fill="#525051"/>
<path d="M23.0996 28.5301C24.2397 31.5075 26.2588 32.8089 27.8448 33.0882C27.9467 32.5042 28.1569 31.4567 28.5136 30.1997C28.5837 29.0824 28.4945 27.2159 27.5773 25.0956C26.4881 22.5752 24.8321 19.801 23.9595 18.3916C23.3735 20.6834 22.1633 26.0732 23.0996 28.5301Z" fill="#525051"/>
<path d="M39.283 16.69C39.8944 15.96 40.646 15.1347 41.372 14.3793C42.0344 13.6874 42.6649 13.0463 43.1234 12.5956C41.4357 12.4496 39.748 12.932 38.2831 13.5795C35.9521 14.6142 34.2198 16.0933 34.1116 16.1885C33.4556 16.8106 32.9588 17.42 32.5767 17.9913C31.8188 19.1276 31.5449 20.1242 31.4558 20.8542C31.4176 21.1843 31.4112 21.47 31.4239 21.6731C34.0288 21.3811 36.8693 19.591 39.283 16.69Z" fill="#525051"/>
<path d="M27.1625 17.5728C27.4555 19.1916 28.3408 20.4994 29.8058 21.458C29.9841 21.2676 30.258 20.9311 30.5446 20.4677C30.672 19.6931 30.9969 18.7282 31.6657 17.6553C31.8058 17.0839 31.9204 16.4618 31.9841 15.7508C31.9841 15.5857 31.9778 14.5953 31.9396 13.2431C31.8822 11.1989 31.7612 8.33578 31.5001 6.2408C31.4746 6.0313 31.4491 5.82815 31.4173 5.6377C31.2899 5.81545 31.137 6.044 30.9841 6.26619C29.7994 8.00566 27.9969 11.0085 27.3217 14.0494C27.0542 15.2492 26.9587 16.4491 27.1625 17.5664V17.5728Z" fill="#525051"/>
<path d="M9.62283 37.2338C9.62283 26.5748 16.6094 17.5282 26.2454 14.3667C26.7804 11.3639 28.4172 8.38647 29.6846 6.4248C14.737 8.39282 3.10754 20.9373 2.62988 36.2561C4.76343 36.7323 7.18358 37.4433 9.69288 38.5225C9.66741 38.0972 9.6292 37.6718 9.6292 37.2401L9.62283 37.2338Z" fill="#525051"/>
<path d="M35.4239 27.4944C36.2646 26.0788 36.6787 24.9171 37.0736 23.7872C37.3474 23.0128 37.6277 22.2256 38.0417 21.375C36.3411 21.9907 33.1818 23.3683 31.6468 25.5139C30.6341 26.9358 29.9334 28.7894 29.4748 30.3827C29.1564 31.4809 28.9462 32.4585 28.8379 33.0615C28.9016 33.0488 28.9844 33.0235 29.0545 33.0044C30.3666 32.6553 33.0481 31.4873 35.4175 27.4944H35.4239Z" fill="#525051"/>
<path d="M30.2906 22.2959C30.1632 22.3784 30.0231 22.4419 29.8639 22.4673L29.8129 22.6069C29.5773 23.3116 29.0359 24.9176 28.832 25.6666V25.692C28.8702 25.819 28.9594 26.0856 29.055 26.3967C29.125 26.6125 29.1951 26.8347 29.2588 27.0886C29.5709 25.7873 30.0422 23.9464 30.4945 22.8101L30.2588 22.8355L30.2779 22.3467V22.2959H30.2906Z" fill="#525051"/>
<path d="M42.747 7.44629C42.6006 7.63039 42.4795 7.78911 42.3203 7.98591C39.2697 11.7696 37.117 12.8742 35.7796 13.0964L35.7668 13.1218C35.7668 13.1218 35.735 13.1726 35.6904 13.2488C35.9897 13.2742 36.2827 13.2932 36.5757 13.3249C38.6392 12.1886 41.4605 11.1474 44.2628 11.795L45.1353 11.9981L44.4921 12.6203C44.4921 12.6203 43.4986 13.5852 42.3713 14.7533C43.887 15.3311 45.3264 16.0484 46.6766 16.9055L34.9771 29.888L33.5314 31.4942L28.4172 37.1697L28.0606 37.5633L27.7103 37.9569C27.8058 36.4904 27.9205 34.9858 27.965 34.37C27.7421 34.3129 27.5447 34.2494 27.3855 34.1986C27.2326 35.462 27.1944 37.5252 27.1881 37.9569C27.2517 38.0839 27.3027 38.2108 27.36 38.3442L27.2135 38.5092L27.1307 38.5981L26.8887 38.8647L26.8505 38.9092L26.5002 39.2964C25.322 36.5602 22.921 33.4559 21.5389 31.7989C21.5389 32.4782 21.488 33.221 21.4307 34.0272C21.2587 36.2873 21.0676 38.8457 22.0739 41.4422C22.3414 42.1342 22.6726 42.6865 23.0229 43.1626L22.698 43.5245L22.3669 43.8927L20.5518 45.9115C22.1057 47.4097 23.4623 48.8 24.6596 50.1269L26.8123 52.5583L28.2644 50.9141C28.7229 52.863 29.3471 55.1358 30.0476 57.4403C30.7291 58.6592 31.3341 59.9098 31.8755 61.2239C31.9455 61.389 32.0092 61.5541 32.0729 61.7255C32.0283 61.5541 31.9774 61.3953 31.9328 61.2303C31.5825 59.9923 31.2259 58.856 30.882 57.9101C29.9266 55.3135 29.2834 52.5202 28.8567 50.2475L53.0836 22.8032C56.1279 26.8281 57.9557 31.818 57.9557 37.2395C57.9557 48.5588 50.0712 58.0561 39.4926 60.6208C38.5691 63.757 37.289 66.4487 36.3145 68.2263C52.3448 66.9375 64.9996 53.5487 64.9996 37.2459C64.9996 23.1968 55.5993 11.3061 42.747 7.45899V7.44629ZM28.7994 46.7622C28.6656 47.0479 28.4873 47.3145 28.2707 47.5621C27.9587 47.9113 27.6084 48.1588 27.2072 48.2985C26.8059 48.4445 26.4047 48.4763 25.9907 48.3874C25.5831 48.2985 25.2074 48.1017 24.8762 47.8033C24.5386 47.4986 24.303 47.1367 24.1756 46.7304C24.0419 46.3241 24.0291 45.9052 24.131 45.4862C24.2329 45.0608 24.4431 44.6799 24.7488 44.3244C25.1118 43.9181 25.564 43.6007 26.1054 43.3785L26.7168 43.9308C26.1499 44.1339 25.6914 44.4323 25.3475 44.8196C25.1309 45.0608 24.9908 45.3211 24.9271 45.5941C24.8634 45.8734 24.8762 46.1464 24.9717 46.4257C25.0672 46.6987 25.2328 46.9399 25.4685 47.1558C25.8188 47.4732 26.2009 47.6192 26.6149 47.5938C27.0288 47.5621 27.3982 47.3716 27.723 47.0034C27.8122 46.9019 27.8886 46.8003 27.9523 46.6924C28.016 46.5844 28.0797 46.4448 28.1434 46.267L27.5702 45.7464L27.0862 46.2924L26.5639 45.8226L27.6148 44.6418L29.035 45.9369C29.0095 46.2035 28.9267 46.4829 28.793 46.7749L28.7994 46.7622ZM31.7417 43.5689C31.6207 43.5499 31.4424 43.5054 31.2004 43.4356C30.6718 43.2832 30.3024 43.1944 30.105 43.1626C29.9075 43.1309 29.7356 43.1309 29.6146 43.1626C29.4936 43.1944 29.3853 43.2578 29.2898 43.3594L29.086 43.588L30.5444 44.9148L29.9776 45.5496L26.5257 42.4135L27.5829 41.2263C27.8568 40.9153 28.1752 40.7439 28.5255 40.7121C28.8758 40.6804 29.2006 40.7947 29.4872 41.0549C29.6846 41.2327 29.812 41.4358 29.8693 41.6644C29.9266 41.8929 29.9139 42.1405 29.8311 42.4072C29.984 42.3564 30.1495 42.3373 30.3215 42.35C30.4935 42.3627 30.761 42.4135 31.1049 42.5151C31.7035 42.6928 32.1239 42.8071 32.3659 42.8515L31.7354 43.5626L31.7417 43.5689ZM34.9261 39.9947L33.7798 39.5758L32.4805 41.0422L33.0346 42.1215L32.4423 42.7881L30.2005 38.2934L30.7801 37.6458L35.5248 39.3282L34.9261 40.0011V39.9947ZM35.8815 38.9219L32.4296 35.7857L32.9964 35.1509L36.4483 38.287L35.8815 38.9219ZM39.4098 34.9541L35.2127 34.6938L37.6584 36.9158L37.1043 37.5379L33.6524 34.4018L34.1492 33.8431L38.2952 34.078L35.8878 31.8878L36.4419 31.2656L39.8938 34.4018L39.4098 34.9477V34.9541ZM39.5244 33.0876L38.9449 32.5607L40.0339 31.3418L40.6135 31.8687L39.5244 33.0876ZM41.9509 32.0973L38.499 28.9612L40.2887 26.955L40.8109 27.4312L39.5881 28.8024L40.4797 29.615L41.7026 28.2438L42.2312 28.7199L41.0084 30.0912L42.5178 31.4624L41.9509 32.0973ZM46.0142 27.5264C45.8932 27.5074 45.7149 27.4629 45.4729 27.3931C44.9443 27.2407 44.5749 27.1518 44.3711 27.1201C44.1673 27.0884 44.0081 27.0884 43.8807 27.1201C43.7597 27.1518 43.6514 27.2153 43.5622 27.3169L43.3584 27.5455L44.8169 28.8723L44.2501 29.5071L40.7982 26.371L41.8554 25.1838C42.1293 24.8728 42.4477 24.7014 42.798 24.6696C43.1483 24.6379 43.4731 24.7521 43.7597 25.0124C43.9571 25.1902 44.0845 25.3933 44.1418 25.6219C44.1991 25.8504 44.1864 26.098 44.1036 26.3646C44.2564 26.3139 44.422 26.2948 44.594 26.3075C44.7659 26.3202 45.0334 26.371 45.3773 26.4726C45.976 26.6503 46.3964 26.7646 46.6384 26.809L46.0079 27.5201L46.0142 27.5264ZM47.0141 26.4027L43.5622 23.2666L45.4538 21.1399L45.976 21.616L44.6513 23.1079L45.5557 23.9332L46.8294 22.5048L47.3517 22.9809L46.0779 24.4093L47.0587 25.2981L48.4153 23.7745L48.9375 24.2506L47.0141 26.4091V26.4027ZM49.4661 23.6475L46.0142 20.5114L47.9058 18.3847L48.428 18.8608L47.1033 20.3527L48.0077 21.178L49.2751 19.7496L49.7973 20.2257L48.5299 21.6541L49.5107 22.5429L50.8673 21.0193L51.3895 21.4954L49.4661 23.6539V23.6475Z" fill="#525051"/>
<path d="M42.7089 25.5143C42.5497 25.5397 42.3904 25.6349 42.2312 25.8126L41.8809 26.2062L42.8426 27.0822L43.2057 26.676C43.3522 26.5109 43.4286 26.3395 43.4223 26.1681C43.4223 25.9967 43.3395 25.838 43.193 25.6984C43.0337 25.5524 42.8745 25.4952 42.7153 25.5143H42.7089Z" fill="#525051"/>
<path d="M34.6144 12.0738C35.0793 12.2769 37.2256 12.753 41.5628 7.3763C41.6201 7.30647 41.6583 7.24934 41.7156 7.18586C43.2632 5.26243 44.2631 3.87859 45.0656 2.7677C45.8426 1.6949 46.4476 0.856971 47.2119 0C44.4351 1.10454 39.5375 3.34536 36.6843 6.2781C35.0093 7.99839 34.0348 9.9599 34.6144 12.0801V12.0738Z" fill="#525051"/>
<path d="M33.0923 39.3223L31.2324 38.6367L32.1433 40.3824L33.0923 39.3223Z" fill="#525051"/>
</svg>
