<svg width="61" height="60" viewBox="0 0 61 60" fill="none" xmlns="http://www.w3.org/2000/svg">
<path d="M28.1639 60C25.1282 60 22.3247 59.0196 20.192 57.3169C18.0679 55.6314 16.5715 53.0687 16.5715 50.1534V44.3572H10.7754C7.86007 44.3572 5.29735 42.8608 3.61181 40.7367C1.90907 38.604 0.937311 35.8005 0.928711 32.7648V27.2266C0.928711 24.1909 1.90047 21.396 3.61181 19.2633C5.29735 17.1392 7.86007 15.6428 10.7754 15.6428H16.5715V9.84664C16.5715 6.93135 18.0679 4.36864 20.192 2.6831C22.3247 0.980364 25.1282 0.00859968 28.1639 0H33.7021C36.7378 0 39.5413 0.971764 41.674 2.6831C43.7981 4.36864 45.2945 6.93135 45.2945 9.84664V15.6428H51.0907V21.1552H39.7821V9.84664C39.7821 8.84908 39.3005 7.86011 38.2255 6.98294C37.1592 6.12298 35.5425 5.5124 33.7021 5.5124H28.1639C26.3236 5.5124 24.7068 6.12298 23.6405 6.98294C22.5655 7.86011 22.0839 8.84048 22.0839 9.84664V21.1552H10.7754C9.7778 21.1552 8.78882 21.6368 7.91165 22.7118C7.05168 23.7781 6.44111 25.3863 6.44111 27.2266V32.7648C6.44111 34.6051 7.05168 36.2219 7.91165 37.2882C8.78882 38.3632 9.7692 38.8448 10.7754 38.8448H22.0839V50.1534C22.0839 51.1509 22.5655 52.1399 23.6405 53.0171C24.7068 53.877 26.3236 54.4876 28.1639 54.4876H33.7021C35.5425 54.4876 37.1592 53.877 38.217 53.0171C39.2919 52.1399 39.7735 51.1509 39.7735 50.1534V38.8448H51.0821C52.0797 38.8448 53.0686 38.3632 53.9458 37.2882C54.8057 36.2305 55.4163 34.6051 55.4163 32.7648V27.2266C55.4163 25.3863 54.8057 23.7695 53.9458 22.7118C53.0686 21.6368 52.0882 21.1552 51.0821 21.1552V15.6428C53.9974 15.6428 56.5601 17.1392 58.2456 19.2633C59.9483 21.396 60.9201 24.1995 60.9287 27.2266V32.7648C60.9287 35.8005 59.957 38.604 58.2456 40.7367C56.5601 42.8608 53.9974 44.3572 51.0821 44.3572H45.2859V50.1534C45.2859 53.0687 43.7895 55.6228 41.6654 57.3169C39.5327 59.0196 36.7292 60 33.6935 60H28.1553H28.1639Z" fill="#F6B626"/>
</svg>
