<svg width="65" height="60" viewBox="0 0 65 60" fill="none" xmlns="http://www.w3.org/2000/svg">
<path d="M32.0017 59.9915C31.2059 59.9915 30.4615 59.6329 29.9481 59.0353L5.01416 30C1.67709 26.6448 0 22.2567 0 17.8941C0 13.4377 1.7541 8.96414 5.21097 5.59192C8.6336 2.26238 13.1001 0.59761 17.541 0.59761C22.0418 0.59761 26.5682 2.30507 29.9994 5.71144L31.8049 7.50427L34.3718 5.00285C37.7859 1.66477 42.261 0 46.7019 0C51.2027 0 55.7291 1.70746 59.1603 5.11383C62.7369 8.67388 64.2942 13.395 64.2857 17.9539C64.2857 22.1628 63.0022 26.2948 60.6406 29.6329L60.3839 29.9402L55.6264 34.9175L34.0724 59.078C33.5504 59.667 32.806 60 32.0273 60H32.0017V59.9915ZM9.04432 9.51053C6.66559 11.8412 5.48478 14.8549 5.48478 17.9027C5.48478 20.9078 6.63136 23.8873 8.95875 26.2094L9.10422 26.3717L32.0616 53.1019L51.5535 31.255L51.6134 31.1867L56.2682 26.3204C57.8597 24.0239 58.8009 20.9761 58.7924 17.9624C58.7924 14.6073 57.6714 11.3887 55.2756 8.99829C52.914 6.65054 49.8165 5.48093 46.6933 5.48093C43.6044 5.48093 40.5497 6.62493 38.1966 8.92146L33.6873 13.3096C32.6177 14.3512 30.8979 14.3426 29.8368 13.2925L26.1147 9.60444C23.7531 7.25669 20.6556 6.08708 17.5325 6.08708C14.4521 6.08708 11.3974 7.23108 9.03576 9.5276L9.04432 9.51053Z" fill="#F6B626"/>
</svg>
