<svg width="38" height="38" viewBox="0 0 38 38" fill="none" xmlns="http://www.w3.org/2000/svg">
<path d="M21.3473 0.404599C11.1188 -0.868497 1.80112 6.45633 0.542784 16.7557C-0.721543 27.0612 6.55283 36.4435 16.7813 37.7105C27.0098 38.9776 36.3274 31.6588 37.5918 21.3534C38.8501 11.054 31.5817 1.67166 21.3473 0.404599ZM17.2906 33.5353C9.35113 32.5518 3.7066 25.2692 4.68331 17.2746C5.5941 9.86533 11.8678 4.44713 19.1002 4.47127C20.8739 3.48778 22.6595 3.29471 24.4152 3.9041C26.9618 4.79105 28.9692 7.2588 30.2994 9.84723C32.7022 12.8218 33.9486 16.7316 33.4453 20.8345C32.4685 28.829 25.2361 34.5127 17.2966 33.5292L17.2906 33.5353Z" fill="#B3B2B2"/>
<path d="M31.1443 16.8583C31.1443 24.159 27.609 27.2724 23.9778 28.7868C18.3213 31.146 10.7293 28.5213 8.78791 21.106C7.40374 15.8266 9.34517 9.05685 17.6442 6.60719C3.81449 8.47762 2.74191 29.0402 17.788 31.4778C25.9492 32.0269 32.151 25.4623 31.1443 16.8523V16.8583Z" fill="#B3B2B2"/>
<path d="M30.557 12.7554C28.9152 7.93457 24.565 1.95524 19.0043 5.57542C22.5876 6.11845 25.6076 7.42775 27.6329 10.0705C24.9365 8.13971 21.9704 7.0597 18.7467 6.78215C19.9091 12.7072 25.3799 14.0889 30.557 12.7554Z" fill="#B3B2B2"/>
<path d="M13.6295 18.5054C13.7853 18.4149 13.965 18.3787 14.1628 18.4028C14.3605 18.4269 14.5283 18.5054 14.6601 18.632C14.7919 18.7587 14.8459 18.9035 14.8279 19.0604L14.762 19.6637L16.0802 19.8265L16.1402 19.2414C16.1881 18.813 16.0443 18.4209 15.6908 18.065C15.3372 17.709 14.8818 17.4979 14.3186 17.4315C13.7553 17.3651 13.27 17.4556 12.8385 17.709C12.4071 17.9624 12.1614 18.3063 12.1075 18.7406L11.6701 22.294C11.6162 22.7163 11.7719 23.1084 12.1255 23.4643C12.479 23.8203 12.9344 24.0375 13.4977 24.0978C14.0789 24.1581 14.3605 23.9289 14.72 23.6272L14.8878 24.1762L15.523 24.2667L15.9664 20.8763L13.9351 20.6229L13.8152 21.6123L14.5283 21.7027L14.3845 22.6258C14.3605 22.7826 14.2766 22.9033 14.1208 22.9938C13.965 23.0843 13.7853 23.1205 13.5816 23.0903C13.3778 23.0601 13.216 22.9877 13.0842 22.8611C12.9584 22.7344 12.9044 22.5956 12.9224 22.4388L13.3598 18.8794C13.3778 18.7225 13.4677 18.6019 13.6235 18.5054H13.6295Z" fill="#B3B2B2"/>
<path d="M22.4857 25.1355L23.2827 18.62L21.551 18.4089L19.8492 22.9576L19.244 18.1254L17.4404 17.8961L16.6435 24.4116L17.8958 24.5684L18.3992 20.4842L19.1182 24.7192L20.1309 24.8459L21.7248 20.8884L21.2274 24.9786L22.4857 25.1355Z" fill="#B3B2B2"/>
<path d="M15.3732 12.7012L14.9178 16.3993L15.6308 16.4898L15.9185 14.1189L16.6135 16.6104L17.3745 16.707L17.8299 13.0028L17.1169 12.9183L16.8113 15.4039L16.1701 12.7977L15.3732 12.7012Z" fill="#B3B2B2"/>
<path d="M22.4917 17.3405L23.2527 17.437L23.7081 13.7329L22.9951 13.6484L22.6955 16.1279L22.0543 13.5277L21.2514 13.4312L20.802 17.1293L21.509 17.2198L21.8026 14.8489L22.4917 17.3405Z" fill="#B3B2B2"/>
<path d="M19.0943 16.9674C19.4058 17.0037 19.6815 16.9554 19.9212 16.8106C20.1608 16.6657 20.2987 16.4726 20.3286 16.2252L20.5743 14.2037C20.6043 13.9623 20.5204 13.739 20.3226 13.5399C20.1249 13.3407 19.8672 13.2201 19.5556 13.1839C19.2441 13.1476 18.9744 13.1959 18.7287 13.3407C18.4891 13.4856 18.3512 13.6787 18.3213 13.9261L18.0756 15.9476C18.0456 16.189 18.1295 16.4123 18.3273 16.6114C18.525 16.8106 18.7827 16.9312 19.0943 16.9674ZM19.0223 13.9985C19.0343 13.908 19.0823 13.8416 19.1721 13.7873C19.262 13.733 19.3579 13.7149 19.4718 13.733C19.5856 13.7511 19.6755 13.7873 19.7474 13.8597C19.8193 13.9321 19.8493 14.0106 19.8373 14.1011L19.5916 16.1226C19.5796 16.2131 19.5317 16.2795 19.4478 16.3338C19.3579 16.3881 19.262 16.4062 19.1482 16.3881C19.0343 16.37 18.9445 16.3338 18.8725 16.2614C18.8006 16.189 18.7707 16.1106 18.7827 16.02L19.0283 13.9985H19.0223Z" fill="#B3B2B2"/>
<path d="M26.4165 18.9037C25.8713 18.8373 25.3859 18.9278 24.9545 19.1873C24.529 19.4406 24.2834 19.7905 24.2294 20.2249L23.792 23.8084C23.7381 24.2428 23.8879 24.6349 24.2354 24.9908C24.583 25.3468 25.0324 25.5579 25.5896 25.6243C26.1469 25.6906 26.6263 25.6001 27.0577 25.3407C27.4831 25.0874 27.7288 24.7375 27.7827 24.3031L28.2202 20.7196C28.2741 20.2852 28.1243 19.8931 27.7708 19.5372C27.4232 19.1812 26.9678 18.9701 26.4165 18.9037ZM26.4705 24.1342C26.4525 24.291 26.3626 24.4177 26.2128 24.5082C26.057 24.5987 25.8832 24.6349 25.6855 24.6108C25.4878 24.5866 25.32 24.5082 25.1942 24.3815C25.0683 24.2548 25.0084 24.11 25.0324 23.9532L25.4698 20.3637C25.4878 20.2068 25.5777 20.0801 25.7334 19.9896C25.8892 19.8991 26.069 19.8629 26.2667 19.8871C26.4645 19.9112 26.6263 19.9896 26.7581 20.1163C26.8839 20.243 26.9379 20.3878 26.9199 20.5446L26.4825 24.1342H26.4705Z" fill="#B3B2B2"/>
</svg>
