<svg width="38" height="38" viewBox="0 0 38 38" fill="none" xmlns="http://www.w3.org/2000/svg">
<path d="M18.6667 0.260849C8.35955 0.260849 0 8.67838 0 19.057C0 29.4356 8.35955 37.8531 18.6667 37.8531C28.9738 37.8531 37.3333 29.4356 37.3333 19.057C37.3333 8.67838 28.9738 0.260849 18.6667 0.260849ZM31.8802 25.0367C29.615 30.1114 24.5513 33.6474 18.6667 33.6474C12.782 33.6474 8.02397 30.3226 5.66292 25.4953H3.00225L2.96629 24.6264C2.93034 23.7274 2.93034 22.8222 2.96629 21.9232L2.99625 21.0724L4.30861 21.0482C4.21873 20.4026 4.17079 19.7388 4.17079 19.069C4.17079 18.3993 4.21873 17.7717 4.30262 17.1442C4.15281 17.1442 4.003 17.1442 3.85318 17.1381L2.99625 17.114L2.97828 16.2511C2.9603 15.3762 2.9603 14.3806 2.97828 13.5177L2.99625 12.6428L4.86592 12.6126H5.66891C8.03596 7.7974 12.9618 4.4847 18.6607 4.4847C24.3596 4.4847 29.7228 8.09911 31.9521 13.2703C32.2397 13.4031 32.5154 13.5479 32.779 13.7108C33.7139 14.3444 34.409 15.1891 34.7506 16.1003C35.4876 18.1217 35.5775 21.1327 34.1034 23.305C33.5101 24.0773 32.7491 24.6626 31.8742 25.0488L31.8802 25.0367Z" fill="white"/>
<path d="M28.8959 25.785C28.2187 26.7624 27.3618 27.7036 26.427 28.4336C26.391 28.4818 26.2951 28.4637 26.2652 28.4215C25.8577 28.1681 25.4262 27.957 25.0367 27.7036C25.5521 27.0821 26.0554 26.4607 26.439 25.7669H25.9356C25.5341 26.3581 25.1146 26.9796 24.5813 27.5045C23.8682 27.2149 23.227 26.9615 22.5019 26.7684L22.424 26.7081C22.5378 26.3883 22.7476 26.0806 22.8075 25.7608H22.37L21.9326 26.6236C20.9798 26.4185 19.9311 26.3038 18.9663 26.2375C18.9184 26.0927 18.9843 25.8875 18.9184 25.7608H18.4989C18.4629 25.9539 18.5468 26.0987 18.4509 26.2556C17.4502 26.3038 16.4854 26.4124 15.5446 26.6055L15.1071 25.7548C14.9453 25.7548 14.7655 25.7246 14.6577 25.7729L15.0592 26.7141L15.0112 26.7624C14.2861 26.9735 13.579 27.2269 12.8839 27.5165L12.818 27.4864C12.3625 26.9916 11.9311 26.4486 11.5715 25.9056C11.4936 25.6341 11.17 25.791 10.9903 25.7608C11.3738 26.4667 11.8951 27.0882 12.4105 27.7277C11.973 27.9811 11.5416 28.2707 11.0861 28.4819C10.0974 27.7277 9.24045 26.8167 8.53933 25.785C8.34757 25.7548 8.21573 25.7669 8.02397 25.785C9.18652 27.607 10.9963 29.1998 12.8839 30.141C12.8839 30.141 12.8839 30.1289 12.9019 30.1289C12.9139 30.1289 12.9498 30.1591 12.9139 30.1772C14.1903 30.7986 15.5446 31.2451 16.9828 31.4382C21.9386 32.0897 26.6667 29.9721 29.4052 25.785C29.2315 25.7669 29.0637 25.7669 28.8899 25.785H28.8959ZM22.1663 27.2209L22.2142 27.1907C22.9094 27.3476 23.5685 27.5769 24.1858 27.8785C23.6704 28.4698 23.0052 28.9826 22.394 29.411C22.0225 29.6342 21.6509 29.8755 21.2614 30.0686L20.5663 29.7669L20.6142 29.6583C21.1955 28.874 21.7109 28.0776 22.1663 27.233V27.2209ZM18.9843 26.7443C19.9071 26.7624 20.824 26.8589 21.6809 27.064L21.6989 27.1123C21.2494 27.9751 20.6802 28.8076 20.0689 29.5859C19.7933 29.6161 19.5356 29.5075 19.2599 29.4894L18.9843 29.4592C18.9543 28.518 18.9363 27.6855 18.9843 26.7443ZM15.8682 27.0339C16.7071 26.877 17.576 26.7443 18.4809 26.7443L18.4989 29.4472C18.1573 29.5256 17.7858 29.5256 17.4682 29.604C16.809 28.8197 16.2577 27.9751 15.7903 27.0942L15.8682 27.0278V27.0339ZM15.239 27.1907L15.3049 27.2088C15.7723 28.0897 16.3536 28.9162 16.9348 29.7488C16.7131 29.8755 16.4375 29.954 16.2097 30.0867C15.1191 29.5437 14.1243 28.8197 13.2734 27.9449V27.8966C13.9026 27.595 14.5678 27.3657 15.239 27.1907ZM15.3528 30.6237C13.9985 30.2737 12.7401 29.6644 11.5775 28.8378V28.7895C11.967 28.5542 12.3566 28.2948 12.77 28.1199C13.6929 29.0309 14.6397 29.7187 15.6764 30.3703C15.5985 30.4668 15.4667 30.5633 15.3528 30.6237ZM21.3393 30.8288C19.6315 31.1968 17.7258 31.2149 16.012 30.7986C15.982 30.7202 16.0899 30.7021 16.1438 30.6538C17.6419 29.6764 19.985 29.6764 21.4532 30.7323C21.5011 30.8288 21.3693 30.7986 21.3393 30.8288ZM22.8914 30.3823L22.1303 30.6237C21.9985 30.5573 21.8906 30.4668 21.7768 30.3703L21.8067 30.322C22.8375 29.7187 23.7723 28.9826 24.6652 28.1018C25.1026 28.2767 25.5221 28.518 25.9116 28.7895C25.0067 29.5135 23.9581 29.9902 22.8914 30.3884V30.3823Z" fill="white"/>
<path d="M33.9176 16.408C33.624 15.6417 33.0307 14.9538 32.3056 14.459C30.2083 13.1195 27.0142 13.0229 24.851 14.2358C23.6704 14.8392 22.8974 16.04 22.6577 17.2709C22.2202 19.2984 22.3341 21.706 23.8862 23.2266C25.6959 24.8195 28.3266 25.1756 30.6637 24.5178C30.7775 24.4937 31.1251 24.4092 31.3708 24.2765L31.4367 24.2463C32.1618 23.9446 32.8569 23.4498 33.3723 22.774C34.5648 21.0181 34.6487 18.3812 33.9236 16.402L33.9176 16.408ZM30.1064 20.9577C30.0225 21.3439 29.7648 21.7422 29.3633 21.887C28.7161 22.1706 27.8472 22.0921 27.248 21.7603C26.7446 21.4103 26.6847 20.819 26.6187 20.2578C26.5708 19.1596 26.4929 17.989 26.7985 16.9873C27.0382 16.3658 27.7034 16.2029 28.2966 16.1546C28.9259 16.1546 29.5371 16.2512 29.9266 16.7641C30.1663 17.1321 30.1543 17.6088 30.2023 18.0433C30.1843 18.9544 30.2682 20.0345 30.1064 20.9638V20.9577Z" fill="white"/>
<path d="M10.9843 21.9534C10.4509 21.9232 9.85168 21.9654 9.33632 21.9051L9.3543 16.2994L9.38426 16.2512L10.9843 16.2331C11.0022 15.3219 11.0142 14.3504 10.9663 13.5177L4.88389 13.4996L3.88314 13.5177C3.86516 14.3625 3.86516 15.3521 3.88314 16.215C4.43445 16.2331 4.94981 16.215 5.48314 16.2632V21.6939L5.46516 21.9172L3.86516 21.9473C3.82921 22.8223 3.82921 23.7032 3.86516 24.5842H10.9843V21.9473V21.9534Z" fill="white"/>
<path d="M8.51536 12.286C8.91686 11.731 9.34832 11.2 9.82173 10.7053C10.2412 10.3071 10.6307 9.92098 11.0802 9.63741C11.4996 9.90891 11.967 10.1321 12.3685 10.3916C11.8712 11.013 11.3498 11.6344 10.9783 12.3041C11.0921 12.3524 11.3019 12.3403 11.4637 12.3041C11.8652 11.7129 12.3026 11.1216 12.818 10.5967C13.5131 10.8501 14.1903 11.1216 14.8974 11.3147L14.9573 11.381L14.5558 12.3041C14.7356 12.3403 14.8494 12.3222 15.0232 12.3041C15.167 12.0326 15.2809 11.731 15.4427 11.4595C16.3775 11.6706 17.3663 11.7792 18.367 11.8094C18.4929 11.924 18.397 12.1593 18.445 12.3041H18.8824C18.9303 12.1473 18.8644 11.9723 18.9303 11.8275C19.8652 11.7792 20.8539 11.6827 21.7588 11.4595L21.8367 11.4776L22.2742 12.3041C22.418 12.3041 22.6157 12.3403 22.7236 12.274L22.3221 11.3509L22.3581 11.3207C23.1011 11.1276 23.7963 10.8441 24.5034 10.5545C25.0068 11.0794 25.4742 11.7008 25.8936 12.3102C26.0674 12.3102 26.2472 12.3283 26.379 12.28C26.1813 11.924 25.9476 11.5862 25.6839 11.2724C25.4682 10.9647 25.2345 10.6812 24.9708 10.4097V10.3252L26.1034 9.67361L26.2652 9.60725C27.248 10.3554 28.1049 11.2543 28.812 12.274C29.0038 12.274 29.1656 12.3403 29.3274 12.2619C27.1641 9.00995 23.5985 6.91641 19.7393 6.61475L19.7214 6.64491L19.6914 6.61475C19.2539 6.56648 18.7206 6.54838 18.2532 6.59665C18.0734 6.58458 17.8697 6.59665 17.6539 6.61475C13.7828 6.91641 10.2172 8.91342 7.98802 12.3102C8.14982 12.2921 8.34158 12.3584 8.50338 12.2921L8.51536 12.286ZM15.215 10.8803L15.1491 10.8923C14.4839 10.7174 13.8427 10.5062 13.2255 10.2407L13.2554 10.1442C14.1423 9.29955 15.0772 8.59366 16.1139 8.05066C16.3596 8.1472 16.5993 8.22563 16.839 8.34026L16.791 8.46696C16.1738 9.23318 15.6944 10.0658 15.209 10.8803H15.215ZM18.427 11.3086C17.9775 11.375 17.57 11.2966 17.1206 11.2604C16.6891 11.194 16.1378 11.1518 15.7004 11.007C16.1678 10.1321 16.7191 9.28748 17.3783 8.50316L18.409 8.64192C18.4569 9.46848 18.427 10.4278 18.427 11.3086ZM18.9244 11.3267C18.8944 10.476 18.9064 9.53485 18.9244 8.66002C19.2479 8.61176 19.6015 8.56349 19.9251 8.51523C20.5543 9.31162 21.1715 10.1321 21.591 11.0009C20.7161 11.2121 19.8232 11.3207 18.9244 11.3267ZM24.0719 10.2045C23.4427 10.476 22.7955 10.7294 22.1004 10.8742C21.603 10.0296 21.0517 9.18492 20.4345 8.36439C20.6622 8.2377 20.9378 8.14116 21.1775 8.01446C22.2262 8.53936 23.245 9.28748 24.0959 10.1502L24.0659 10.1985L24.0719 10.2045ZM22.0045 7.4775C23.3588 7.82743 24.6352 8.43679 25.7978 9.26335L25.7678 9.32972L24.6532 9.95114H24.5693C23.7124 9.09442 22.7176 8.34026 21.6989 7.749C21.7288 7.63437 21.8906 7.55594 22.0045 7.4775ZM21.3573 7.31461V7.35081C19.9551 8.37043 17.6779 8.46696 16.1918 7.52577C16.1079 7.4594 15.9521 7.42924 15.9341 7.32064C17.6479 6.92244 19.6614 6.89228 21.3573 7.32064V7.31461ZM11.5116 9.29352C12.5303 8.54539 13.6569 7.9843 14.8554 7.6042C14.9034 7.55594 14.9333 7.50767 14.9993 7.50767V7.53784C15.1311 7.568 15.227 7.4232 15.3408 7.51974C15.4367 7.6042 15.5506 7.66453 15.6345 7.74297C14.6337 8.36439 13.6509 9.10045 12.7461 9.99338C12.3086 9.83651 11.9071 9.59518 11.5176 9.32368V9.29352H11.5116Z" fill="white"/>
<path d="M14.1783 21.0241C14.0524 20.8672 13.9685 20.6741 13.8367 20.5173L11.6614 20.5354C11.6255 21.8266 11.6135 23.311 11.6614 24.5903L14.0824 24.5721L14.1124 23.8058C14.388 23.9325 14.6637 24.0955 14.9333 24.2342C16.6112 24.9402 18.7745 25.0971 20.4345 24.2342C21.645 23.5645 22.2921 22.2732 22.1124 20.8793C21.9386 19.5216 20.6442 18.2907 19.3378 17.9588L15.4307 16.8244L15.1431 16.6796C15.0112 16.571 14.9333 16.4262 14.9633 16.2512C15.2689 15.7262 15.982 15.8831 16.5154 15.9012C17.642 16.0641 18.8045 16.4443 19.4697 17.4821C20.1768 17.4821 21.0038 17.4942 21.7768 17.464C21.8068 16.1546 21.7648 15.0081 21.7468 13.6806C21.0217 13.6625 20.1348 13.6625 19.4097 13.6988C19.3798 13.8858 19.4397 14.1573 19.3618 14.3504L18.6187 13.9522C16.845 13.204 14.3581 13.1255 12.7461 14.2901C11.6974 15.0564 11.3738 16.4322 11.6494 17.645C11.8592 18.7915 12.9558 19.6423 14.0045 20.0406C15.4427 20.5535 16.9408 20.9215 18.397 21.4163C18.5408 21.4827 18.7326 21.6275 18.7026 21.8025C18.7026 21.9413 18.5588 22.0258 18.445 22.0861C16.9288 22.5025 15.2809 22.1827 14.1843 21.0362L14.1783 21.0241Z" fill="white"/>
</svg>
