<svg width="40" height="47" viewBox="0 0 40 47" fill="none" xmlns="http://www.w3.org/2000/svg">
<path d="M20.0697 38.4531C19.8239 37.7129 19.5589 37.0103 19.2669 36.3418C19.1901 36.1605 19.1056 35.983 19.0211 35.8093C18.2107 34.087 17.1814 32.5271 15.6911 30.8237C14.8653 29.8757 13.8936 28.8823 12.749 27.7908C12.4916 27.5453 12.2343 27.2998 11.9578 27.043C10.2985 25.5095 8.4664 24.4293 6.68039 23.6437C5.14788 22.9676 3.6653 22.5182 2.35556 22.2236C1.80631 22.0989 1.27627 21.9932 0.800003 21.9176C1.29932 22.114 1.8332 22.3596 2.37476 22.6277C3.61921 23.2471 4.9059 24.0516 5.91989 25.1016C6.569 25.7739 7.00686 26.5746 7.56379 27.5869C8.07847 28.5273 8.71605 29.6755 9.71468 31.1145C10.3907 32.089 11.2434 33.2032 12.3418 34.4911C12.5416 34.7253 12.7259 34.9481 12.941 35.1899C15.1418 37.6789 17.8036 39.5107 19.5819 40.5758C19.9161 40.776 20.208 40.9459 20.473 41.0895C20.5536 41.1348 20.6266 41.1725 20.6996 41.2141C20.7687 41.2519 20.8532 41.301 20.9147 41.3312C20.8532 41.0895 20.7879 40.8628 20.7265 40.6324C20.5152 39.8582 20.3001 39.133 20.0697 38.4494V38.4531Z" fill="#B3B2B2"/>
<path d="M12.4455 35.6204C12.2496 35.3976 12.0806 35.1936 11.8963 34.9821C10.7978 33.7017 9.94127 32.5875 9.26143 31.6131C8.19367 30.0872 7.52536 28.8824 6.98379 27.8966C6.43071 26.8881 6.03125 26.1592 5.4436 25.5473C4.58708 24.6559 3.50012 23.9383 2.41315 23.3718C2.98928 31.9795 9.55718 38.9819 18.0532 40.3832C16.3479 39.2614 14.2469 37.6562 12.4417 35.6167L12.4455 35.6204Z" fill="#B3B2B2"/>
<path d="M21.268 42.2452C21.268 42.2452 21.1874 42.2074 21.0721 42.147C21.4832 44.4243 21.729 46.4373 21.7636 46.713C21.8942 46.9736 21.9748 47 21.9748 47C22.0094 46.9887 22.0824 46.8829 22.1208 46.781C22.1054 46.0823 21.8404 44.345 21.4447 42.3283L21.2719 42.2452H21.268Z" fill="#B3B2B2"/>
<path d="M24.706 26.2158C24.8443 25.5209 24.9749 24.8523 25.9851 23.4284C24.4179 24.977 22.5511 27.2092 21.8097 29.6226C20.9301 32.4893 20.6036 34.8575 20.8071 37.1765C20.9109 38.3436 21.1528 39.4994 21.5293 40.6966C21.56 40.7948 21.5831 40.8893 21.6138 40.9875C21.6714 40.9006 21.7406 40.7911 21.8059 40.6815C22.3014 39.8846 23.0466 38.5513 23.592 36.9726C23.811 36.338 24.0031 35.6657 24.126 34.9708C24.5024 32.8444 24.5024 30.6688 24.5024 29.0787C24.5024 27.9796 24.5024 27.1109 24.6177 26.6048C24.6484 26.4689 24.6753 26.3405 24.6983 26.212L24.706 26.2158Z" fill="#B3B2B2"/>
<path d="M21.0799 9.125L21.0952 9.10234C21.2758 8.80398 21.633 8.23749 21.8558 7.89003C21.7943 7.8787 21.7367 7.8636 21.6753 7.84471C21.5485 7.81072 21.4333 7.76918 21.3449 7.73141C21.3295 7.75785 21.3103 7.79562 21.2911 7.82583C21.1183 8.12419 20.8494 8.61137 20.7073 8.87196V9.40825C20.8187 9.31383 20.9147 9.24207 20.9915 9.1892C21.0222 9.16654 21.0607 9.13633 21.0837 9.125H21.0799Z" fill="#B3B2B2"/>
<path d="M17.9458 24.724C17.8497 24.7391 17.7537 24.7957 17.6577 24.9015L17.4464 25.1356L18.0264 25.653L18.2454 25.4113C18.3337 25.3131 18.3798 25.2111 18.376 25.1092C18.376 25.0072 18.326 24.9128 18.2377 24.8297C18.1417 24.7428 18.0456 24.7088 17.9458 24.7202V24.724Z" fill="#B3B2B2"/>
<path d="M20.8341 7.84059C20.957 7.62155 21.0645 7.43649 21.1068 7.37607L21.1222 7.3534C20.738 6.00137 21.2412 4.77395 22.1747 3.69761C21.8405 3.67873 21.514 3.64851 21.1759 3.64851C20.907 3.64851 20.6497 3.67873 20.3846 3.68628C20.5421 4.95901 20.6151 6.63962 20.6497 7.85192C20.7111 7.85192 20.7726 7.84437 20.8379 7.84437L20.8341 7.84059Z" fill="#B3B2B2"/>
<path d="M14.7309 16.9736C15.4184 18.745 16.6361 19.5193 17.5926 19.6855C17.6541 19.338 17.7808 18.7148 17.9959 17.9669C18.0382 17.3022 17.9844 16.1918 17.4313 14.9303C16.7744 13.4308 15.7757 11.7803 15.2494 10.9418C14.896 12.3053 14.1662 15.5119 14.7309 16.9736Z" fill="#B3B2B2"/>
<path d="M24.4905 9.92941C24.8592 9.4951 25.3125 9.00413 25.7503 8.55471C26.1498 8.14306 26.53 7.76161 26.8066 7.49347C25.7887 7.40661 24.7709 7.69363 23.8875 8.07885C22.4817 8.69445 21.437 9.57441 21.3717 9.63106C20.9761 10.0012 20.6765 10.3637 20.4461 10.7036C19.989 11.3796 19.8239 11.9726 19.7701 12.4069C19.747 12.6033 19.7432 12.7732 19.7509 12.8941C21.3218 12.7204 23.0348 11.6553 24.4905 9.92941Z" fill="#B3B2B2"/>
<path d="M17.1814 10.4546C17.3581 11.4177 17.892 12.1958 18.7755 12.7661C18.883 12.6528 19.0482 12.4526 19.2211 12.1769C19.2979 11.7161 19.4938 11.142 19.8971 10.5037C19.9816 10.1638 20.0508 9.79365 20.0892 9.37063C20.0892 9.27243 20.0853 8.68322 20.0623 7.87873C20.0277 6.66255 19.9547 4.95915 19.7973 3.71275C19.7819 3.58811 19.7665 3.46725 19.7473 3.35394C19.6705 3.4597 19.5783 3.59567 19.4861 3.72786C18.7716 4.76275 17.6846 6.54924 17.2774 8.3584C17.1161 9.07225 17.0584 9.78609 17.1814 10.4508V10.4546Z" fill="#B3B2B2"/>
<path d="M6.60356 22.1518C6.60356 15.8103 10.817 10.4282 16.6283 8.54725C16.9509 6.76075 17.938 4.98936 18.7023 3.82228C9.68779 4.99314 2.67434 12.4564 2.38628 21.5702C3.67297 21.8534 5.1325 22.2765 6.64581 22.9185C6.63045 22.6655 6.6074 22.4124 6.6074 22.1556L6.60356 22.1518Z" fill="#B3B2B2"/>
<path d="M22.1634 16.3577C22.6704 15.5155 22.9201 14.8243 23.1583 14.1521C23.3234 13.6914 23.4924 13.2231 23.7421 12.717C22.7165 13.0833 20.8112 13.9028 19.8855 15.1794C19.2747 16.0253 18.8522 17.1281 18.5756 18.076C18.3836 18.7294 18.2568 19.311 18.1915 19.6698C18.2299 19.6622 18.2799 19.6471 18.3221 19.6358C19.1134 19.4281 20.7306 18.7332 22.1595 16.3577H22.1634Z" fill="#B3B2B2"/>
<path d="M19.0673 13.2646C18.9905 13.3137 18.906 13.3515 18.8099 13.3666L18.7792 13.4497C18.6371 13.8689 18.3106 14.8244 18.1877 15.27V15.2852C18.2107 15.3607 18.2645 15.5193 18.3221 15.7044C18.3644 15.8328 18.4066 15.965 18.445 16.116C18.6332 15.3418 18.9175 14.2466 19.1902 13.5706L19.0481 13.5857L19.0596 13.2949V13.2646H19.0673Z" fill="#B3B2B2"/>
<path d="M26.58 4.43037C26.4916 4.53991 26.4187 4.63433 26.3226 4.75142C24.4829 7.00248 23.1846 7.65967 22.3781 7.79186L22.3704 7.80697C22.3704 7.80697 22.3512 7.83718 22.3243 7.88251C22.5048 7.89762 22.6815 7.90895 22.8582 7.92783C24.1026 7.25176 25.8041 6.63234 27.4941 7.01759L28.0203 7.13845L27.6324 7.50859C27.6324 7.50859 27.0332 8.08269 26.3534 8.77765C27.2675 9.12135 28.1355 9.54814 28.9498 10.058L21.8941 17.7819L21.0222 18.7375L17.938 22.1141L17.7229 22.3482L17.5117 22.5824C17.5693 21.7099 17.6384 20.8148 17.6653 20.4484C17.5309 20.4144 17.4118 20.3767 17.3158 20.3464C17.2236 21.0981 17.2006 22.3256 17.1967 22.5824C17.2351 22.6579 17.2659 22.7335 17.3004 22.8128L17.2121 22.911L17.1621 22.9639L17.0162 23.1225L16.9931 23.1489L16.7819 23.3793C16.0713 21.7515 14.6233 19.9045 13.7899 18.9188C13.7899 19.3229 13.7591 19.7648 13.7246 20.2445C13.6209 21.5891 13.5056 23.1112 14.1125 24.656C14.2738 25.0676 14.4735 25.3962 14.6848 25.6795L14.4889 25.8948L14.2892 26.1139L13.1945 27.3149C14.1317 28.2063 14.9498 29.0334 15.6719 29.8228L16.9701 31.2694L17.8458 30.2912C18.1224 31.4507 18.4988 32.8028 18.9213 34.1739C19.3322 34.899 19.6971 35.6431 20.0236 36.4249C20.0659 36.5231 20.1043 36.6213 20.1427 36.7233C20.1158 36.6213 20.0851 36.5269 20.0582 36.4287C19.8469 35.6922 19.6318 35.0161 19.4244 34.4534C18.8483 32.9086 18.4604 31.2467 18.203 29.8946L32.8137 13.5668C34.6497 15.9614 35.752 18.9301 35.752 22.1556C35.752 28.8899 30.997 34.5402 24.6173 36.0661C24.0604 37.9319 23.2883 39.5334 22.7007 40.5909C32.3682 39.8242 40 31.8586 40 22.1594C40 13.801 34.3309 6.72676 26.58 4.43793V4.43037ZM18.1685 27.821C18.0878 27.991 17.9803 28.1496 17.8497 28.2969C17.6615 28.5047 17.4502 28.652 17.2082 28.7351C16.9663 28.8219 16.7243 28.8408 16.4746 28.7879C16.2288 28.7351 16.0022 28.618 15.8025 28.4405C15.5989 28.2592 15.4568 28.0439 15.38 27.8022C15.2993 27.5604 15.2916 27.3111 15.3531 27.0619C15.4145 26.8088 15.5413 26.5822 15.7257 26.3707C15.9446 26.129 16.2173 25.9401 16.5438 25.8079L16.9125 26.1365C16.5707 26.2574 16.2941 26.4349 16.0867 26.6653C15.9561 26.8088 15.8716 26.9637 15.8332 27.1261C15.7948 27.2923 15.8025 27.4547 15.8601 27.6209C15.9177 27.7833 16.0176 27.9268 16.1597 28.0552C16.3709 28.2441 16.6014 28.3309 16.851 28.3158C17.1007 28.2969 17.3235 28.1836 17.5193 27.9646C17.5731 27.9041 17.6192 27.8437 17.6576 27.7795C17.696 27.7153 17.7344 27.6322 17.7728 27.5264L17.4272 27.2167L17.1353 27.5415L16.8203 27.262L17.4541 26.5595L18.3106 27.33C18.2952 27.4887 18.2453 27.6549 18.1646 27.8286L18.1685 27.821ZM19.9429 25.9212C19.87 25.9099 19.7624 25.8835 19.6165 25.8419C19.2977 25.7513 19.0749 25.6984 18.9558 25.6795C18.8368 25.6606 18.7331 25.6606 18.6601 25.6795C18.5871 25.6984 18.5218 25.7362 18.4642 25.7966L18.3413 25.9326L19.2209 26.7219L18.879 27.0996L16.7973 25.2338L17.4348 24.5275C17.6 24.3425 17.7921 24.2405 18.0033 24.2216C18.2145 24.2027 18.4104 24.2707 18.5833 24.4256C18.7023 24.5313 18.7792 24.6522 18.8137 24.7881C18.8483 24.9241 18.8406 25.0714 18.7907 25.23C18.8829 25.1998 18.9827 25.1885 19.0864 25.1961C19.1901 25.2036 19.3514 25.2338 19.5589 25.2943C19.9199 25.4 20.1734 25.468 20.3194 25.4944L19.9391 25.9175L19.9429 25.9212ZM21.8634 23.7948L21.172 23.5455L20.3885 24.418L20.7226 25.0601L20.3654 25.4567L19.0135 22.7826L19.363 22.3973L22.2244 23.3982L21.8634 23.7986V23.7948ZM22.4395 23.1565L20.3578 21.2907L20.6996 20.913L22.7814 22.7788L22.4395 23.1565ZM24.5674 20.7959L22.0362 20.6411L23.5111 21.963L23.177 22.3331L21.0952 20.4673L21.3948 20.1349L23.8952 20.2747L22.4434 18.9716L22.7775 18.6015L24.8593 20.4673L24.5674 20.7921V20.7959ZM24.6365 19.6855L24.287 19.372L24.9438 18.6468L25.2933 18.9603L24.6365 19.6855ZM26.0999 19.0963L24.0181 17.2305L25.0974 16.0369L25.4124 16.3202L24.6749 17.136L25.2126 17.6195L25.9501 16.8037L26.2689 17.0869L25.5314 17.9028L26.4417 18.7186L26.0999 19.0963ZM28.5504 16.3769C28.4774 16.3655 28.3698 16.3391 28.2239 16.2976C27.9051 16.2069 27.6823 16.154 27.5594 16.1351C27.4365 16.1163 27.3405 16.1163 27.2637 16.1351C27.1907 16.154 27.1254 16.1918 27.0716 16.2522L26.9487 16.3882L27.8283 17.1776L27.4864 17.5553L25.4047 15.6895L26.0423 14.9832C26.2074 14.7981 26.3995 14.6961 26.6107 14.6772C26.822 14.6584 27.0178 14.7263 27.1907 14.8812C27.3097 14.987 27.3866 15.1078 27.4211 15.2438C27.4557 15.3798 27.448 15.5271 27.3981 15.6857C27.4903 15.6555 27.5901 15.6441 27.6938 15.6517C27.7975 15.6593 27.9589 15.6895 28.1663 15.7499C28.5273 15.8557 28.7808 15.9236 28.9268 15.9501L28.5465 16.3731L28.5504 16.3769ZM29.1534 15.7084L27.0716 13.8425L28.2124 12.5773L28.5273 12.8605L27.7284 13.7481L28.2738 14.2391L29.042 13.3893L29.3569 13.6726L28.5888 14.5224L29.1803 15.0512L29.9984 14.1447L30.3133 14.428L29.1534 15.7121V15.7084ZM30.6321 14.0692L28.5504 12.2033L29.6911 10.9381L30.006 11.2213L29.2071 12.1089L29.7526 12.5999L30.5169 11.7501L30.8318 12.0334L30.0675 12.8832L30.659 13.412L31.4771 12.5055L31.7921 12.7888L30.6321 14.0729V14.0692Z" fill="#B3B2B2"/>
<path d="M26.557 15.1796C26.461 15.1947 26.3649 15.2513 26.2689 15.3571L26.0576 15.5912L26.6376 16.1124L26.8566 15.8707C26.9449 15.7725 26.991 15.6705 26.9872 15.5686C26.9872 15.4666 26.9373 15.3722 26.8489 15.2891C26.7529 15.2022 26.6569 15.1682 26.5608 15.1796H26.557Z" fill="#B3B2B2"/>
<path d="M21.6752 7.18318C21.9555 7.30404 23.2499 7.58729 25.8656 4.38846C25.9001 4.34692 25.9232 4.31293 25.9577 4.27517C26.8911 3.13084 27.4941 2.30753 27.978 1.64662C28.4466 1.00836 28.8115 0.509848 29.2724 0C27.5978 0.657137 24.6442 1.99029 22.9235 3.7351C21.9133 4.75858 21.3256 5.92556 21.6752 7.18696V7.18318Z" fill="#B3B2B2"/>
<path d="M20.7573 23.3944L19.6357 22.9865L20.185 24.0251L20.7573 23.3944Z" fill="#B3B2B2"/>
</svg>
