<svg width="90" height="54" viewBox="0 0 90 54" fill="none" xmlns="http://www.w3.org/2000/svg">
<path d="M67.2627 20.1272C67.2627 22.4234 65.1304 24.3033 62.5259 24.3033C59.9214 24.3033 57.7891 22.4234 57.7891 20.1272C57.7891 17.8311 59.9214 15.9512 62.5259 15.9512C65.1304 15.9512 67.2627 17.8311 67.2627 20.1272Z" fill="#B3B2B2"/>
<path d="M24.0638 33.583C27.2762 32.0556 29.2876 29.281 29.2876 26.1841C29.2876 22.0502 25.6266 16.8794 16.5828 16.8794H0V54.0001H18.6665C29.8519 54.0001 32.2105 47.3579 32.2105 43.1119C32.2105 38.8659 29.5191 34.9423 24.0494 33.583H24.0638ZM9.55029 23.6757H14.557C18.0443 23.6757 19.4479 25.6936 19.4479 27.5994C19.4479 29.5052 18.0443 31.6352 14.557 31.6352H9.55029V23.6757ZM14.9477 47.2037H9.55029V38.4315H16.2355C19.607 38.4315 22.0814 39.9029 22.0814 42.6215C22.0814 45.8305 20.2293 47.2037 14.9332 47.2037H14.9477Z" fill="#B3B2B2"/>
<path d="M42.7894 34.8856H42.8995C45.1985 29.5777 47.7728 27.0874 50.76 27.0874C52.3156 27.0874 53.6509 27.6993 55.8948 29.4069L53.7611 36.4794C51.7237 35.156 50.3883 34.601 49.1631 34.601C46.3273 34.601 44.5101 37.3617 42.8031 42.0719V53.0719H35.0527V27.5855H42.8031V34.8856" fill="#B3B2B2"/>
<path d="M66.3163 53.0716H58.7373V28.0151H66.3163V53.0716Z" fill="#B3B2B2"/>
<path d="M90.0003 32.9063H80.7607V43.2267C80.7607 45.674 82.1898 47.2542 84.666 47.2542C86.3215 47.2542 87.8496 46.8766 90.0003 45.7859V51.4915C87.1987 52.6382 85.1046 53.0717 82.6285 53.0717C77.3507 53.0717 72.7805 50.6804 72.7805 43.6742V32.9203H69.1582V31.396L79.7703 19.6631H80.7607V27.5363H90.0003V32.9203" fill="#B3B2B2"/>
<path d="M5.18015 8.52696C5.05862 8.52696 4.93709 8.47484 4.84594 8.39666L0.805123 4.3574C0.258246 3.88832 0 3.27592 0 2.67654C0 2.05111 0.288629 1.4387 0.850698 0.969628C1.39758 0.500552 2.12674 0.279044 2.84072 0.279044C3.56989 0.279044 4.29906 0.513582 4.86113 0.995687L5.14976 1.24326L5.57511 0.891448C6.12199 0.409343 6.85116 0.174805 7.56514 0.174805C8.29431 0.174805 9.02348 0.409343 9.58555 0.891448C10.1628 1.38658 10.4211 2.03808 10.4211 2.67654C10.4211 3.26289 10.2084 3.8362 9.8286 4.30528L9.78303 4.34437L9.00829 5.03495L5.51435 8.39666C5.43839 8.47484 5.31686 8.52696 5.18015 8.52696ZM1.45834 1.50385C1.07856 1.8296 0.88108 2.24656 0.88108 2.67654C0.88108 3.0935 1.06337 3.51045 1.44315 3.8362L1.47353 3.86226L5.19534 7.57578L8.35507 4.53982L9.11463 3.84923C9.37287 3.52348 9.52478 3.10653 9.52478 2.68957C9.52478 2.2205 9.34249 1.77748 8.96271 1.4387C8.58294 1.11296 8.08163 0.943568 7.56514 0.943568C7.06383 0.943568 6.57772 1.09993 6.19795 1.42567L5.46878 2.03808C5.30167 2.18141 5.01304 2.18141 4.84594 2.03808L4.2383 1.52991C3.85852 1.20417 3.35722 1.03478 2.85591 1.03478C2.35461 1.03478 1.8685 1.19114 1.47353 1.51688L1.45834 1.50385Z" fill="#F6B626"/>
<path d="M27.8702 8.51392C27.1793 8.51392 26.6127 8.27916 26.1705 7.92703C25.7283 7.58794 25.3828 7.15756 25.0512 6.75326C24.8301 6.47938 24.5261 6.2055 24.2635 5.86641C24.001 5.52732 23.766 5.09694 23.766 4.57526C23.766 4.15792 23.8351 3.75362 23.9595 3.36236L22.7711 0.727895C22.702 0.584434 22.7434 0.401847 22.854 0.297512C22.9784 0.180135 23.158 0.141009 23.31 0.206218L25.8112 1.15828C26.4054 0.83223 27.1102 0.636602 27.8564 0.636602C28.6302 0.636602 29.3903 0.793105 30.0536 1.17132L32.5824 0.21926C32.7344 0.154051 32.9279 0.193176 33.0384 0.310554C33.1628 0.427931 33.1904 0.597476 33.1213 0.740937L31.8362 3.58407C31.9191 3.91012 31.9606 4.23617 31.9606 4.57526C31.9606 5.12302 31.7118 5.57949 31.4216 5.94466C31.1314 6.30983 30.7998 6.62284 30.5511 6.90976C30.2194 7.28798 29.8878 7.67924 29.4732 7.99224C29.0586 8.30525 28.5197 8.52696 27.8702 8.52696H27.8564L27.8702 8.51392ZM24.8024 3.19282C24.8439 3.28411 24.8439 3.38845 24.8024 3.47974C24.6781 3.81883 24.609 4.184 24.609 4.57526C24.609 4.87522 24.7334 5.10998 24.9406 5.3969C25.1479 5.67078 25.4519 5.94466 25.7145 6.27071C26.0461 6.68805 26.364 7.06627 26.6956 7.31406C27.0411 7.5749 27.3727 7.71836 27.8564 7.71836C28.3262 7.71836 28.6441 7.58794 28.9619 7.35319C29.2797 7.11843 29.5699 6.77934 29.9154 6.38809C30.2056 6.06204 30.5234 5.76207 30.7583 5.46211C30.9933 5.16215 31.1314 4.88827 31.1314 4.56222C31.1314 4.24921 31.09 3.93621 31.0071 3.63624C30.9794 3.54495 30.9933 3.45366 31.0347 3.3754L31.9744 1.2887L30.1918 1.96688C30.0536 2.01904 29.9154 2.006 29.791 1.92775C29.2521 1.57562 28.5888 1.41912 27.884 1.41912C27.2345 1.41912 26.6265 1.6017 26.1152 1.92775C26.0047 1.99296 25.8527 2.006 25.7283 1.96688L23.9595 1.30174L24.8163 3.19282H24.8024Z" fill="#81C3D7"/>
<path d="M37.4698 8.51385C36.9924 8.51385 36.5449 8.38273 36.2017 8.13361C35.8735 7.8976 35.6348 7.54358 35.6348 7.13712V6.32419H34.7098C34.2473 6.32419 33.8445 6.11441 33.5759 5.82595C33.3074 5.52438 33.1582 5.14414 33.1582 4.72457V3.95098C33.1582 3.5314 33.3074 3.13805 33.5759 2.83648C33.8445 2.54802 34.2473 2.33824 34.7098 2.33824H35.6348V1.53842C35.6348 1.13196 35.8735 0.777943 36.2017 0.541932C36.5449 0.305922 36.9775 0.174805 37.4549 0.174805H38.3352C38.8126 0.174805 39.2601 0.305922 39.6033 0.541932C39.9464 0.777943 40.1851 1.13196 40.1702 1.53842V2.33824H41.0803V3.09871H39.29V1.53842C39.29 1.39419 39.2154 1.26308 39.0364 1.14507C38.8722 1.02707 38.6186 0.935284 38.3202 0.935284H37.44C37.1565 0.935284 36.888 1.01395 36.7239 1.14507C36.5598 1.26308 36.4852 1.4073 36.4852 1.53842V3.11183H34.6949C34.5308 3.11183 34.3816 3.17739 34.2473 3.33473C34.113 3.47895 34.0086 3.70185 34.0086 3.96409V4.73768C34.0086 4.99991 34.0981 5.22281 34.2473 5.36704C34.3816 5.51127 34.5457 5.57683 34.6949 5.57683H36.4852V7.15023C36.4852 7.29446 36.5598 7.42558 36.7239 7.54358C36.888 7.66159 37.1565 7.75337 37.44 7.75337H38.3202C38.6037 7.75337 38.8722 7.6747 39.0364 7.54358C39.2005 7.42558 39.2751 7.28135 39.29 7.15023V5.57683H41.0803C41.2444 5.57683 41.3936 5.51127 41.5279 5.36704C41.6621 5.22281 41.7666 4.9868 41.7666 4.73768V3.96409C41.7666 3.70185 41.6771 3.47895 41.5279 3.33473C41.3936 3.1905 41.2295 3.11183 41.0803 3.11183V2.35135C41.5428 2.35135 41.9456 2.56114 42.2141 2.84959C42.4827 3.15116 42.6319 3.5314 42.6319 3.96409V4.73768C42.6319 5.15725 42.4827 5.5506 42.2141 5.83906C41.9456 6.14063 41.5428 6.33731 41.0803 6.33731H40.1702V7.15023C40.1702 7.55669 39.9315 7.91071 39.6033 8.14672C39.2601 8.38273 38.8275 8.52696 38.3352 8.52696H37.4549L37.4698 8.51385Z" fill="#7CB227"/>
<path d="M13.7304 1.62476C13.5586 1.47069 13.5586 1.20456 13.7304 1.05049C14.1027 0.686321 14.4606 0.40619 14.8901 0.238111C15.3197 0.0700328 15.7778 0 16.3219 0C16.551 0 16.7371 0.182085 16.7371 0.40619C16.7371 0.630295 16.551 0.81238 16.3219 0.81238C15.8351 0.81238 15.5058 0.868406 15.2051 0.994465C14.9188 1.12052 14.6467 1.30261 14.3174 1.62476C14.2315 1.7088 14.1313 1.75082 14.0168 1.75082C13.9165 1.75082 13.802 1.7088 13.7161 1.62476H13.7304Z" fill="#B57B49"/>
<path d="M14.9184 8.26449C14.5605 7.91433 14.3028 7.46612 14.1023 6.9899C13.7158 6.05146 13.5869 5.02898 13.5869 4.4267C13.5869 4.20259 13.773 4.02051 14.0021 4.02051C14.2312 4.02051 14.4173 4.20259 14.4173 4.4267C14.4173 4.77686 14.4889 5.42116 14.6607 6.06546C14.8325 6.69576 15.1189 7.32605 15.4911 7.67622C15.7345 7.91433 15.9923 8.02638 16.3216 8.04039C16.5506 8.04039 16.7368 8.22247 16.7368 8.44658C16.7368 8.67068 16.5506 8.85277 16.3216 8.85277C15.7632 8.85277 15.2764 8.60065 14.9184 8.26449Z" fill="#B57B49"/>
<path d="M11.0816 8.36156C10.8382 8.06742 10.7236 7.67523 10.7236 7.185C10.7236 6.62474 10.8668 5.91041 11.1818 4.97197C11.4395 4.1876 11.4825 3.68337 11.4825 3.27718C11.4825 3.09509 11.4825 2.92701 11.4825 2.74493C11.4825 2.38076 11.5397 1.97457 11.8118 1.55437C11.9979 1.26023 12.227 1.02212 12.4847 0.840036C12.7424 0.657951 13.0431 0.545898 13.3724 0.545898C13.6301 0.545898 13.8878 0.615931 14.1026 0.770003C14.2887 0.896062 14.346 1.14818 14.2028 1.34427C14.0739 1.52636 13.8019 1.56838 13.6158 1.44232C13.5299 1.38629 13.4583 1.35828 13.3581 1.35828C13.2435 1.35828 13.1003 1.4003 12.9572 1.49834C12.7997 1.59639 12.6422 1.76447 12.5133 1.96056C12.3415 2.24069 12.3129 2.40877 12.3129 2.71691C12.3129 2.87099 12.3129 3.03906 12.3129 3.24916C12.3129 3.71138 12.2699 4.34167 11.9693 5.21008C11.6686 6.09249 11.554 6.73679 11.554 7.171C11.554 7.54917 11.64 7.73126 11.7115 7.8153C11.7831 7.89934 11.8547 7.92735 12.0265 7.92735C12.2986 7.92735 12.771 7.74527 13.1576 7.47914C13.5442 7.21302 13.8735 6.86285 13.9594 6.66676L13.988 6.58272C13.988 6.35862 14.1742 6.17653 14.4032 6.17653C14.6323 6.17653 14.8184 6.35862 14.8184 6.58272C14.8184 6.89087 14.6753 7.12898 14.5035 7.36709C14.3317 7.5912 14.1026 7.8153 13.8305 8.0254C13.3008 8.41758 12.6708 8.75374 12.0265 8.75374H12.0122C11.6829 8.75374 11.325 8.62768 11.0816 8.34755V8.36156Z" fill="#B57B49"/>
<path d="M18.4119 1.62476C18.0826 1.30261 17.8105 1.10652 17.5242 0.994465C17.2378 0.868406 16.8942 0.826387 16.4074 0.81238C16.1783 0.81238 15.9922 0.630295 15.9922 0.40619C15.9922 0.182085 16.1783 0 16.4074 0C16.9515 0 17.4239 0.0700328 17.8392 0.238111C18.2687 0.40619 18.6266 0.686321 18.9989 1.05049C19.1564 1.20456 19.1564 1.47069 18.9989 1.62476C18.913 1.7088 18.8127 1.75082 18.6982 1.75082C18.598 1.75082 18.4834 1.7088 18.3975 1.62476H18.4119Z" fill="#B57B49"/>
<path d="M15.9785 8.44576C15.9785 8.22165 16.1646 8.03957 16.3937 8.03957C16.723 8.03957 16.9807 7.91351 17.2241 7.6754C17.4675 7.43728 17.6823 7.08712 17.8398 6.69494C18.1691 5.89656 18.298 4.9161 18.298 4.43988C18.298 4.21578 18.4841 4.03369 18.7132 4.03369C18.9422 4.03369 19.1284 4.21578 19.1284 4.43988C19.1284 4.88809 19.0568 5.57441 18.8563 6.28875C18.6559 7.00308 18.3409 7.74543 17.8112 8.26367C17.4532 8.61384 16.9664 8.86595 16.3937 8.85195C16.1646 8.85195 15.9785 8.66986 15.9785 8.44576Z" fill="#B57B49"/>
<path d="M20.7031 8.7679C20.2163 8.7679 19.7438 8.57181 19.2999 8.31969C18.8704 8.05356 18.4838 7.73141 18.2261 7.38125C18.0543 7.14314 17.9111 6.90503 17.9111 6.59688C17.9111 6.37278 18.0973 6.19069 18.3263 6.19069C18.5554 6.19069 18.7416 6.37278 18.7416 6.59688C18.7416 6.59688 18.7416 6.6249 18.7702 6.68092C18.7702 6.68092 18.8418 6.80698 18.899 6.87701C19.0136 7.03109 19.1997 7.21317 19.4145 7.38125C19.8297 7.7034 20.3881 7.95552 20.7031 7.94151C20.8749 7.94151 20.9465 7.89949 21.018 7.82946C21.0896 7.74542 21.1755 7.56333 21.1755 7.18516C21.1755 6.75096 21.061 6.10665 20.7603 5.22424C20.474 4.35583 20.4167 3.73955 20.4167 3.26332C20.4167 3.05323 20.4167 2.88515 20.4167 2.73107C20.4167 2.42293 20.3881 2.25485 20.2163 1.97472C20.0874 1.76462 19.9299 1.61055 19.7724 1.5125C19.6149 1.41446 19.4717 1.37244 19.3715 1.37244C19.2856 1.37244 19.1997 1.40045 19.1138 1.45648C18.9277 1.58254 18.67 1.54052 18.5268 1.35843C18.3979 1.17635 18.4409 0.924229 18.627 0.784163C18.8561 0.630091 19.1138 0.560059 19.3572 0.560059C19.6722 0.560059 19.9729 0.672111 20.2449 0.854196C20.5026 1.03628 20.7317 1.27439 20.9178 1.56853C21.1899 1.98873 21.2471 2.39492 21.2471 2.75909C21.2471 2.92717 21.2471 3.09524 21.2471 3.29134C21.2471 3.71153 21.2758 4.20176 21.5478 4.98613C21.8628 5.92457 22.0059 6.6389 22.0059 7.19916C22.0059 7.68939 21.9057 8.08158 21.648 8.37571C21.4046 8.66985 21.0467 8.78191 20.7174 8.78191H20.7031V8.7679Z" fill="#B57B49"/>
</svg>
