<svg width="67" height="67" viewBox="0 0 67 67" fill="none" xmlns="http://www.w3.org/2000/svg">
<path d="M47.4897 12.7004C47.4897 14.2149 46.2482 15.4548 44.7317 15.4548C43.2152 15.4548 41.9736 14.2149 41.9736 12.7004C41.9736 11.186 43.2152 9.94604 44.7317 9.94604C46.2482 9.94604 47.4897 11.186 47.4897 12.7004Z" fill="white"/>
<path d="M20.787 21.1852C22.7558 20.2199 23.9885 18.4663 23.9885 16.5089C23.9885 13.8963 21.7448 10.6282 16.2021 10.6282H6.03906V34.0893H17.4792C24.3344 34.0893 25.7799 29.8912 25.7799 27.2077C25.7799 24.5242 24.1304 22.0443 20.7782 21.1852H20.787ZM11.8921 14.9236H14.9606C17.0978 14.9236 17.9581 16.199 17.9581 17.4035C17.9581 18.608 17.0978 19.9542 14.9606 19.9542H11.8921V14.9236ZM15.2 29.7938H11.8921V24.2496H15.9893C18.0556 24.2496 19.5721 25.1795 19.5721 26.8977C19.5721 28.9259 18.4369 29.7938 15.1911 29.7938H15.2Z" fill="white"/>
<path d="M32.4576 22.0621H32.5286C34.0096 18.7586 35.6679 17.2087 37.5924 17.2087C38.5945 17.2087 39.4547 17.5896 40.9002 18.6524L39.5257 23.0541C38.2131 22.2304 37.3529 21.885 36.5636 21.885C34.7368 21.885 33.5662 23.6032 32.4665 26.5347V33.3809H27.4736V17.5187H32.4665V22.0621" fill="white"/>
<path d="M47.1706 33.3804H42.1777V17.5183H47.1706V33.3804Z" fill="white"/>
<path d="M61.7857 20.928H55.9947V27.4641C55.9947 29.014 56.8904 30.0148 58.4423 30.0148C59.4799 30.0148 60.4377 29.7757 61.7857 29.0849V32.6984C60.0297 33.4246 58.7172 33.6991 57.1653 33.6991C53.8574 33.6991 50.9929 32.1847 50.9929 27.7475V20.9368H48.7227V19.9714L55.3739 12.5408H55.9947V17.527H61.7857V20.9368" fill="white"/>
<path d="M9.2321 5.67707C9.16115 5.67707 9.0902 5.64164 9.03699 5.5885L6.67803 2.84296C6.35877 2.52413 6.20801 2.10787 6.20801 1.70046C6.20801 1.27535 6.37651 0.859089 6.70463 0.540252C7.02389 0.221415 7.44957 0.0708527 7.86638 0.0708527C8.29206 0.0708527 8.71774 0.230271 9.04586 0.557965L9.21436 0.72624L9.46267 0.487112C9.78193 0.159418 10.2076 0 10.6244 0C11.0501 0 11.4758 0.159418 11.8039 0.487112C12.1409 0.823662 12.2917 1.26649 12.2917 1.70046C12.2917 2.09901 12.1675 2.4887 11.9458 2.80754L11.9192 2.83411L11.4669 3.30351L9.4272 5.5885C9.38286 5.64164 9.31191 5.67707 9.2321 5.67707ZM7.05936 0.903371C6.83766 1.12479 6.72237 1.4082 6.72237 1.70046C6.72237 1.98387 6.82879 2.26729 7.0505 2.4887L7.06823 2.50641L9.24097 5.03054L11.0856 2.96696L11.529 2.49756C11.6797 2.27614 11.7684 1.99273 11.7684 1.70932C11.7684 1.39048 11.662 1.08936 11.4403 0.859089C11.2186 0.637674 10.9259 0.522538 10.6244 0.522538C10.3318 0.522538 10.048 0.628817 9.82627 0.850232L9.4006 1.26649C9.30304 1.36391 9.13455 1.36391 9.03699 1.26649L8.68226 0.921085C8.46055 0.69967 8.1679 0.584534 7.87525 0.584534C7.58259 0.584534 7.29881 0.690813 7.06823 0.912228L7.05936 0.903371Z" fill="white"/>
<path d="M23.2081 5.73011C22.7647 5.73011 22.4011 5.5707 22.1173 5.33157C21.8336 5.1013 21.6119 4.80903 21.399 4.53448C21.2571 4.34849 21.062 4.1625 20.8935 3.93223C20.725 3.70196 20.5743 3.40969 20.5743 3.05543C20.5743 2.77202 20.6186 2.49746 20.6984 2.23176L19.9357 0.442735C19.8914 0.345312 19.918 0.22132 19.989 0.150467C20.0688 0.0707581 20.1841 0.0441883 20.2816 0.0884713L21.8868 0.735002C22.2681 0.513587 22.7204 0.380738 23.1993 0.380738C23.6959 0.380738 24.1837 0.487017 24.6093 0.743858L26.2322 0.0973278C26.3298 0.0530449 26.4539 0.0796147 26.5249 0.159324C26.6047 0.239033 26.6224 0.354169 26.5781 0.451591L25.7533 2.38233C25.8066 2.60374 25.8332 2.82516 25.8332 3.05543C25.8332 3.4274 25.6735 3.73738 25.4873 3.98537C25.3011 4.23335 25.0882 4.44591 24.9286 4.64075C24.7158 4.8976 24.5029 5.16329 24.2369 5.37585C23.9708 5.58841 23.625 5.73897 23.2081 5.73897H23.1993L23.2081 5.73011ZM21.2394 2.11663C21.266 2.17863 21.266 2.24948 21.2394 2.31147C21.1596 2.54174 21.1152 2.78973 21.1152 3.05543C21.1152 3.25913 21.195 3.41855 21.3281 3.61339C21.4611 3.79938 21.6562 3.98537 21.8247 4.20678C22.0375 4.49019 22.2415 4.74703 22.4543 4.91531C22.676 5.09244 22.8889 5.18986 23.1993 5.18986C23.5008 5.18986 23.7048 5.1013 23.9087 4.94188C24.1127 4.78246 24.2989 4.55219 24.5207 4.28649C24.7069 4.06508 24.9109 3.86138 25.0616 3.65767C25.2124 3.45397 25.3011 3.26798 25.3011 3.04657C25.3011 2.83401 25.2745 2.62145 25.2212 2.41775C25.2035 2.35576 25.2124 2.29376 25.239 2.24062L25.842 0.823568L24.698 1.28411C24.6093 1.31954 24.5207 1.31068 24.4408 1.25754C24.095 1.01841 23.6693 0.912133 23.217 0.912133C22.8002 0.912133 22.41 1.03613 22.0819 1.25754C22.0109 1.30182 21.9134 1.31068 21.8336 1.28411L20.6984 0.832424L21.2483 2.11663H21.2394Z" fill="white"/>
<path d="M29.4252 5.71189C29.1415 5.71189 28.8754 5.62332 28.6714 5.45505C28.4763 5.29563 28.3344 5.0565 28.3344 4.78195V4.23284H27.7846C27.5097 4.23284 27.2702 4.09113 27.1106 3.89629C26.951 3.69259 26.8623 3.43575 26.8623 3.15234V2.6298C26.8623 2.34639 26.951 2.08069 27.1106 1.87699C27.2702 1.68214 27.5097 1.54044 27.7846 1.54044H28.3344V1.00019C28.3344 0.725632 28.4763 0.486504 28.6714 0.327086C28.8754 0.167667 29.1326 0.0791016 29.4164 0.0791016H29.9396C30.2234 0.0791016 30.4894 0.167667 30.6934 0.327086C30.8974 0.486504 31.0393 0.725632 31.0304 1.00019V1.54044H31.5714V2.05412H30.5072V1.00019C30.5072 0.902764 30.4628 0.814198 30.3564 0.734489C30.2589 0.65478 30.1081 0.592784 29.9307 0.592784H29.4075C29.239 0.592784 29.0794 0.645923 28.9818 0.734489C28.8843 0.814198 28.8399 0.91162 28.8399 1.00019V2.06298H27.7757C27.6782 2.06298 27.5895 2.10726 27.5097 2.21354C27.4299 2.31096 27.3678 2.46152 27.3678 2.63865V3.16119C27.3678 3.33832 27.421 3.48889 27.5097 3.58631C27.5895 3.68373 27.6871 3.72801 27.7757 3.72801H28.8399V4.7908C28.8399 4.88823 28.8843 4.97679 28.9818 5.0565C29.0794 5.13621 29.239 5.19821 29.4075 5.19821H29.9307C30.0992 5.19821 30.2589 5.14507 30.3564 5.0565C30.454 4.97679 30.4983 4.87937 30.5072 4.7908V3.72801H31.5714C31.6689 3.72801 31.7576 3.68373 31.8374 3.58631C31.9172 3.48889 31.9793 3.32947 31.9793 3.16119V2.63865C31.9793 2.46152 31.9261 2.31096 31.8374 2.21354C31.7576 2.11612 31.6601 2.06298 31.5714 2.06298V1.54929C31.8463 1.54929 32.0857 1.691 32.2454 1.88584C32.405 2.08955 32.4937 2.34639 32.4937 2.63865V3.16119C32.4937 3.4446 32.405 3.7103 32.2454 3.90515C32.0857 4.10885 31.8463 4.2417 31.5714 4.2417H31.0304V4.7908C31.0304 5.06536 30.8885 5.30449 30.6934 5.4639C30.4894 5.62332 30.2323 5.72075 29.9396 5.72075H29.4164L29.4252 5.71189Z" fill="white"/>
<path d="M14.5437 1.09841C14.4373 1.00099 14.4373 0.832711 14.5437 0.735289C14.7743 0.505017 14.996 0.327886 15.262 0.221607C15.5281 0.115328 15.8118 0.0710449 16.1488 0.0710449C16.2907 0.0710449 16.406 0.186181 16.406 0.327886C16.406 0.469591 16.2907 0.584727 16.1488 0.584727C15.8473 0.584727 15.6434 0.620153 15.4571 0.699862C15.2797 0.779572 15.1113 0.894707 14.9073 1.09841C14.8541 1.15155 14.792 1.17812 14.721 1.17812C14.659 1.17812 14.588 1.15155 14.5348 1.09841H14.5437Z" fill="white"/>
<path d="M15.2798 5.29683C15.0581 5.07541 14.8985 4.792 14.7743 4.49088C14.5349 3.89749 14.4551 3.25096 14.4551 2.87012C14.4551 2.72842 14.5704 2.61328 14.7123 2.61328C14.8541 2.61328 14.9694 2.72842 14.9694 2.87012C14.9694 3.09154 15.0138 3.49894 15.1202 3.90634C15.2266 4.30489 15.404 4.70343 15.6346 4.92485C15.7853 5.07541 15.945 5.14626 16.1489 5.15512C16.2908 5.15512 16.4061 5.27026 16.4061 5.41196C16.4061 5.55367 16.2908 5.6688 16.1489 5.6688C15.8031 5.6688 15.5015 5.50938 15.2798 5.29683Z" fill="white"/>
<path d="M12.9033 5.35848C12.7526 5.17249 12.6816 4.9245 12.6816 4.61452C12.6816 4.26026 12.7703 3.80858 12.9654 3.21518C13.1251 2.71922 13.1517 2.40038 13.1517 2.14354C13.1517 2.0284 13.1517 1.92212 13.1517 1.80699C13.1517 1.57672 13.1871 1.31988 13.3556 1.05418C13.4709 0.86819 13.6128 0.717628 13.7724 0.602492C13.9321 0.487357 14.1183 0.416504 14.3223 0.416504C14.4819 0.416504 14.6415 0.460787 14.7746 0.558209C14.8898 0.637918 14.9253 0.797337 14.8366 0.921329C14.7568 1.03646 14.5883 1.06303 14.473 0.983325C14.4198 0.947899 14.3755 0.930186 14.3134 0.930186C14.2425 0.930186 14.1538 0.956755 14.0651 1.01875C13.9675 1.08075 13.87 1.18703 13.7902 1.31102C13.6838 1.48815 13.666 1.59443 13.666 1.78927C13.666 1.8867 13.666 1.99298 13.666 2.12582C13.666 2.41809 13.6394 2.81664 13.4532 3.36575C13.2669 3.92371 13.196 4.33111 13.196 4.60567C13.196 4.8448 13.2492 4.95993 13.2936 5.01307C13.3379 5.06621 13.3822 5.08392 13.4887 5.08392C13.6572 5.08392 13.9498 4.96879 14.1893 4.80051C14.4287 4.63224 14.6327 4.41082 14.6859 4.28683L14.7036 4.23369C14.7036 4.09199 14.8189 3.97685 14.9608 3.97685C15.1027 3.97685 15.218 4.09199 15.218 4.23369C15.218 4.42854 15.1293 4.5791 15.0229 4.72966C14.9165 4.87137 14.7746 5.01307 14.6061 5.14592C14.2779 5.3939 13.8877 5.60646 13.4887 5.60646H13.4798C13.2758 5.60646 13.0541 5.52675 12.9033 5.34962V5.35848Z" fill="white"/>
<path d="M17.4441 1.09841C17.2401 0.894707 17.0716 0.770715 16.8942 0.699862C16.7169 0.620153 16.504 0.593583 16.2025 0.584727C16.0606 0.584727 15.9453 0.469591 15.9453 0.327886C15.9453 0.186181 16.0606 0.0710449 16.2025 0.0710449C16.5395 0.0710449 16.8321 0.115328 17.0893 0.221607C17.3554 0.327886 17.5771 0.505017 17.8077 0.735289C17.9052 0.832711 17.9052 1.00099 17.8077 1.09841C17.7544 1.15155 17.6924 1.17812 17.6214 1.17812C17.5593 1.17812 17.4884 1.15155 17.4352 1.09841H17.4441Z" fill="white"/>
<path d="M15.9365 5.41141C15.9365 5.2697 16.0518 5.15457 16.1937 5.15457C16.3977 5.15457 16.5573 5.07486 16.7081 4.92429C16.8588 4.77373 16.9919 4.55232 17.0894 4.30433C17.2934 3.79951 17.3732 3.17955 17.3732 2.87842C17.3732 2.73672 17.4885 2.62158 17.6304 2.62158C17.7723 2.62158 17.8875 2.73672 17.8875 2.87842C17.8875 3.16183 17.8432 3.59581 17.7191 4.04749C17.5949 4.49918 17.3998 4.96858 17.0717 5.29627C16.85 5.51768 16.5484 5.6771 16.1937 5.66825C16.0518 5.66825 15.9365 5.55311 15.9365 5.41141Z" fill="white"/>
<path d="M18.8631 5.61525C18.5616 5.61525 18.2689 5.49126 17.994 5.33184C17.728 5.16357 17.4885 4.95986 17.3289 4.73845C17.2225 4.58789 17.1338 4.43733 17.1338 4.24248C17.1338 4.10078 17.2491 3.98564 17.391 3.98564C17.5329 3.98564 17.6482 4.10078 17.6482 4.24248C17.6482 4.24248 17.6482 4.26019 17.6659 4.29562C17.6659 4.29562 17.7102 4.37533 17.7457 4.41961C17.8167 4.51703 17.9319 4.63217 18.065 4.73845C18.3221 4.94215 18.668 5.10157 18.8631 5.09271C18.9695 5.09271 19.0139 5.06614 19.0582 5.02186C19.1026 4.96872 19.1558 4.85358 19.1558 4.61446C19.1558 4.3399 19.0848 3.9325 18.8986 3.37454C18.7212 2.82543 18.6857 2.43574 18.6857 2.13461C18.6857 2.00176 18.6857 1.89549 18.6857 1.79806C18.6857 1.60322 18.668 1.49694 18.5616 1.31981C18.4818 1.18696 18.3842 1.08954 18.2867 1.02754C18.1891 0.965545 18.1004 0.938975 18.0384 0.938975C17.9851 0.938975 17.9319 0.956688 17.8787 0.992114C17.7634 1.07182 17.6038 1.04525 17.5151 0.930118C17.4353 0.814983 17.4619 0.655564 17.5772 0.566998C17.7191 0.469576 17.8787 0.425293 18.0295 0.425293C18.2246 0.425293 18.4108 0.496146 18.5793 0.611281C18.739 0.726417 18.8808 0.876979 18.9961 1.06297C19.1646 1.32866 19.2001 1.58551 19.2001 1.81578C19.2001 1.92206 19.2001 2.02833 19.2001 2.15233C19.2001 2.41802 19.2178 2.728 19.3863 3.22397C19.5814 3.81736 19.6701 4.26905 19.6701 4.62331C19.6701 4.93329 19.608 5.18128 19.4484 5.36727C19.2977 5.55325 19.0759 5.62411 18.872 5.62411H18.8631V5.61525Z" fill="white"/>
<path d="M66.9911 58.4798C66.9911 64.1923 64.1444 66.9998 58.38 66.9998H8.40715C2.64275 66.9998 0 63.5457 0 57.8421V47.0636C0 41.3511 3.00635 37.7022 8.76188 37.7022H56.562C62.3264 37.7022 64.3306 38.0034 67 36.5066V58.4798H66.9911ZM20.2641 59.0466L20.069 56.8324C19.1644 57.3196 17.914 57.5941 16.7167 57.5941C13.5951 57.5941 12.6817 55.4065 12.6817 52.661C12.6817 49.4549 14.074 47.3559 16.9118 47.3559C18.0204 47.3559 19.0668 47.6127 19.9448 47.9493L20.2286 45.7086C19.2353 45.4252 18.1268 45.2569 17.0183 45.2569C12.3092 45.2569 9.97684 48.463 9.97684 52.9975C9.97684 58.1875 12.7881 59.7728 16.1669 59.7728C17.8164 59.7728 19.3152 59.4009 20.2552 59.0377L20.2641 59.0466ZM33.5754 59.5868C33.5488 58.3646 33.5222 56.8679 33.5222 55.5305V49.9155C33.5222 47.1079 32.3604 45.2126 28.2987 45.2126C26.4275 45.2126 24.716 45.6643 23.3591 46.2311L23.6163 48.4187C24.8401 47.6836 26.5428 47.2585 27.8731 47.2585C30.2054 47.2585 30.9681 48.3124 30.9681 50.2609V51.3059C25.6294 51.3059 22.4811 53.2632 22.4811 56.3542C22.4811 58.5949 24.0686 59.8437 26.4009 59.8437C28.7333 59.8437 30.5158 58.5063 31.1987 56.7793H31.2608C31.1189 57.5764 31.1189 58.5949 31.1189 59.5868H33.5843H33.5754ZM30.9681 53.3518C30.9681 55.566 29.4339 57.8332 27.137 57.8332C25.8334 57.8332 24.982 57.0716 24.982 55.8759C24.982 54.6006 26.0639 53.095 30.9681 53.095V53.3518ZM44.306 45.2392C41.4948 44.9292 40.0492 46.8865 39.4551 48.8438H39.4019C39.6236 47.6836 39.7122 46.3728 39.7122 45.496H37.2469V59.5868H39.8009V53.9186C39.8009 49.4106 41.2199 47.2319 44.1996 47.7367L44.3149 45.2392H44.306ZM57.0764 51.1642C57.0764 47.9316 55.4003 45.2392 51.4273 45.2392C47.4543 45.2392 45.1219 48.3833 45.1219 52.6079C45.1219 57.5675 47.4543 59.8348 51.7909 59.8348C53.5468 59.8348 55.1963 59.5249 56.562 58.958L56.3314 56.8856C55.1963 57.4258 53.6621 57.7624 52.2165 57.7624C49.2102 57.7624 47.6494 56.1505 47.7558 52.3776H56.9877C57.0409 51.8993 57.0675 51.5008 57.0675 51.1554L57.0764 51.1642ZM54.4602 50.5708H47.8711C48.1549 48.4984 49.4585 47.1079 51.3031 47.1079C53.2896 47.1079 54.5134 48.4984 54.4514 50.5708H54.4602Z" fill="white"/>
</svg>
