<svg width="41" height="27" viewBox="0 0 41 27" fill="none" xmlns="http://www.w3.org/2000/svg">
<path fill-rule="evenodd" clip-rule="evenodd" d="M3.41667 0C1.52969 0 0 1.51104 0 3.375V23.625C0 25.489 1.52969 27 3.41667 27H37.5833C39.4703 27 41 25.489 41 23.625V3.375C41 1.51104 39.4703 0 37.5833 0H3.41667ZM27.028 23.6035C32.6298 23.5845 37.0855 19.026 36.991 13.4105C36.897 7.82316 32.288 3.26706 26.6862 3.28601C24.3216 3.29401 22.1678 4.11969 20.4735 5.48L20.5266 5.52191L20.225 5.52293C18.4905 4.18943 16.3218 3.38861 13.972 3.39656C8.3702 3.41551 3.91451 7.97406 4.00898 13.5896C4.10345 19.2051 8.71201 23.733 14.3138 23.714C16.6784 23.706 18.8322 22.8804 20.5265 21.5201L20.4726 21.4782L20.775 21.4771C22.5095 22.8106 24.6782 23.6114 27.028 23.6035Z" fill="white"/>
</svg>
