<svg width="16" height="19" viewBox="0 0 16 19" fill="none" xmlns="http://www.w3.org/2000/svg">
<path d="M15.9652 17.0607C15.9433 16.0899 15.9214 15.0882 15.8313 14.1031C15.69 12.5564 15.4732 10.8813 15.1688 8.98485C14.8521 7.00038 14.4064 5.25147 13.8072 3.64296C13.7268 3.42642 13.6562 3.21941 13.5953 3.01954L13.5807 2.96719C13.3371 2.14865 13.2494 1.44909 13.3054 0.759048C13.3176 0.597245 13.3176 0.361678 13.1544 0.192736C12.9937 0.0214151 12.755 0 12.565 0H3.15819C2.73193 0 2.49567 0.233187 2.48836 0.659111C2.48836 0.782843 2.48593 0.908954 2.48836 1.04458C2.50541 1.7489 2.52246 2.41277 2.22043 3.03143C2.14736 3.18134 2.10108 3.33601 2.05724 3.48591L2.0207 3.61202C1.09513 6.60301 0.503244 9.81052 0.208521 13.4249C0.113528 14.5742 0.0794275 15.7473 0.0453274 16.8823C0.030713 17.3296 0.0185344 17.777 0.00148427 18.2243C-0.00582291 18.4432 0.00879146 18.6693 0.162242 18.8239C0.313257 18.9786 0.537344 19 0.75656 19H7.9858C8.95035 19 9.91246 19 10.877 19C12.3531 19 13.8315 19 15.31 19C15.5463 19 15.7192 18.9429 15.8361 18.8239C15.9531 18.7049 16.0066 18.536 15.9993 18.3052C15.9847 17.8912 15.9774 17.4771 15.9677 17.0631L15.9652 17.0607ZM3.7111 1.76318V1.2278H12.0632V1.76318H3.7111ZM12.7988 17.3796C12.9937 17.5081 13.1861 17.6389 13.3858 17.7722H12.2094C12.4115 17.6366 12.6064 17.5057 12.7988 17.3796ZM14.3893 16.9751C14.0849 16.7681 13.778 16.5611 13.4711 16.3612C13.4223 16.3302 13.4077 16.3207 13.4077 16.2255C13.4077 14.9644 13.4102 14.6265 13.4126 14.5385C13.4126 14.5242 13.4126 14.51 13.4126 14.4957L13.342 14.2601C13.2421 14.0531 13.0448 13.9198 12.8061 13.9151C12.6453 13.9103 12.4992 13.9722 12.3872 14.0817C12.2629 14.2006 12.1972 14.3672 12.1972 14.548V14.9192C12.1939 15.0112 12.1939 15.273 12.1972 15.7044V16.2255C12.1972 16.3136 12.185 16.3255 12.1314 16.3612C11.7271 16.6277 11.3252 16.8989 10.9209 17.1726L10.8161 17.244C10.6505 14.6456 11.7612 7.08366 12.7111 4.19261C13.9728 8.11872 14.6475 12.3946 14.7717 17.2297C14.6451 17.144 14.5209 17.0607 14.3942 16.9751H14.3893ZM3.4456 17.006C3.57957 17.0084 3.71353 16.987 3.8475 16.9394C4.13248 16.8228 4.27131 16.542 4.17632 16.2731C4.10568 16.0685 3.92788 15.921 3.83045 15.852C3.70866 15.7663 3.56739 15.7735 3.46265 15.7758H1.30216C1.30216 15.7592 1.30216 15.7425 1.30216 15.7235C1.29973 15.545 1.29486 15.3785 1.3046 15.2143C1.5433 11.1264 2.13275 7.55003 3.10217 4.27827C3.22395 3.86425 3.36522 3.43832 3.51624 3.02192C3.51867 3.01716 3.52598 3.01002 3.53329 3.00526C6.2954 3.00288 9.05752 3.0005 11.8196 3.0005C11.766 3.16944 11.7149 3.32887 11.654 3.48591C11.6491 3.48591 11.6443 3.48829 11.6418 3.49067H11.4348C11.2675 3.49543 11.1352 3.49781 11.0378 3.49781H10.6797C10.4581 3.49781 10.2729 3.56443 10.1439 3.69054C10.0318 3.8 9.97579 3.94753 9.97822 4.11171C9.9831 4.46625 10.2608 4.70657 10.67 4.70657H11.2935C10.2145 8.735 9.65914 13.0157 9.59094 17.7746H1.24127V17.0036H1.73572C2.15791 17.0036 2.58011 17.0036 3.0023 17.0036H3.44804L3.4456 17.006Z" fill="#525051"/>
</svg>
