<svg width="195" height="177" viewBox="0 0 195 177" fill="none" xmlns="http://www.w3.org/2000/svg">
<path d="M157.084 115.844C157.233 116.329 157.394 116.809 157.531 117.298C157.98 118.906 158.103 120.554 158.131 122.226C158.154 123.722 158.019 125.197 157.757 126.67C157.361 128.905 156.617 131.038 155.587 133.092C154.206 135.838 152.341 138.246 150.028 140.338C149.263 141.028 148.475 141.697 147.58 142.241C146.78 142.731 146.03 143.296 145.223 143.772C144.598 144.141 143.932 144.463 143.256 144.731C141.253 145.521 139.214 146.221 137.096 146.605C135.901 146.821 134.679 146.919 133.449 146.947C130.682 147.006 127.944 146.74 125.196 146.623C124.749 146.603 124.297 146.66 123.845 146.679C122.708 146.729 121.568 146.78 120.431 146.83C120.382 146.832 120.331 146.838 120.281 146.847C119.391 147.001 118.505 147.157 117.613 147.305C116.87 147.43 116.129 147.56 115.382 147.651C113.511 147.879 111.751 148.541 109.948 149.042C109.216 149.245 108.494 149.483 107.785 149.752C106.489 150.243 105.189 150.731 103.919 151.286C102.795 151.777 101.693 152.319 100.62 152.908C99.7097 153.406 98.8521 153.998 97.973 154.553C97.2961 154.979 96.5974 155.377 95.9546 155.85C94.5541 156.884 93.1925 157.97 91.7928 159.007C91.1398 159.489 90.4049 159.866 89.7614 160.358C88.7802 161.108 87.6816 161.671 86.5641 162.151C85.0809 162.787 83.5675 163.379 81.9677 163.701C80.7826 163.939 79.5998 164.196 78.4056 164.384C77.8211 164.475 77.2169 164.427 76.6214 164.44C76.2004 164.45 75.7838 164.452 75.3646 164.467C73.2539 164.539 71.2157 164.168 69.2003 163.667C66.873 163.089 64.722 162.115 62.7074 160.907C60.8722 159.807 59.2128 158.483 57.7963 156.905C57.1211 156.153 56.4052 155.419 55.823 154.604C55.2247 153.768 54.8043 152.811 54.2387 151.952C53.5325 150.884 53.1904 149.676 52.7944 148.497C52.3682 147.22 51.95 145.915 51.7599 144.587C51.4538 142.452 51.4151 140.282 51.74 138.12C51.9917 136.441 52.4286 134.794 52.9298 133.162C54.0582 129.489 55.1874 125.82 56.2949 122.144C57.1379 119.352 57.9444 116.549 58.7813 113.759C59.7125 110.662 60.6684 107.57 61.5966 104.474C62.3981 101.805 63.5522 99.2712 64.904 96.8088C66.3972 94.0851 68.2683 91.6209 70.3609 89.2842C71.7167 87.7712 73.29 86.4912 74.7942 85.1377C75.502 84.4999 76.3434 83.9947 77.1451 83.4574C77.9744 82.9022 78.8115 82.3509 79.6775 81.8506C80.5039 81.3721 81.368 80.9514 82.2281 80.5288C83.2894 80.0064 84.3507 79.484 85.4388 79.0165C86.1551 78.7076 86.922 78.5094 87.6586 78.2448C89.5461 77.5661 91.5125 77.1977 93.4635 76.7899C94.027 76.6733 94.6097 76.6297 95.1851 76.5947C96.7854 76.5001 98.3725 76.1474 99.9902 76.3032C100.822 76.3818 101.68 76.2314 102.523 76.2564C103.231 76.2783 103.931 76.4007 104.637 76.4868C105.5 76.5906 106.37 76.6513 107.22 76.8192C108.57 77.0856 109.918 77.3876 111.243 77.7439C114.181 78.5293 116.907 79.7586 119.567 81.1598C122.172 82.5309 124.45 84.2959 126.704 86.1095C129.297 88.1976 131.898 90.2772 134.482 92.3777C136.933 94.3705 139.352 96.3986 141.812 98.3857C144.25 100.357 146.743 102.268 149.167 104.26C150.599 105.436 151.947 106.698 153.087 108.163C154.097 109.462 154.975 110.822 155.75 112.273C156.361 113.42 156.653 114.66 157.094 115.854L157.084 115.844Z" fill="white"/>
<path d="M75.6431 78.5832C74.3849 78.8315 72.904 79.142 71.4159 79.4074C70.9543 79.4895 70.4704 79.4773 69.9982 79.4711C69.1894 79.4579 68.3738 79.4658 67.5761 79.3703C66.3478 79.2209 65.1083 79.0782 63.9188 78.7749C62.668 78.4556 61.4419 78.0119 60.2578 77.5111C58.1495 76.6221 56.211 75.4567 54.4552 74.0234C52.9769 72.8142 51.6289 71.4796 50.4479 69.9989C49.5944 68.9259 48.8564 67.7762 48.1287 66.617C47.0249 64.8599 46.436 62.9033 45.6155 61.0338C45.5119 60.7941 45.4753 60.5243 45.4162 60.2678C45.2788 59.6816 45.1285 59.0963 45.0123 58.5037C44.8052 57.4433 44.5132 56.3868 44.4471 55.3114C44.314 53.1356 44.3134 50.96 44.6354 48.7673C45.031 46.1035 45.777 43.556 46.9626 41.1133C48.132 38.704 49.6442 36.5049 51.6049 34.6004C52.7647 33.4729 53.9919 32.4353 55.3925 31.5842C56.2291 31.0741 57.1026 30.6411 57.9546 30.1704C59.3756 29.3857 60.9136 29.0134 62.443 28.6027C63.2808 28.3764 64.1733 28.3386 65.0421 28.267C65.914 28.1944 66.7929 28.145 67.6646 28.1578C70.3981 28.1943 73.0201 28.7294 75.5204 29.7188C77.6218 30.5531 79.5825 31.6296 81.3818 32.9674C83.1977 34.3158 84.8103 35.8753 86.1986 37.6206C86.9703 38.5894 87.6525 39.6331 88.2977 40.7071C89.3245 42.4184 90.1431 44.2065 90.8054 46.0678C91.4703 47.9379 91.8836 49.8727 92.066 51.8534C92.165 52.9282 92.2908 54.0042 92.282 55.0837C92.2739 56.2735 92.1958 57.4723 92.0335 58.6559C91.7663 60.5855 91.2783 62.4756 90.5877 64.3208C89.5777 67.0221 88.1242 69.4873 86.2192 71.7125C85.1276 72.9863 83.9208 74.1441 82.5333 75.1237C81.5215 75.8393 80.4728 76.4779 79.3788 77.0767C78.2511 77.6953 77.0076 77.9485 75.647 78.5852L75.6431 78.5832Z" fill="white"/>
<path d="M138.557 40.5791C138.72 41.1098 138.89 41.6387 139.047 42.1714C139.398 43.377 139.554 44.6143 139.583 45.8716C139.606 46.8057 139.714 47.7386 139.69 48.6713C139.668 49.559 139.51 50.4445 139.439 51.3317C139.307 53.0333 138.85 54.6898 138.304 56.2975C137.69 58.1223 136.859 59.8875 135.816 61.5568C134.839 63.1271 133.65 64.5352 132.409 65.9055C131.867 66.5017 131.205 66.9961 130.595 67.5342C129.327 68.6539 127.865 69.5303 126.376 70.2885C125.116 70.9289 123.791 71.564 122.329 71.7424C121.908 71.7931 121.487 71.9226 121.079 72.0483C120.174 72.3266 119.251 72.3489 118.325 72.3653C117.857 72.3735 117.387 72.4171 116.919 72.4224C114.372 72.4451 111.99 71.8805 109.666 70.9378C107.263 69.9627 105.2 68.542 103.342 66.8432C102.513 66.0848 101.877 65.1374 101.128 64.2973C100.136 63.1846 99.4966 61.8594 98.7396 60.6051C98.7011 60.5443 98.6616 60.4807 98.6373 60.4124C98.0755 58.899 97.2337 57.4876 96.9264 55.8864C96.7029 54.7299 96.5227 53.5633 96.3944 52.3934C96.2704 51.2694 96.1598 50.1351 96.1895 49.0049C96.2288 47.6476 96.3511 46.2805 96.5694 44.9344C96.8596 43.1335 97.3806 41.3722 98.087 39.6643C98.8277 37.8637 99.7268 36.147 100.89 34.545C102.002 33.0153 103.248 31.6182 104.667 30.3445C105.724 29.3973 106.901 28.618 108.067 27.8233C108.44 27.5698 108.856 27.3722 109.269 27.1852C111.041 26.3807 112.816 25.6165 114.773 25.3018C116.048 25.0987 117.322 24.9339 118.599 24.9198C119.659 24.9094 120.727 25.0102 121.772 25.1656C124.621 25.5896 127.206 26.6603 129.58 28.175C131.327 29.2917 132.83 30.6766 134.146 32.2391C134.965 33.2121 135.762 34.2109 136.327 35.3666C136.703 36.1381 137.249 36.8354 137.575 37.6255C137.969 38.5813 138.206 39.6007 138.511 40.5902L138.562 40.5743L138.557 40.5791Z" fill="white"/>
<path d="M55.7247 86.5474C56.175 87.9783 56.5488 89.4295 56.6466 90.931C56.7453 92.4353 56.7543 93.9388 56.5468 95.449C56.3697 96.735 56.0853 97.9846 55.6874 99.2313C54.8675 101.808 53.4778 104.061 51.6054 106.058C50.6831 107.043 49.6443 107.896 48.4999 108.665C46.7052 109.871 44.7758 110.737 42.6986 111.294C41.4843 111.62 40.2405 111.776 38.9831 111.897C37.1573 112.077 35.3697 111.961 33.6022 111.653C31.3586 111.26 29.2165 110.552 27.2025 109.539C25.2073 108.533 23.3813 107.292 21.7705 105.792C20.4859 104.599 19.2771 103.329 18.2886 101.871C17.4928 100.695 16.8123 99.474 16.1601 98.2158C15.4068 96.7582 14.9526 95.218 14.5551 93.6573C14.3025 92.6645 14.2333 91.6216 14.1416 90.592C14.061 89.6631 13.9986 88.7286 14.0437 87.799C14.0934 86.7984 14.2141 85.7918 14.4147 84.808C14.8912 82.4825 15.7637 80.2813 17.091 78.256C18.0821 76.7416 19.2955 75.4113 20.6952 74.2131C22.0825 73.0283 23.6249 72.0894 25.267 71.3345C26.7063 70.6737 28.2337 70.2131 29.8353 70.0043C30.9881 69.8548 32.1349 69.7071 33.2889 69.7119C35.6566 69.7221 37.9649 70.0664 40.1895 70.806C42.6552 71.6292 44.9249 72.7843 46.986 74.3162C48.5275 75.4617 49.9132 76.7468 51.14 78.2039C52.01 79.234 52.7559 80.3339 53.4756 81.4671C54.4811 83.0555 55.167 84.7675 55.7199 86.5426L55.7247 86.5474Z" fill="white"/>
<path d="M159.774 96.757C158.999 96.9953 158.237 97.2712 157.45 97.4596C156.898 97.5916 156.317 97.6313 155.75 97.6702C155.104 97.7142 154.456 97.7274 153.812 97.733C152.003 97.7433 150.248 97.4405 148.537 96.9406C146.005 96.2011 143.804 94.9144 141.868 93.2081C140.681 92.1617 139.687 90.955 138.791 89.6773C138.379 89.0935 138.144 88.3923 137.764 87.7829C136.83 86.2766 136.488 84.563 135.988 82.9073C135.677 81.8728 135.605 80.7896 135.573 79.7068C135.55 78.8676 135.498 78.0311 135.512 77.1932C135.549 75.1196 135.947 73.0896 136.554 71.0903C137.334 68.5326 138.53 66.1561 140.091 63.945C141.221 62.3436 142.537 60.8935 144.046 59.5889C145.451 58.3765 146.957 57.3193 148.592 56.4435C150.264 55.5499 152.016 54.7836 153.893 54.4268C156.874 53.8568 159.86 53.7586 162.79 54.5084C165.53 55.2095 167.963 56.4563 170.085 58.2601C171.454 59.427 172.568 60.7959 173.571 62.2491C174.031 62.9158 174.28 63.7139 174.704 64.4111C175.545 65.8004 175.921 67.3552 176.276 68.8974C176.498 69.865 176.725 70.8594 176.677 71.8878C176.643 72.6497 176.71 73.4155 176.726 74.1779C176.769 75.8888 176.46 77.5658 176.074 79.2383C175.635 81.1481 174.932 82.9845 174.018 84.7279C173.067 86.5428 171.948 88.2766 170.548 89.8315C169.423 91.081 168.216 92.2608 166.852 93.2522C165.71 94.0836 164.49 94.8097 163.22 95.4817C162.106 96.0707 160.914 96.3398 159.764 96.7569L159.774 96.757Z" fill="white"/>
</svg>
