<svg width="38" height="20" viewBox="0 0 38 20" fill="none" xmlns="http://www.w3.org/2000/svg">
<path d="M1 9C0.447715 9 0 9.44771 0 10C0 10.5523 0.447715 11 1 11V9ZM37 11C37.5523 11 38 10.5523 38 10C38 9.44771 37.5523 9 37 9V11ZM1 0C0.447715 0 0 0.447715 0 1C0 1.55228 0.447715 2 1 2V0ZM37 2C37.5523 2 38 1.55228 38 1C38 0.447715 37.5523 0 37 0V2ZM1 18C0.447715 18 0 18.4477 0 19C0 19.5523 0.447715 20 1 20V18ZM37 20C37.5523 20 38 19.5523 38 19C38 18.4477 37.5523 18 37 18V20ZM1 11H37V9H1V11ZM1 2H37V0H1V2ZM1 20H37V18H1V20Z" fill="#F6B626"/>
</svg>
