<svg width="15" height="14" viewBox="0 0 15 14" fill="none" xmlns="http://www.w3.org/2000/svg">
<path fill-rule="evenodd" clip-rule="evenodd" d="M3.31013 12.5093L3.9375 8.86565L1.28062 6.28588L0.375 5.40654L1.62427 5.22572L5.29825 4.69392L6.942 1.37625L7.5 0.25L8.058 1.37625L9.70175 4.69392L13.3757 5.22572L14.625 5.40654L13.7194 6.28588L11.0625 8.86565L11.6899 12.5093L11.9035 13.75L10.7882 13.1659L7.5 11.4439L4.21179 13.1659L3.09651 13.75L3.31013 12.5093ZM4.63412 8.14821L2.52989 6.10505L5.44151 5.68361C5.7669 5.63651 6.04834 5.43248 6.19431 5.13787L7.5 2.50251L8.80569 5.13787C8.95166 5.43248 9.2331 5.63651 9.55849 5.68361L12.4701 6.10505L10.3659 8.14821C10.1291 8.37813 10.021 8.71008 10.077 9.03534L10.5746 11.9252L7.96393 10.5581C7.67336 10.4059 7.32664 10.4059 7.03607 10.5581L4.42541 11.9252L4.923 9.03534C4.979 8.71008 4.87091 8.37813 4.63412 8.14821Z" fill="#F6B626"/>
</svg>
