<svg width="12" height="7" viewBox="0 0 12 7" fill="none" xmlns="http://www.w3.org/2000/svg">
<path d="M10.4724 6.53302C10.7667 6.82442 11.2416 6.82201 11.533 6.52763C11.8244 6.23325 11.822 5.75839 11.5276 5.46698L10.4724 6.53302ZM0.466473 5.47289C0.175356 5.76755 0.178228 6.24241 0.472887 6.53353C0.767547 6.82464 1.24241 6.82177 1.53353 6.52711L0.466473 5.47289ZM6.65491 1.70311L6.12745 2.2363L6.65491 1.70311ZM5.241 1.71026L5.774 2.23791L5.241 1.71026ZM11.5276 5.46698C10.0794 4.03338 8.62988 2.60187 7.18236 1.16992L6.12745 2.2363C7.57666 3.66992 9.02387 5.09916 10.4724 6.53302L11.5276 5.46698ZM4.708 1.18261C3.29403 2.61092 1.88009 4.04206 0.466473 5.47289L1.53353 6.52711C2.94724 5.0962 4.36064 3.6656 5.774 2.23791L4.708 1.18261ZM7.18236 1.16992C6.49568 0.490619 5.38801 0.495707 4.708 1.18261L5.774 2.23791C5.87087 2.14005 6.0291 2.139 6.12745 2.2363L7.18236 1.16992Z" fill="#F6B626"/>
</svg>
