<svg width="9" height="15" viewBox="0 0 9 15" fill="none" xmlns="http://www.w3.org/2000/svg">
<path d="M8.68415 1.72934C9.08696 1.35149 9.10719 0.718648 8.72934 0.315846C8.35149 -0.0869561 7.71865 -0.107185 7.31585 0.270663L8.68415 1.72934ZM7.32398 14.7369C7.73095 15.1102 8.36353 15.083 8.73688 14.676C9.11024 14.2691 9.08299 13.6365 8.67602 13.2631L7.32398 14.7369ZM1.78503 6.83571L1.10068 6.10656L1.78503 6.83571ZM7.31585 0.270663C5.24259 2.21548 3.17177 4.16272 1.10068 6.10656L2.46938 7.56486C4.54345 5.61823 6.61 3.67499 8.68415 1.72934L7.31585 0.270663ZM1.11556 9.03716C3.18227 10.9373 5.25335 12.8373 7.32398 14.7369L8.67602 13.2631C6.60527 11.3634 4.53497 9.46409 2.46917 7.56484L1.11556 9.03716ZM1.10068 6.10656C0.253275 6.90189 0.259464 8.25009 1.11556 9.03716L2.46917 7.56484L2.46938 7.56486L1.10068 6.10656Z" fill="#F6B626"/>
</svg>
