<svg width="41" height="27" viewBox="0 0 41 27" fill="none" xmlns="http://www.w3.org/2000/svg">
<path d="M31.8889 14.9309C32.1386 14.3388 32.9878 12.1184 32.9878 12.1184C32.9878 12.1677 33.2376 11.5263 33.3375 11.1809L33.5373 12.069C33.5373 12.069 34.0867 14.4868 34.1866 14.9802H31.8889V14.9309Z" fill="white"/>
<path fill-rule="evenodd" clip-rule="evenodd" d="M3.41667 0C1.52969 0 0 1.51104 0 3.375V23.625C0 25.489 1.52969 27 3.41667 27H37.5833C39.4703 27 41 25.489 41 23.625V3.375C41 1.51104 39.4703 0 37.5833 0H3.41667ZM27.7929 15.2269C27.7929 17.2993 25.8947 18.6809 22.9476 18.6809C21.6988 18.6809 20.5 18.4342 19.8506 18.1381L20.2502 15.8684L20.5999 16.0164C21.499 16.4112 22.0984 16.5592 23.1974 16.5592C23.9966 16.5592 24.8458 16.2631 24.8458 15.5723C24.8458 15.1283 24.4961 14.8322 23.3972 14.3388C22.3482 13.8454 20.9496 13.0559 20.9496 11.625C20.9496 9.65129 22.8977 8.31905 25.645 8.31905C26.694 8.31905 27.5931 8.51642 28.1425 8.76313L27.7429 10.9342L27.5431 10.7368C27.0436 10.5394 26.3943 10.3421 25.4452 10.3421C24.3962 10.3914 23.8967 10.8355 23.8967 11.2302C23.8967 11.6743 24.4961 12.0197 25.4452 12.4638C27.0436 13.2039 27.7929 14.0427 27.7929 15.2269ZM35.2856 8.46705H33.1377C32.4883 8.46705 31.9888 8.66442 31.6891 9.30586L27.5931 18.5328H30.4903C30.4903 18.5328 30.9898 17.2993 31.0897 17.0032H34.6362C34.7361 17.3486 34.9859 18.4835 34.9859 18.4835H37.5833L35.2856 8.46705ZM3.46662 8.36843L3.41667 8.5658C6.7634 9.35527 8.96126 11.2796 9.91033 13.648L8.96126 9.20724C8.8114 8.5658 8.36184 8.36843 7.76243 8.36843H3.46662ZM15.9544 8.46708L11.6087 18.4835H8.66155L6.16398 10.0954C7.96223 11.2302 9.46077 13.0066 10.0102 14.2401L10.3099 15.2763L13.0073 8.41774H15.9544V8.46708ZM19.8506 8.41774H17.1033L15.355 18.4835H18.1023L19.8506 8.41774Z" fill="white"/>
</svg>
