<svg aria-hidden="true" style="position: absolute; width: 0; height: 0; overflow: hidden;" version="1.1" xmlns="http://www.w3.org/2000/svg" xmlns:xlink="http://www.w3.org/1999/xlink">
<defs>
<symbol id="icon-TikTok" viewBox="0 0 30 32">
<path fill="#f4f4ed" style="fill: var(--color1, #f4f4ed)" d="M20.133 1.217l-0.763-1.217h-4.615v10.964l-0.016 10.709c0.008 0.080 0.016 0.167 0.016 0.247 0 2.681-2.154 4.869-4.811 4.869s-4.811-2.18-4.811-4.869c0-2.681 2.154-4.869 4.811-4.869 0.55 0 1.085 0.103 1.58 0.278v-5.347c-0.511-0.088-1.038-0.135-1.58-0.135-5.479 0.008-9.945 4.527-9.945 10.081s4.465 10.073 9.953 10.073c5.487 0 9.952-4.519 9.952-10.073v-12.738c1.989 2.013 4.56 3.978 7.405 4.607v-5.466c-3.089-1.384-6.163-5.474-7.177-7.113z"></path>
</symbol>
<symbol id="icon-LinkedIn" viewBox="0 0 32 32">
<path fill="#f4f4ed" style="fill: var(--color1, #f4f4ed)" d="M7.138 10.523h-6.604v21.323h6.604v-21.323z"></path>
<path fill="#f4f4ed" style="fill: var(--color1, #f4f4ed)" d="M25.003 10.061c-0.243-0.031-0.502-0.046-0.761-0.062-3.698-0.154-5.783 2.065-6.513 3.020-0.198 0.262-0.289 0.416-0.289 0.416v-2.85h-6.315v21.323h6.604c0-2.173 0-4.329 0-6.502 0-1.171 0-2.342 0-3.513 0-1.448-0.107-2.989 0.609-4.314 0.609-1.109 1.704-1.664 2.937-1.664 3.652 0 3.728 3.343 3.728 3.651 0 0.015 0 0.031 0 0.031v12.402h6.604v-13.912c0-4.761-2.389-7.565-6.604-8.027z"></path>
<path fill="#f4f4ed" style="fill: var(--color1, #f4f4ed)" d="M3.835 7.765c2.118 0 3.835-1.738 3.835-3.883s-1.717-3.883-3.835-3.883c-2.118 0-3.835 1.738-3.835 3.883s1.717 3.883 3.835 3.883z"></path>
</symbol>
<symbol id="icon-Instagram" viewBox="0 0 32 32">
<path fill="#f4f4ed" style="fill: var(--color1, #f4f4ed)" d="M32 15.889c-0.045 2.297-0.067 4.56-0.14 6.821-0.059 1.858-0.446 3.641-1.472 5.229-1.39 2.153-3.406 3.371-5.901 3.75-1.261 0.192-2.549 0.25-3.826 0.27-2.75 0.044-5.502 0.052-8.252 0.023-1.507-0.016-3.026-0.045-4.519-0.228-4.17-0.51-6.966-3.262-7.584-7.297-0.196-1.282-0.243-2.594-0.264-3.894-0.043-2.659-0.059-5.32-0.019-7.979 0.025-1.665 0.074-3.34 0.284-4.989 0.497-3.884 3.311-6.715 7.196-7.291 1.251-0.185 2.528-0.245 3.795-0.265 2.75-0.044 5.501-0.052 8.251-0.023 1.497 0.016 3.004 0.052 4.488 0.228 2.959 0.351 5.29 1.749 6.725 4.44 0.728 1.365 1.046 2.855 1.096 4.39 0.074 2.282 0.097 4.565 0.141 6.815zM2.868 16.003l0.061 0.001c0 1.408-0.031 2.817 0.009 4.224 0.036 1.258 0.093 2.522 0.245 3.77 0.176 1.44 0.803 2.686 1.947 3.628 1.047 0.862 2.289 1.237 3.606 1.319 1.619 0.102 3.244 0.143 4.868 0.16 2.062 0.022 4.125 0.008 6.187-0.019 1.165-0.015 2.332-0.055 3.494-0.14 1.1-0.080 2.154-0.364 3.093-0.977 1.676-1.094 2.39-2.737 2.538-4.649 0.113-1.453 0.148-2.914 0.16-4.371 0.020-2.398 0.022-4.797-0.024-7.195-0.024-1.299-0.077-2.609-0.267-3.893-0.366-2.478-2.053-4.215-4.522-4.611-1.401-0.225-2.836-0.285-4.258-0.309-2.666-0.046-5.334-0.039-8-0.002-1.319 0.018-2.647 0.072-3.953 0.247-1.952 0.26-3.473 1.236-4.346 3.066-0.423 0.886-0.625 1.837-0.657 2.812-0.077 2.313-0.123 4.626-0.181 6.939v-0.001z"></path>
<path fill="#f4f4ed" style="fill: var(--color1, #f4f4ed)" d="M24.211 15.996c0 4.553-3.683 8.242-8.223 8.236-4.564-0.007-8.196-3.682-8.202-8.282-0.005-4.552 3.822-8.247 8.373-8.174 4.392 0.071 8.051 3.745 8.051 8.22h0.001zM21.303 16.026c0-2.957-2.367-5.343-5.302-5.346-2.929-0.002-5.328 2.399-5.327 5.332 0 2.904 2.393 5.308 5.283 5.309 2.966 0.001 5.346-2.357 5.346-5.295z"></path>
<path fill="#f4f4ed" style="fill: var(--color1, #f4f4ed)" d="M24.499 9.376c-1.077-0.007-1.91-0.857-1.896-1.937 0.014-1.076 0.87-1.915 1.942-1.901 1.077 0.014 1.898 0.859 1.892 1.947-0.006 1.082-0.843 1.898-1.938 1.891z"></path>
</symbol>
<symbol id="icon-Facebook" viewBox="0 0 18 32">
<path fill="#f4f4ed" style="fill: var(--color1, #f4f4ed)" d="M11.128 18.604v13.396h-6.078v-13.396h-5.050v-5.432h5.050v-1.976c0-7.337 3.027-11.195 9.433-11.195 1.964 0 2.455 0.32 3.53 0.58v5.373c-1.204-0.213-1.543-0.331-2.794-0.331-1.484 0-2.279 0.426-3.004 1.266s-1.087 2.296-1.087 4.379v1.917h6.885l-1.847 5.432h-5.038v-0.012z"></path>
</symbol>
</defs>
</svg>
