<svg aria-hidden="true" style="position: absolute; width: 0; height: 0; overflow: hidden;" version="1.1" xmlns="http://www.w3.org/2000/svg" xmlns:xlink="http://www.w3.org/1999/xlink">
<defs>
<symbol id="icon-no_gluet" viewBox="0 0 32 32">
<path fill="#f4f4ed" style="fill: var(--color1, #f4f4ed)" d="M16 32c-4.243 0-8.313-1.686-11.314-4.686s-4.686-7.070-4.686-11.314 1.686-8.313 4.686-11.314c3.001-3.001 7.070-4.686 11.314-4.686s8.313 1.686 11.314 4.686c3.001 3.001 4.686 7.070 4.686 11.314s-1.686 8.313-4.686 11.314c-3.001 3.001-7.070 4.686-11.314 4.686zM16 28.354c3.277 0 6.419-1.302 8.736-3.619s3.619-5.459 3.619-8.736-1.302-6.419-3.619-8.736c-2.317-2.317-5.459-3.619-8.736-3.619s-6.419 1.302-8.736 3.619c-2.317 2.317-3.619 5.459-3.619 8.736s1.302 6.419 3.619 8.736c2.317 2.317 5.459 3.619 8.736 3.619z"></path>
<path fill="#f4f4ed" style="fill: var(--color1, #f4f4ed)" d="M15.766 23.576c-0.128-0.482-0.284-0.957-0.468-1.42l-1.639-2.367c-0.587-0.668-1.212-1.3-1.873-1.894-0.702-0.71-1.639-1.42-2.576-1.657-0.892-0.437-1.837-0.755-2.81-0.947l0.702 0.237 1.873 1.42 0.702 1.184c0.642 1.271 1.428 2.463 2.341 3.551l0.234 0.237c1.083 1.152 2.349 2.112 3.746 2.841l0.234 0.237v-0.237l-0.468-1.184zM16.468 24.522l0.234-0.237c0.565-1.033 0.961-2.153 1.171-3.314l0.234-3.314c0.017-0.559 0.096-1.115 0.234-1.657 0-0.473 0-0.947 0.702-1.657-1.117 0.99-1.977 2.241-2.508 3.643s-0.714 2.915-0.536 4.406l0.468 1.894v0.237zM16.234 8.898l0.468-0.473h-0.234l-0.468 0.473v0.237c0.072-0.084 0.151-0.163 0.234-0.237zM15.298 11.029l-0.234 0.947c0.003 0.158 0.003 0.316 0 0.473l0.234-1.184v-0.237zM16.468 25.233h-0.234l0.468 2.131 0.234 0.237-0.468-2.367zM16.937 12.449l0.468-0.947 0.234-0.71c-0.468 0.237-1.405 0.473-1.873 1.184l-0.702 2.131c0.468 0 1.171-0.473 1.873-1.657zM12.956 12.686c0.468 0.947 0.937 1.42 1.405 1.42l0.234-0.947-0.234-1.42-1.171-1.894c0 0.71-0.468 2.131-0.234 2.841zM17.873 9.371c0.366-0.419 0.757-0.814 1.171-1.184l-1.405 0.237-1.171 0.71-0.468 0.71c-0.159 0.29-0.239 0.616-0.234 0.947 0.702 0 1.639-0.71 2.107-1.42zM14.361 9.608c0 0.473 0.468 0.947 0.702 1.184l0.234-0.237 0.468-0.947v-0.473c-0.039-1.029-0.117-2.055-0.234-3.078v0.237l-1.171 2.367v0.947zM16.702 7.951c0.234 0 0.702 0.237 2.107-1.42l0.937-1.42 0.702-0.71c-0.702 0.237-2.341 0.947-3.044 1.894-0.468 0.473-0.937 0.947-0.702 1.657zM12.020 21.918l-0.234-0.237c-1.3-1.42-2.403-3.013-3.278-4.735l-1.405-0.947c0.234 4.261 3.512 7.576 7.727 8.286-0.937-0.473-1.873-1.42-2.81-2.367zM16.234 8.424l0.234-0.237c-0.234-0.71 0-1.184 0.468-1.657h-0.937l0.234 1.894zM18.81 6.767v0.237l-1.873 1.42h0.234l2.107-0.473 0.468 0.237h-0.234l-0.702 0.71 1.405 0.71-3.512 3.788-2.107 2.131v0.237h-0.234v0.237h-0.234v0.237l-1.639-2.367v0.71l0.234 2.367 0.234 0.473-0.702 0.71 1.405 1.42 0.702-0.473v-0.237l0.702 2.841c0.261 0.378 0.496 0.773 0.702 1.184v-0.237l-0.468-0.947-0.702-3.078h0.234l6.79-7.576c1.171 1.184 1.873 2.841 1.873 4.498 0 3.314-2.341 6.155-5.62 6.865l-0.937 2.367c4.917-0.473 8.663-4.261 8.663-9.233 0-4.024-2.81-7.575-6.79-8.759zM9.21 15.29c0-3.078 2.107-5.682 4.917-6.392 0-0.947 0.468-1.894 0.937-2.367-4.449 0.473-7.727 4.261-7.961 8.522l2.107 0.71v-0.473z"></path>
</symbol>
<symbol id="icon-bag" viewBox="0 0 27 32">
<path fill="none"  stroke-linejoin="round" stroke-linecap="round" stroke-miterlimit="4" stroke-width="2.4" d="M3.314 8.377h20.571l1.714 22.024h-24l1.714-22.024z"></path>
<path fill="none"  stroke-linejoin="round" stroke-linecap="round" stroke-miterlimit="4" stroke-width="2.4" d="M8.458 11.765v-5.082c0-2.807 2.303-5.082 5.143-5.082s5.143 2.275 5.143 5.082v5.082"></path>
</symbol>
<symbol id="icon-cat" viewBox="0 0 38 32">
<path d="M18.735 32c-2.517 0.014-4.587-0.927-6.198-2.234-1.62-1.306-2.871-2.941-4.104-4.522-0.805-1.046-1.909-2.124-2.885-3.43-0.966-1.297-1.817-2.932-1.813-4.951 0-1.613 0.253-3.17 0.718-4.632l-4.33-10.104c-0.244-0.571-0.12-1.229 0.317-1.667 0.437-0.443 1.095-0.58 1.675-0.352l9.152 3.631c2.199-1.274 4.753-2.014 7.468-2.014 2.802 0 5.6 0.626 8.011 2.046l9.234-3.663c0.58-0.228 1.238-0.091 1.675 0.352s0.561 1.101 0.317 1.667l-4.684 10.93c0.29 1.229 0.446 2.503 0.446 3.805 0 2.115-0.902 3.855-1.946 5.257-1.054 1.416-2.273 2.594-3.189 3.695-1.229 1.462-2.411 2.955-3.957 4.157-1.523 1.192-3.469 2.028-5.848 2.028h-0.060zM7.517 11.564c0.152 0.356 0.166 0.758 0.032 1.119-0.474 1.302-0.732 2.704-0.732 4.179 0.005 1.151 0.442 2.083 1.215 3.138 0.768 1.046 1.854 2.106 2.844 3.376 1.229 1.585 2.374 3.033 3.603 4.015 1.242 0.982 2.48 1.539 4.256 1.553 1.721-0.014 2.857-0.507 4.012-1.384 1.146-0.877 2.236-2.202 3.474-3.695 1.063-1.265 2.231-2.407 3.074-3.554 0.851-1.156 1.348-2.22 1.348-3.449 0-1.206-0.166-2.398-0.474-3.535-0.087-0.329-0.064-0.685 0.069-0.996l3.437-8.016-6.524 2.59c-0.478 0.192-1.017 0.132-1.44-0.155-1.946-1.325-4.399-1.96-6.98-1.96-2.388 0-4.601 0.713-6.469 1.937-0.423 0.279-0.952 0.329-1.422 0.146l-6.437-2.553 3.11 7.253 0.005-0.009z"></path>
</symbol>
<symbol id="icon-dog" viewBox="0 0 38 32">
<path d="M36.557 17.993c-0.89-2.825-1.005-4.632-1.009-6.125 0-0.668 0.026-1.281 0.026-1.913 0.018-1.3-0.172-2.788-1.097-4.296-0.63-1.042-1.397-1.917-2.283-2.553-0.882-0.636-1.895-1.042-2.975-1.046-0.798 0-1.617 0.244-2.327 0.724-0.912-0.82-1.842-1.461-2.882-1.917-1.432-0.627-2.997-0.866-4.843-0.866-0.040 0-0.079 0.009-0.119 0.014-0.040 0-0.075-0.014-0.115-0.014-1.847 0-3.411 0.235-4.843 0.866-1.040 0.452-1.97 1.097-2.882 1.917-0.714-0.484-1.529-0.728-2.327-0.728-1.080 0-2.093 0.41-2.975 1.046-0.886 0.641-1.657 1.512-2.283 2.553-0.93 1.503-1.115 2.996-1.097 4.291 0 0.636 0.031 1.249 0.026 1.913 0 1.493-0.123 3.295-1.009 6.121-1.067 3.378-1.538 5.955-1.542 7.997 0 1.756 0.357 3.18 1.19 4.231 0.82 1.037 2.041 1.479 3.156 1.479 0.022 0 0.044 0 0.062 0 2.186-0.032 4.328-1.226 6.104-2.655 0.674-0.553 1.282-1.152 1.803-1.774 0.507 0.954 1.106 1.839 1.838 2.599 1.199 1.254 2.838 2.143 4.751 2.143 0.009 0 0.022 0 0.031 0 0.040 0 0.075-0.009 0.11-0.014 0.040 0 0.079 0.014 0.119 0.014 1.926 0.009 3.579-0.88 4.782-2.143 0.727-0.761 1.331-1.65 1.838-2.604 0.855 1.032 1.97 2 3.195 2.793 1.463 0.926 3.059 1.622 4.707 1.641 0.022 0 0.040 0 0.062 0 1.115 0 2.34-0.438 3.16-1.479 0.833-1.051 1.19-2.475 1.19-4.226 0-2.042-0.476-4.618-1.538-7.997v0.009zM34.742 28.317c-0.238 0.281-0.485 0.405-1.053 0.419-1.075 0.037-2.944-0.834-4.363-2.023-0.714-0.585-1.331-1.235-1.728-1.797-0.198-0.281-0.344-0.535-0.423-0.728-0.031-0.069-0.048-0.124-0.062-0.171 0.137-0.433 0.264-0.862 0.379-1.295 0.665-2.576 0.926-5.056 0.93-6.674 0-0.816-0.63-1.475-1.41-1.475s-1.415 0.659-1.415 1.475c0.009 1.553-0.344 4.563-1.225 7.245 0 0.005 0 0.009-0.004 0.014-0.097 0.3-0.203 0.595-0.313 0.885-0.551 1.447-1.269 2.724-2.093 3.567-0.837 0.848-1.683 1.281-2.794 1.291-0.040 0-0.075 0.009-0.115 0.014-0.040 0-0.075-0.014-0.115-0.014-1.115-0.009-1.961-0.442-2.794-1.291-1.238-1.263-2.217-3.521-2.803-5.812-0.595-2.281-0.833-4.609-0.829-5.9 0-0.816-0.635-1.475-1.415-1.475s-1.41 0.659-1.41 1.475c0.004 1.885 0.353 4.959 1.304 7.974-0.013 0.046-0.031 0.102-0.057 0.166-0.273 0.705-1.379 2.010-2.706 2.95-1.313 0.973-2.873 1.622-3.808 1.599-0.569-0.014-0.815-0.143-1.053-0.424-0.242-0.29-0.533-0.977-0.529-2.328 0-1.549 0.388-3.881 1.397-7.070 0.987-3.106 1.155-5.356 1.15-7.047 0-0.751-0.031-1.383-0.031-1.913 0.018-1.125 0.075-1.701 0.665-2.719 0.45-0.747 0.978-1.327 1.494-1.696 0.516-0.373 0.996-0.525 1.375-0.525 0.304 0.005 0.555 0.078 0.851 0.29 0.035 0.028 0.079 0.046 0.115 0.069 0.071 0.189 0.172 0.364 0.317 0.516 0.278 0.29 0.639 0.433 1 0.433s0.723-0.143 1-0.433c1.115-1.166 2.027-1.857 3.014-2.291 0.992-0.433 2.124-0.636 3.755-0.636 0.040 0 0.075-0.009 0.115-0.014 0.040 0 0.079 0.014 0.119 0.014 1.631 0 2.763 0.203 3.75 0.636s1.904 1.129 3.019 2.291c0.278 0.29 0.639 0.433 1 0.433s0.723-0.143 1-0.433c0.146-0.152 0.251-0.327 0.317-0.516 0.040-0.023 0.079-0.041 0.119-0.069 0.295-0.212 0.547-0.286 0.851-0.29 0.375 0 0.855 0.152 1.375 0.525 0.516 0.369 1.049 0.949 1.494 1.696 0.591 1.014 0.648 1.595 0.666 2.719 0 0.53-0.026 1.161-0.026 1.913 0 1.696 0.167 3.945 1.15 7.052 1.009 3.189 1.401 5.526 1.397 7.070 0 1.351-0.291 2.042-0.529 2.328h-0.018z"></path>
</symbol>
<symbol id="icon-gluet_free" viewBox="0 0 26 32">
<path fill="#525051" style="fill: var(--color5, #525051)" d="M12.943 26.181c-0.165-0.504-0.343-0.982-0.539-1.438-0.052-0.123-0.108-0.244-0.165-0.363-0.544-1.173-1.236-2.235-2.237-3.394-0.555-0.645-1.207-1.322-1.976-2.065-0.173-0.167-0.346-0.334-0.531-0.509-1.114-1.044-2.345-1.779-3.545-2.314-1.029-0.46-2.025-0.766-2.905-0.967-0.369-0.085-0.725-0.157-1.045-0.208 0.335 0.134 0.694 0.301 1.058 0.483 0.836 0.422 1.7 0.969 2.381 1.684 0.436 0.458 0.73 1.003 1.104 1.692 0.346 0.64 0.774 1.422 1.445 2.402 0.454 0.663 1.027 1.422 1.765 2.299 0.134 0.159 0.258 0.311 0.402 0.476 1.478 1.695 3.266 2.942 4.46 3.667 0.224 0.136 0.421 0.252 0.599 0.35 0.054 0.031 0.103 0.057 0.152 0.085 0.046 0.026 0.103 0.059 0.144 0.080-0.041-0.165-0.085-0.319-0.126-0.476-0.142-0.527-0.286-1.021-0.441-1.486v0.003z"></path>
<path fill="#525051" style="fill: var(--color5, #525051)" d="M7.822 24.252c-0.132-0.152-0.245-0.291-0.369-0.435-0.738-0.872-1.313-1.63-1.77-2.294-0.717-1.039-1.166-1.859-1.53-2.53-0.372-0.687-0.64-1.183-1.034-1.599-0.575-0.607-1.305-1.096-2.035-1.481 0.387 5.86 4.798 10.628 10.505 11.582-1.145-0.764-2.557-1.857-3.769-3.245l0.003 0.003z"></path>
<path fill="#525051" style="fill: var(--color5, #525051)" d="M13.747 28.762c0 0-0.054-0.026-0.132-0.067 0.276 1.55 0.441 2.921 0.464 3.109 0.088 0.177 0.142 0.195 0.142 0.195 0.023-0.008 0.072-0.080 0.098-0.149-0.010-0.476-0.188-1.659-0.454-3.032l-0.116-0.057h-0.003z"></path>
<path fill="#525051" style="fill: var(--color5, #525051)" d="M16.057 17.849c0.093-0.473 0.181-0.928 0.859-1.898-1.053 1.054-2.307 2.574-2.805 4.217-0.591 1.952-0.81 3.564-0.673 5.143 0.070 0.795 0.232 1.581 0.485 2.397 0.021 0.067 0.036 0.131 0.057 0.198 0.039-0.059 0.085-0.134 0.129-0.208 0.333-0.543 0.833-1.45 1.2-2.525 0.147-0.432 0.276-0.89 0.359-1.363 0.253-1.448 0.253-2.929 0.253-4.012 0-0.748 0-1.34 0.077-1.684 0.021-0.093 0.039-0.18 0.054-0.267l0.005 0.003z"></path>
<path fill="#525051" style="fill: var(--color5, #525051)" d="M13.621 6.213l0.010-0.015c0.121-0.203 0.361-0.589 0.511-0.825-0.041-0.008-0.080-0.018-0.121-0.031-0.085-0.023-0.163-0.051-0.222-0.077-0.010 0.018-0.023 0.044-0.036 0.064-0.116 0.203-0.297 0.535-0.392 0.712v0.365c0.075-0.064 0.139-0.113 0.191-0.149 0.021-0.015 0.046-0.036 0.062-0.044h-0.003z"></path>
<path fill="#525051" style="fill: var(--color5, #525051)" d="M11.516 16.833c-0.065 0.010-0.129 0.049-0.194 0.121l-0.142 0.159 0.39 0.352 0.147-0.165c0.059-0.067 0.090-0.136 0.088-0.206 0-0.069-0.034-0.134-0.093-0.19-0.065-0.059-0.129-0.082-0.196-0.075v0.003z"></path>
<path fill="#525051" style="fill: var(--color5, #525051)" d="M13.456 5.338c0.083-0.149 0.155-0.275 0.183-0.316l0.010-0.015c-0.258-0.92 0.080-1.756 0.707-2.489-0.225-0.013-0.444-0.033-0.671-0.033-0.181 0-0.353 0.021-0.531 0.026 0.106 0.867 0.155 2.011 0.178 2.836 0.041 0 0.083-0.005 0.126-0.005l-0.003-0.003z"></path>
<path fill="#525051" style="fill: var(--color5, #525051)" d="M9.357 11.556c0.462 1.206 1.28 1.733 1.922 1.846 0.041-0.237 0.126-0.661 0.271-1.17 0.028-0.453-0.008-1.209-0.379-2.067-0.441-1.021-1.112-2.145-1.465-2.716-0.237 0.928-0.728 3.112-0.348 4.107z"></path>
<path fill="#525051" style="fill: var(--color5, #525051)" d="M15.912 6.761c0.248-0.296 0.552-0.63 0.846-0.936 0.268-0.28 0.524-0.54 0.709-0.723-0.684-0.059-1.367 0.136-1.961 0.399-0.944 0.419-1.646 1.018-1.69 1.057-0.266 0.252-0.467 0.499-0.622 0.73-0.307 0.46-0.418 0.864-0.454 1.16-0.015 0.134-0.018 0.249-0.013 0.332 1.055-0.118 2.206-0.843 3.183-2.018z"></path>
<path fill="#525051" style="fill: var(--color5, #525051)" d="M11.003 7.118c0.119 0.656 0.477 1.185 1.071 1.574 0.072-0.077 0.183-0.213 0.299-0.401 0.052-0.314 0.183-0.705 0.454-1.139 0.057-0.231 0.103-0.483 0.129-0.771 0-0.067-0.003-0.468-0.018-1.016-0.023-0.828-0.072-1.988-0.178-2.836-0.010-0.085-0.021-0.167-0.034-0.244-0.052 0.072-0.114 0.165-0.175 0.255-0.48 0.705-1.21 1.921-1.483 3.153-0.108 0.486-0.147 0.972-0.065 1.425v0.003z"></path>
<path fill="#525051" style="fill: var(--color5, #525051)" d="M3.898 15.082c0-4.318 2.83-7.982 6.733-9.263 0.217-1.216 0.88-2.422 1.393-3.217-6.055 0.797-10.765 5.878-10.959 12.084 0.864 0.193 1.845 0.481 2.861 0.918-0.010-0.172-0.026-0.345-0.026-0.519l-0.003-0.003z"></path>
<path fill="#525051" style="fill: var(--color5, #525051)" d="M14.349 11.137c0.341-0.573 0.508-1.044 0.668-1.502 0.111-0.314 0.224-0.633 0.392-0.977-0.689 0.249-1.969 0.807-2.59 1.677-0.41 0.576-0.694 1.327-0.88 1.972-0.129 0.445-0.214 0.841-0.258 1.085 0.026-0.005 0.059-0.015 0.088-0.023 0.531-0.141 1.618-0.615 2.577-2.232h0.003z"></path>
<path fill="#525051" style="fill: var(--color5, #525051)" d="M12.27 9.031c-0.052 0.033-0.108 0.059-0.173 0.069l-0.021 0.057c-0.095 0.285-0.315 0.936-0.397 1.239v0.010c0.015 0.051 0.052 0.159 0.090 0.285 0.028 0.087 0.057 0.177 0.083 0.28 0.126-0.527 0.317-1.273 0.501-1.733l-0.095 0.010 0.008-0.198v-0.021h0.005z"></path>
<path fill="#525051" style="fill: var(--color5, #525051)" d="M17.315 3.016c-0.059 0.075-0.108 0.139-0.173 0.219-1.236 1.533-2.108 1.98-2.649 2.070l-0.005 0.010c0 0-0.013 0.021-0.031 0.051 0.121 0.010 0.24 0.018 0.359 0.031 0.836-0.46 1.979-0.882 3.114-0.62l0.353 0.082-0.261 0.252c0 0-0.402 0.391-0.859 0.864 0.614 0.234 1.197 0.525 1.744 0.872l-7.683 8.527c0.039-0.594 0.085-1.203 0.103-1.453-0.090-0.023-0.17-0.049-0.235-0.069-0.062 0.512-0.077 1.347-0.080 1.522 0.026 0.051 0.046 0.103 0.070 0.157l-0.059 0.067-0.034 0.036-0.098 0.108-0.015 0.018-0.142 0.157c-0.477-1.108-1.45-2.366-2.010-3.037 0 0.275-0.021 0.576-0.044 0.903-0.070 0.915-0.147 1.952 0.261 3.004 0.108 0.28 0.242 0.504 0.384 0.697l-1.001 1.114c0.629 0.607 1.179 1.17 1.664 1.707l0.872 0.985 0.588-0.666c0.186 0.789 0.439 1.71 0.722 2.644 0.276 0.494 0.521 1 0.74 1.533 0.028 0.067 0.054 0.134 0.080 0.203-0.018-0.069-0.039-0.134-0.057-0.201-0.142-0.501-0.286-0.962-0.426-1.345-0.387-1.052-0.648-2.183-0.82-3.104l9.813-11.117c1.233 1.63 1.974 3.652 1.974 5.848 0 4.585-3.194 8.432-7.479 9.471-0.374 1.27-0.893 2.361-1.287 3.081 6.493-0.522 11.619-5.945 11.619-12.549 0-5.691-3.808-10.507-9.014-12.066v-0.005zM11.666 18.942c-0.054 0.116-0.126 0.224-0.214 0.324-0.126 0.141-0.268 0.242-0.431 0.298-0.163 0.059-0.325 0.072-0.493 0.036-0.165-0.036-0.317-0.116-0.451-0.237-0.137-0.123-0.232-0.27-0.284-0.435-0.054-0.165-0.059-0.334-0.018-0.504 0.041-0.172 0.126-0.327 0.25-0.471 0.147-0.165 0.33-0.293 0.55-0.383l0.248 0.224c-0.23 0.082-0.415 0.203-0.555 0.36-0.088 0.098-0.145 0.203-0.17 0.314-0.026 0.113-0.021 0.224 0.018 0.337 0.039 0.111 0.106 0.208 0.201 0.296 0.142 0.129 0.297 0.188 0.464 0.177 0.168-0.013 0.317-0.090 0.449-0.239 0.036-0.041 0.067-0.082 0.093-0.126s0.052-0.1 0.077-0.172l-0.232-0.211-0.196 0.221-0.212-0.19 0.426-0.478 0.575 0.525c-0.010 0.108-0.044 0.221-0.098 0.339l0.003-0.005zM12.857 17.648c-0.049-0.008-0.121-0.026-0.219-0.054-0.214-0.062-0.364-0.098-0.444-0.111s-0.15-0.013-0.199 0c-0.049 0.013-0.093 0.039-0.132 0.080l-0.083 0.093 0.591 0.537-0.23 0.257-1.398-1.27 0.428-0.481c0.111-0.126 0.24-0.195 0.382-0.208s0.273 0.033 0.39 0.139c0.080 0.072 0.132 0.154 0.155 0.247s0.018 0.193-0.015 0.301c0.062-0.021 0.129-0.028 0.199-0.023s0.178 0.026 0.317 0.067c0.242 0.072 0.413 0.118 0.511 0.136l-0.255 0.288 0.003 0.003zM14.147 16.2l-0.464-0.17-0.526 0.594 0.224 0.437-0.24 0.27-0.908-1.821 0.235-0.262 1.922 0.681-0.242 0.273v-0.003zM14.534 15.766l-1.398-1.27 0.23-0.257 1.398 1.27-0.23 0.257zM15.963 14.159l-1.7-0.105 0.991 0.9-0.224 0.252-1.398-1.27 0.201-0.226 1.679 0.095-0.975-0.887 0.224-0.252 1.398 1.27-0.196 0.221v0.003zM16.010 13.403l-0.235-0.213 0.441-0.494 0.235 0.213-0.441 0.494zM16.993 13.001l-1.398-1.27 0.725-0.813 0.212 0.193-0.495 0.555 0.361 0.329 0.495-0.555 0.214 0.193-0.495 0.555 0.611 0.555-0.23 0.257zM18.639 11.15c-0.049-0.008-0.121-0.026-0.219-0.054-0.214-0.062-0.364-0.098-0.446-0.111s-0.147-0.013-0.199 0c-0.049 0.013-0.093 0.039-0.129 0.080l-0.083 0.093 0.591 0.537-0.23 0.257-1.398-1.27 0.428-0.481c0.111-0.126 0.24-0.195 0.382-0.208s0.273 0.033 0.39 0.139c0.080 0.072 0.132 0.154 0.155 0.247s0.018 0.193-0.015 0.301c0.062-0.021 0.129-0.028 0.199-0.023s0.178 0.026 0.317 0.067c0.242 0.072 0.413 0.118 0.511 0.136l-0.255 0.288 0.003 0.003zM19.044 10.695l-1.398-1.27 0.766-0.861 0.212 0.193-0.537 0.604 0.366 0.334 0.516-0.579 0.212 0.193-0.516 0.579 0.397 0.36 0.549-0.617 0.212 0.193-0.779 0.874v-0.003zM20.037 9.579l-1.398-1.27 0.766-0.861 0.212 0.193-0.537 0.604 0.366 0.334 0.513-0.579 0.212 0.193-0.513 0.579 0.397 0.36 0.549-0.617 0.212 0.193-0.779 0.874v-0.003z"></path>
<path fill="#525051" style="fill: var(--color5, #525051)" d="M17.3 10.335c-0.064 0.010-0.129 0.049-0.194 0.121l-0.142 0.159 0.39 0.355 0.147-0.165c0.059-0.067 0.090-0.136 0.088-0.206 0-0.069-0.034-0.134-0.093-0.19-0.065-0.059-0.129-0.082-0.194-0.075h-0.003z"></path>
<path fill="#525051" style="fill: var(--color5, #525051)" d="M14.021 4.891c0.188 0.082 1.058 0.275 2.815-1.903 0.023-0.028 0.039-0.051 0.062-0.077 0.627-0.779 1.032-1.34 1.357-1.79 0.315-0.435 0.56-0.774 0.869-1.121-1.125 0.447-3.109 1.355-4.264 2.543-0.678 0.697-1.073 1.491-0.838 2.35v-0.003z"></path>
<path fill="#525051" style="fill: var(--color5, #525051)" d="M13.404 15.928l-0.753-0.278 0.369 0.707 0.384-0.429z"></path>
</symbol>
<symbol id="icon-healthy" viewBox="0 0 33 32">
<path fill="#f6b626" style="fill: var(--color2, #f6b626)" d="M15.021 32c-1.619 0-3.114-0.523-4.252-1.431-1.133-0.899-1.931-2.266-1.931-3.821v-3.091h-3.091c-1.555 0-2.922-0.798-3.821-1.931-0.908-1.137-1.426-2.633-1.431-4.252v-2.954c0-1.619 0.518-3.11 1.431-4.247 0.899-1.133 2.266-1.931 3.821-1.931h3.091v-3.091c0-1.555 0.798-2.922 1.931-3.821 1.137-0.908 2.633-1.426 4.252-1.431h2.954c1.619 0 3.114 0.518 4.252 1.431 1.133 0.899 1.931 2.266 1.931 3.821v3.091h3.091v2.94h-6.031v-6.031c0-0.532-0.257-1.059-0.83-1.527-0.569-0.459-1.431-0.784-2.412-0.784h-2.954c-0.982 0-1.844 0.326-2.412 0.784-0.573 0.468-0.83 0.991-0.83 1.527v6.031h-6.031c-0.532 0-1.059 0.257-1.527 0.83-0.459 0.569-0.784 1.426-0.784 2.408v2.954c0 0.982 0.326 1.844 0.784 2.412 0.468 0.573 0.991 0.83 1.527 0.83h6.031v6.031c0 0.532 0.257 1.059 0.83 1.527 0.569 0.459 1.431 0.784 2.412 0.784h2.954c0.982 0 1.844-0.326 2.408-0.784 0.573-0.468 0.83-0.995 0.83-1.527v-6.031h6.031c0.532 0 1.059-0.257 1.527-0.83 0.459-0.564 0.784-1.431 0.784-2.412v-2.954c0-0.982-0.326-1.844-0.784-2.408-0.468-0.573-0.991-0.83-1.527-0.83v-2.94c1.555 0 2.922 0.798 3.821 1.931 0.908 1.137 1.426 2.633 1.431 4.247v2.954c0 1.619-0.518 3.114-1.431 4.252-0.899 1.133-2.266 1.931-3.821 1.931h-3.091v3.091c0 1.555-0.798 2.917-1.931 3.821-1.137 0.908-2.633 1.431-4.252 1.431h-2.949z"></path>
</symbol>
<symbol id="icon-heart" viewBox="0 0 35 32">
<path fill="#f6b626" style="fill: var(--color2, #f6b626)" d="M17.068 31.995c-0.424 0-0.821-0.191-1.095-0.51l-13.298-15.486c-1.78-1.789-2.674-4.13-2.674-6.456 0-2.377 0.936-4.763 2.779-6.561 1.825-1.776 4.208-2.664 6.576-2.664 2.4 0 4.815 0.911 6.644 2.727l0.963 0.956 1.369-1.334c1.821-1.78 4.208-2.668 6.576-2.668 2.4 0 4.814 0.911 6.644 2.727 1.908 1.899 2.738 4.417 2.734 6.848 0 2.245-0.685 4.448-1.944 6.229l-0.137 0.164-2.537 2.655-11.495 12.886c-0.278 0.314-0.675 0.492-1.091 0.492h-0.014v-0.005zM4.824 5.072c-1.269 1.243-1.898 2.85-1.898 4.476 0 1.603 0.611 3.192 1.853 4.43l0.078 0.087 12.244 14.256 10.428-11.688 2.483-2.595c0.849-1.225 1.351-2.85 1.346-4.458 0-1.789-0.598-3.506-1.876-4.781-1.26-1.252-2.912-1.876-4.577-1.876-1.647 0-3.277 0.61-4.532 1.835l-2.405 2.34c-0.57 0.556-1.488 0.551-2.054-0.009l-1.985-1.967c-1.26-1.252-2.912-1.876-4.577-1.876-1.643 0-3.272 0.61-4.532 1.835l0.005-0.009z"></path>
</symbol>
<symbol id="icon-main-logo" viewBox="0 0 53 32">
<path fill="#b3b2b2" style="fill: var(--color6, #b3b2b2)" d="M39.859 11.927c0 1.361-1.264 2.475-2.807 2.475s-2.807-1.114-2.807-2.475c0-1.361 1.264-2.475 2.807-2.475s2.807 1.114 2.807 2.475z"></path>
<path fill="#b3b2b2" style="fill: var(--color6, #b3b2b2)" d="M14.26 19.901c1.904-0.905 3.096-2.549 3.096-4.385 0-2.45-2.169-5.514-7.529-5.514h-9.827v21.997h11.062c6.628 0 8.026-3.936 8.026-6.452s-1.595-4.841-4.836-5.647h0.009zM5.659 14.030h2.967c2.067 0 2.898 1.196 2.898 2.325s-0.832 2.392-2.898 2.392h-2.967v-4.717zM8.858 27.973h-3.198v-5.198h3.962c1.998 0 3.464 0.872 3.464 2.483 0 1.902-1.098 2.715-4.236 2.715h0.009z"></path>
<path fill="#b3b2b2" style="fill: var(--color6, #b3b2b2)" d="M25.357 20.673h0.065c1.362-3.145 2.888-4.621 4.658-4.621 0.922 0 1.713 0.363 3.043 1.375l-1.264 4.191c-1.207-0.784-1.999-1.113-2.725-1.113-1.68 0-2.757 1.636-3.769 4.427v6.519h-4.593v-15.103h4.593v4.326z"></path>
<path fill="#b3b2b2" style="fill: var(--color6, #b3b2b2)" d="M39.299 31.45h-4.491v-14.848h4.491v14.848z"></path>
<path fill="#b3b2b2" style="fill: var(--color6, #b3b2b2)" d="M53.334 19.5h-5.475v6.116c0 1.45 0.847 2.387 2.314 2.387 0.981 0 1.887-0.224 3.161-0.87v3.381c-1.66 0.68-2.901 0.936-4.368 0.936-3.128 0-5.836-1.417-5.836-5.569v-6.373h-2.147v-0.903l6.289-6.953h0.587v4.666h5.475v3.191z"></path>
<path fill="#f6b626" style="fill: var(--color2, #f6b626)" d="M3.070 5.053c-0.072 0-0.144-0.031-0.198-0.077l-2.395-2.394c-0.324-0.278-0.477-0.641-0.477-0.996 0-0.371 0.171-0.734 0.504-1.012 0.324-0.278 0.756-0.409 1.179-0.409 0.432 0 0.864 0.139 1.197 0.425l0.171 0.147 0.252-0.208c0.324-0.286 0.756-0.425 1.179-0.425 0.432 0 0.864 0.139 1.197 0.425 0.342 0.293 0.495 0.679 0.495 1.058 0 0.347-0.126 0.687-0.351 0.965l-0.027 0.023-0.459 0.409-2.070 1.992c-0.045 0.046-0.117 0.077-0.198 0.077zM0.864 0.891c-0.225 0.193-0.342 0.44-0.342 0.695 0 0.247 0.108 0.494 0.333 0.687l0.018 0.015 2.206 2.201 1.872-1.799 0.45-0.409c0.153-0.193 0.243-0.44 0.243-0.687 0-0.278-0.108-0.54-0.333-0.741-0.225-0.193-0.522-0.293-0.828-0.293-0.297 0-0.585 0.093-0.81 0.286l-0.432 0.363c-0.099 0.085-0.27 0.085-0.369 0l-0.36-0.301c-0.225-0.193-0.522-0.293-0.819-0.293s-0.585 0.093-0.819 0.286l-0.009-0.008z"></path>
<path fill="#81c3d7" style="fill: var(--color3, #81c3d7)" d="M16.516 5.045c-0.409 0-0.745-0.139-1.007-0.348-0.262-0.201-0.467-0.456-0.663-0.696-0.131-0.162-0.311-0.325-0.467-0.526s-0.295-0.456-0.295-0.765c0-0.247 0.041-0.487 0.115-0.719l-0.704-1.561c-0.041-0.085-0.016-0.193 0.049-0.255 0.074-0.070 0.18-0.093 0.27-0.054l1.482 0.564c0.352-0.193 0.77-0.309 1.212-0.309 0.459 0 0.909 0.093 1.302 0.317l1.499-0.564c0.090-0.039 0.205-0.015 0.27 0.054 0.074 0.070 0.090 0.17 0.049 0.255l-0.762 1.685c0.049 0.193 0.074 0.386 0.074 0.587 0 0.325-0.147 0.595-0.319 0.812s-0.368 0.402-0.516 0.572c-0.197 0.224-0.393 0.456-0.639 0.641s-0.565 0.317-0.95 0.317h-0.008l0.008-0.008zM14.698 1.892c0.025 0.054 0.025 0.116 0 0.17-0.074 0.201-0.115 0.417-0.115 0.649 0 0.178 0.074 0.317 0.197 0.487 0.123 0.162 0.303 0.325 0.459 0.518 0.197 0.247 0.385 0.471 0.581 0.618 0.205 0.155 0.401 0.24 0.688 0.24 0.278 0 0.467-0.077 0.655-0.216s0.36-0.34 0.565-0.572c0.172-0.193 0.36-0.371 0.5-0.549s0.221-0.34 0.221-0.533c0-0.185-0.025-0.371-0.074-0.549-0.016-0.054-0.008-0.108 0.016-0.155l0.557-1.237-1.056 0.402c-0.082 0.031-0.164 0.023-0.238-0.023-0.319-0.209-0.712-0.301-1.13-0.301-0.385 0-0.745 0.108-1.048 0.301-0.065 0.039-0.156 0.046-0.229 0.023l-1.048-0.394 0.508 1.121h-0.008z"></path>
<path fill="#7cb227" style="fill: var(--color7, #7cb227)" d="M22.204 5.045c-0.283 0-0.548-0.078-0.751-0.225-0.195-0.14-0.336-0.35-0.336-0.591v-0.482h-0.548c-0.274 0-0.513-0.124-0.672-0.295-0.159-0.179-0.248-0.404-0.248-0.653v-0.458c0-0.249 0.088-0.482 0.248-0.66 0.159-0.171 0.398-0.295 0.672-0.295h0.548v-0.474c0-0.241 0.141-0.451 0.336-0.591 0.203-0.14 0.46-0.218 0.743-0.218h0.522c0.283 0 0.548 0.078 0.751 0.218s0.345 0.35 0.336 0.591v0.474h0.539v0.451h-1.061v-0.925c0-0.085-0.044-0.163-0.15-0.233-0.097-0.070-0.248-0.124-0.424-0.124h-0.522c-0.168 0-0.327 0.047-0.424 0.124-0.097 0.070-0.141 0.155-0.141 0.233v0.932h-1.061c-0.097 0-0.186 0.039-0.265 0.132-0.080 0.085-0.141 0.218-0.141 0.373v0.458c0 0.155 0.053 0.288 0.141 0.373 0.080 0.085 0.177 0.124 0.265 0.124h1.061v0.932c0 0.085 0.044 0.163 0.141 0.233s0.256 0.124 0.424 0.124h0.522c0.168 0 0.327-0.047 0.424-0.124 0.097-0.070 0.141-0.155 0.15-0.233v-0.932h1.061c0.097 0 0.186-0.039 0.265-0.124s0.141-0.225 0.141-0.373v-0.458c0-0.155-0.053-0.288-0.141-0.373-0.080-0.085-0.177-0.132-0.265-0.132v-0.451c0.274 0 0.513 0.124 0.672 0.295 0.159 0.179 0.248 0.404 0.248 0.66v0.458c0 0.249-0.088 0.482-0.248 0.653-0.159 0.179-0.398 0.295-0.672 0.295h-0.539v0.482c0 0.241-0.141 0.451-0.336 0.591-0.203 0.14-0.46 0.225-0.751 0.225h-0.522l0.009-0.008z"></path>
<path fill="#b57b49" style="fill: var(--color4, #b57b49)" d="M8.137 0.963c-0.102-0.091-0.102-0.249 0-0.34 0.221-0.216 0.433-0.382 0.687-0.481s0.526-0.141 0.848-0.141c0.136 0 0.246 0.108 0.246 0.241s-0.11 0.241-0.246 0.241c-0.288 0-0.484 0.033-0.662 0.108-0.17 0.075-0.331 0.183-0.526 0.374-0.051 0.050-0.11 0.075-0.178 0.075-0.059 0-0.127-0.025-0.178-0.075h0.008z"></path>
<path fill="#b57b49" style="fill: var(--color4, #b57b49)" d="M8.841 4.897c-0.212-0.207-0.365-0.473-0.484-0.755-0.229-0.556-0.305-1.162-0.305-1.519 0-0.133 0.11-0.241 0.246-0.241s0.246 0.108 0.246 0.241c0 0.208 0.042 0.589 0.144 0.971 0.102 0.373 0.272 0.747 0.492 0.955 0.144 0.141 0.297 0.207 0.492 0.216 0.136 0 0.246 0.108 0.246 0.241s-0.11 0.241-0.246 0.241c-0.331 0-0.619-0.149-0.832-0.349z"></path>
<path fill="#b57b49" style="fill: var(--color4, #b57b49)" d="M6.567 4.955c-0.144-0.174-0.212-0.407-0.212-0.697 0-0.332 0.085-0.755 0.272-1.311 0.153-0.465 0.178-0.764 0.178-1.004 0-0.108 0-0.208 0-0.315 0-0.216 0.034-0.457 0.195-0.706 0.11-0.174 0.246-0.315 0.399-0.423s0.331-0.174 0.526-0.174c0.153 0 0.305 0.041 0.433 0.133 0.11 0.075 0.144 0.224 0.059 0.34-0.076 0.108-0.238 0.133-0.348 0.058-0.051-0.033-0.093-0.050-0.153-0.050-0.068 0-0.153 0.025-0.238 0.083-0.093 0.058-0.187 0.158-0.263 0.274-0.102 0.166-0.119 0.266-0.119 0.448 0 0.091 0 0.191 0 0.315 0 0.274-0.025 0.647-0.204 1.162-0.178 0.523-0.246 0.905-0.246 1.162 0 0.224 0.051 0.332 0.093 0.382s0.085 0.066 0.187 0.066c0.161 0 0.441-0.108 0.67-0.266s0.424-0.365 0.475-0.481l0.017-0.050c0-0.133 0.11-0.241 0.246-0.241s0.246 0.108 0.246 0.241c0 0.183-0.085 0.324-0.187 0.465-0.102 0.133-0.238 0.266-0.399 0.39-0.314 0.232-0.687 0.432-1.069 0.432h-0.008c-0.195 0-0.407-0.075-0.551-0.241v0.008z"></path>
<path fill="#b57b49" style="fill: var(--color4, #b57b49)" d="M10.911 0.963c-0.195-0.191-0.356-0.307-0.526-0.374-0.17-0.075-0.373-0.1-0.662-0.108-0.136 0-0.246-0.108-0.246-0.241s0.11-0.241 0.246-0.241c0.322 0 0.602 0.042 0.848 0.141 0.255 0.1 0.467 0.266 0.687 0.481 0.093 0.091 0.093 0.249 0 0.34-0.051 0.050-0.11 0.075-0.178 0.075-0.059 0-0.127-0.025-0.178-0.075h0.009z"></path>
<path fill="#b57b49" style="fill: var(--color4, #b57b49)" d="M9.469 5.005c0-0.133 0.11-0.241 0.246-0.241 0.195 0 0.348-0.075 0.492-0.216s0.272-0.349 0.365-0.581c0.195-0.473 0.272-1.054 0.272-1.336 0-0.133 0.11-0.241 0.246-0.241s0.246 0.108 0.246 0.241c0 0.266-0.042 0.672-0.161 1.096s-0.305 0.863-0.619 1.17c-0.212 0.207-0.501 0.357-0.84 0.349-0.136 0-0.246-0.108-0.246-0.241z"></path>
<path fill="#b57b49" style="fill: var(--color4, #b57b49)" d="M12.268 5.196c-0.288 0-0.568-0.116-0.832-0.266-0.255-0.158-0.484-0.349-0.636-0.556-0.102-0.141-0.187-0.282-0.187-0.465 0-0.133 0.11-0.241 0.246-0.241s0.246 0.108 0.246 0.241c0 0 0 0.017 0.017 0.050 0 0 0.042 0.075 0.076 0.116 0.068 0.091 0.178 0.199 0.305 0.299 0.246 0.191 0.577 0.34 0.764 0.332 0.102 0 0.144-0.025 0.187-0.066 0.042-0.050 0.093-0.158 0.093-0.382 0-0.257-0.068-0.639-0.246-1.162-0.17-0.515-0.204-0.88-0.204-1.162 0-0.125 0-0.224 0-0.315 0-0.183-0.017-0.282-0.119-0.448-0.076-0.125-0.17-0.216-0.263-0.274s-0.178-0.083-0.238-0.083c-0.051 0-0.102 0.017-0.153 0.050-0.11 0.075-0.263 0.050-0.348-0.058-0.076-0.108-0.051-0.257 0.059-0.34 0.136-0.091 0.288-0.133 0.433-0.133 0.187 0 0.365 0.066 0.526 0.174 0.153 0.108 0.288 0.249 0.399 0.423 0.161 0.249 0.195 0.49 0.195 0.706 0 0.1 0 0.199 0 0.315 0 0.249 0.017 0.539 0.178 1.004 0.187 0.556 0.271 0.979 0.271 1.311 0 0.29-0.059 0.523-0.212 0.697-0.144 0.174-0.356 0.241-0.551 0.241h-0.008v-0.008z"></path>
</symbol>
<symbol id="icon-logo" viewBox="0 0 32 32">
<path fill="#fff" style="fill: var(--color8, #fff)" d="M22.682 6.066c0 0.723-0.593 1.316-1.317 1.316s-1.317-0.592-1.317-1.316c0-0.723 0.593-1.316 1.317-1.316s1.317 0.592 1.317 1.316z"></path>
<path fill="#fff" style="fill: var(--color8, #fff)" d="M9.928 10.118c0.94-0.461 1.529-1.299 1.529-2.233 0-1.248-1.072-2.809-3.719-2.809h-4.854v11.205h5.464c3.274 0 3.965-2.005 3.965-3.287s-0.788-2.466-2.389-2.876h0.004zM5.68 7.128h1.466c1.021 0 1.432 0.609 1.432 1.184s-0.411 1.218-1.432 1.218h-1.466v-2.403zM7.26 14.23h-1.58v-2.648h1.957c0.987 0 1.711 0.444 1.711 1.265 0 0.969-0.542 1.383-2.092 1.383h0.004z"></path>
<path fill="#fff" style="fill: var(--color8, #fff)" d="M15.502 10.537h0.034c0.707-1.578 1.499-2.318 2.419-2.318 0.479 0 0.889 0.182 1.58 0.69l-0.656 2.102c-0.627-0.393-1.038-0.558-1.415-0.558-0.872 0-1.432 0.821-1.957 2.221v3.27h-2.385v-7.576h2.385v2.17z"></path>
<path fill="#fff" style="fill: var(--color8, #fff)" d="M22.529 15.943h-2.385v-7.576h2.385v7.576z"></path>
<path fill="#fff" style="fill: var(--color8, #fff)" d="M29.51 9.995h-2.766v3.122c0 0.74 0.428 1.218 1.169 1.218 0.496 0 0.953-0.114 1.597-0.444v1.726c-0.839 0.347-1.466 0.478-2.207 0.478-1.58 0-2.948-0.723-2.948-2.843v-3.253h-1.084v-0.461l3.177-3.549h0.296v2.381h2.766v1.629z"></path>
<path fill="#fff" style="fill: var(--color8, #fff)" d="M4.409 2.711c-0.034 0-0.068-0.017-0.093-0.042l-1.127-1.311c-0.152-0.152-0.224-0.351-0.224-0.546 0-0.203 0.080-0.402 0.237-0.554 0.152-0.152 0.356-0.224 0.555-0.224 0.203 0 0.407 0.076 0.563 0.233l0.080 0.080 0.119-0.114c0.152-0.157 0.356-0.233 0.555-0.233 0.203 0 0.407 0.076 0.563 0.233 0.161 0.161 0.233 0.372 0.233 0.579 0 0.19-0.059 0.376-0.165 0.529l-0.013 0.013-0.216 0.224-0.974 1.091c-0.021 0.025-0.055 0.042-0.093 0.042zM3.372 0.431c-0.106 0.106-0.161 0.241-0.161 0.381 0 0.135 0.051 0.271 0.157 0.376l0.008 0.008 1.038 1.206 0.881-0.986 0.212-0.224c0.072-0.106 0.114-0.241 0.114-0.376 0-0.152-0.051-0.296-0.157-0.406-0.106-0.106-0.246-0.161-0.39-0.161-0.14 0-0.275 0.051-0.381 0.156l-0.203 0.199c-0.047 0.047-0.127 0.047-0.174 0l-0.169-0.165c-0.106-0.106-0.246-0.161-0.385-0.161s-0.275 0.051-0.385 0.157l-0.004-0.004z"></path>
<path fill="#fff" style="fill: var(--color8, #fff)" d="M11.084 2.737c-0.212 0-0.385-0.076-0.521-0.19-0.136-0.11-0.241-0.25-0.343-0.381-0.068-0.089-0.161-0.178-0.241-0.288s-0.152-0.25-0.152-0.419c0-0.135 0.021-0.266 0.059-0.393l-0.364-0.854c-0.021-0.047-0.008-0.106 0.025-0.14 0.038-0.038 0.093-0.051 0.14-0.030l0.767 0.309c0.182-0.106 0.398-0.169 0.627-0.169 0.237 0 0.47 0.051 0.673 0.173l0.775-0.309c0.047-0.021 0.106-0.008 0.14 0.030 0.038 0.038 0.047 0.093 0.025 0.14l-0.394 0.922c0.025 0.106 0.038 0.212 0.038 0.321 0 0.178-0.076 0.326-0.165 0.444s-0.191 0.22-0.267 0.313c-0.102 0.123-0.203 0.25-0.33 0.351s-0.292 0.173-0.491 0.173h-0.004l0.004-0.004zM10.144 1.011c0.013 0.030 0.013 0.063 0 0.093-0.038 0.11-0.059 0.228-0.059 0.355 0 0.097 0.038 0.173 0.102 0.266 0.064 0.089 0.157 0.178 0.237 0.283 0.102 0.135 0.199 0.258 0.301 0.338 0.106 0.085 0.208 0.131 0.356 0.131 0.144 0 0.241-0.042 0.339-0.118s0.186-0.186 0.292-0.313c0.089-0.106 0.186-0.203 0.258-0.3s0.114-0.186 0.114-0.292c0-0.102-0.013-0.203-0.038-0.3-0.008-0.030-0.004-0.059 0.008-0.085l0.288-0.677-0.546 0.22c-0.042 0.017-0.085 0.013-0.123-0.013-0.165-0.114-0.368-0.165-0.585-0.165-0.199 0-0.385 0.059-0.542 0.165-0.034 0.021-0.080 0.025-0.119 0.013l-0.542-0.216 0.263 0.613h-0.004z"></path>
<path fill="#fff" style="fill: var(--color8, #fff)" d="M14.054 2.728c-0.136 0-0.263-0.042-0.36-0.123-0.093-0.076-0.161-0.19-0.161-0.321v-0.262h-0.263c-0.131 0-0.246-0.068-0.322-0.161-0.076-0.097-0.119-0.22-0.119-0.355v-0.25c0-0.135 0.042-0.262 0.119-0.36 0.076-0.093 0.191-0.161 0.322-0.161h0.263v-0.258c0-0.131 0.068-0.245 0.161-0.321 0.097-0.076 0.22-0.118 0.356-0.118h0.25c0.136 0 0.263 0.042 0.36 0.118s0.165 0.19 0.161 0.321v0.258h0.258v0.245h-0.508v-0.503c0-0.047-0.021-0.089-0.072-0.127-0.047-0.038-0.119-0.068-0.203-0.068h-0.25c-0.080 0-0.157 0.025-0.203 0.068-0.047 0.038-0.068 0.085-0.068 0.127v0.508h-0.508c-0.047 0-0.089 0.021-0.127 0.072-0.038 0.047-0.068 0.118-0.068 0.203v0.25c0 0.085 0.025 0.157 0.068 0.203 0.038 0.047 0.085 0.068 0.127 0.068h0.508v0.508c0 0.047 0.021 0.089 0.068 0.127s0.123 0.068 0.203 0.068h0.25c0.080 0 0.157-0.025 0.203-0.068 0.047-0.038 0.068-0.085 0.072-0.127v-0.508h0.508c0.047 0 0.089-0.021 0.127-0.068s0.068-0.123 0.068-0.203v-0.25c0-0.085-0.025-0.157-0.068-0.203-0.038-0.047-0.085-0.072-0.127-0.072v-0.245c0.131 0 0.246 0.068 0.322 0.161 0.076 0.097 0.119 0.22 0.119 0.36v0.25c0 0.135-0.042 0.262-0.119 0.355-0.076 0.097-0.191 0.161-0.322 0.161h-0.258v0.262c0 0.131-0.068 0.245-0.161 0.321-0.097 0.076-0.22 0.123-0.36 0.123h-0.25l0.004-0.004z"></path>
<path fill="#fff" style="fill: var(--color8, #fff)" d="M6.946 0.525c-0.051-0.047-0.051-0.127 0-0.173 0.11-0.11 0.216-0.195 0.343-0.245s0.263-0.072 0.424-0.072c0.068 0 0.123 0.055 0.123 0.123s-0.055 0.123-0.123 0.123c-0.144 0-0.241 0.017-0.33 0.055-0.085 0.038-0.165 0.093-0.263 0.19-0.025 0.025-0.055 0.038-0.089 0.038-0.030 0-0.064-0.013-0.089-0.038h0.004z"></path>
<path fill="#fff" style="fill: var(--color8, #fff)" d="M7.298 2.53c-0.106-0.106-0.182-0.241-0.241-0.385-0.114-0.283-0.152-0.592-0.152-0.774 0-0.068 0.055-0.123 0.123-0.123s0.123 0.055 0.123 0.123c0 0.106 0.021 0.3 0.072 0.495 0.051 0.19 0.136 0.381 0.246 0.486 0.072 0.072 0.148 0.106 0.246 0.11 0.068 0 0.123 0.055 0.123 0.123s-0.055 0.123-0.123 0.123c-0.165 0-0.309-0.076-0.415-0.178z"></path>
<path fill="#fff" style="fill: var(--color8, #fff)" d="M6.163 2.559c-0.072-0.089-0.106-0.207-0.106-0.355 0-0.169 0.042-0.385 0.136-0.668 0.076-0.237 0.089-0.389 0.089-0.512 0-0.055 0-0.106 0-0.161 0-0.11 0.017-0.233 0.097-0.36 0.055-0.089 0.123-0.161 0.199-0.216s0.165-0.089 0.263-0.089c0.076 0 0.152 0.021 0.216 0.068 0.055 0.038 0.072 0.114 0.030 0.173-0.038 0.055-0.119 0.068-0.174 0.030-0.025-0.017-0.047-0.025-0.076-0.025-0.034 0-0.076 0.013-0.119 0.042-0.047 0.030-0.093 0.080-0.131 0.14-0.051 0.085-0.059 0.135-0.059 0.228 0 0.047 0 0.097 0 0.161 0 0.14-0.013 0.33-0.102 0.592-0.089 0.266-0.123 0.461-0.123 0.592 0 0.114 0.025 0.169 0.047 0.195s0.042 0.034 0.093 0.034c0.080 0 0.22-0.055 0.335-0.135s0.212-0.186 0.237-0.245l0.008-0.025c0-0.068 0.055-0.123 0.123-0.123s0.123 0.055 0.123 0.123c0 0.093-0.042 0.165-0.093 0.237-0.051 0.068-0.119 0.135-0.199 0.199-0.157 0.118-0.343 0.22-0.534 0.22h-0.004c-0.097 0-0.203-0.038-0.275-0.123v0.004z"></path>
<path fill="#fff" style="fill: var(--color8, #fff)" d="M8.332 0.525c-0.097-0.097-0.178-0.156-0.263-0.19-0.085-0.038-0.186-0.051-0.33-0.055-0.068 0-0.123-0.055-0.123-0.123s0.055-0.123 0.123-0.123c0.161 0 0.301 0.021 0.424 0.072 0.127 0.051 0.233 0.135 0.343 0.245 0.047 0.047 0.047 0.127 0 0.173-0.025 0.025-0.055 0.038-0.089 0.038-0.030 0-0.064-0.013-0.089-0.038h0.004z"></path>
<path fill="#fff" style="fill: var(--color8, #fff)" d="M7.611 2.585c0-0.068 0.055-0.123 0.123-0.123 0.097 0 0.174-0.038 0.246-0.11s0.136-0.178 0.182-0.296c0.097-0.241 0.136-0.537 0.136-0.681 0-0.068 0.055-0.123 0.123-0.123s0.123 0.055 0.123 0.123c0 0.135-0.021 0.343-0.080 0.558s-0.152 0.44-0.309 0.596c-0.106 0.106-0.25 0.182-0.419 0.178-0.068 0-0.123-0.055-0.123-0.123z"></path>
<path fill="#fff" style="fill: var(--color8, #fff)" d="M9.009 2.682c-0.144 0-0.284-0.059-0.415-0.135-0.127-0.080-0.241-0.178-0.318-0.283-0.051-0.072-0.093-0.144-0.093-0.237 0-0.068 0.055-0.123 0.123-0.123s0.123 0.055 0.123 0.123c0 0 0 0.008 0.008 0.025 0 0 0.021 0.038 0.038 0.059 0.034 0.047 0.089 0.102 0.152 0.152 0.123 0.097 0.288 0.173 0.381 0.169 0.051 0 0.072-0.013 0.093-0.034 0.021-0.025 0.047-0.080 0.047-0.195 0-0.131-0.034-0.326-0.123-0.592-0.085-0.262-0.102-0.448-0.102-0.592 0-0.063 0-0.114 0-0.161 0-0.093-0.008-0.144-0.059-0.228-0.038-0.063-0.085-0.11-0.131-0.14s-0.089-0.042-0.119-0.042c-0.025 0-0.051 0.008-0.076 0.025-0.055 0.038-0.131 0.025-0.174-0.030-0.038-0.055-0.025-0.131 0.030-0.173 0.068-0.047 0.144-0.068 0.216-0.068 0.093 0 0.182 0.034 0.263 0.089 0.076 0.055 0.144 0.127 0.199 0.216 0.080 0.127 0.097 0.25 0.097 0.36 0 0.051 0 0.102 0 0.161 0 0.127 0.008 0.275 0.089 0.512 0.093 0.283 0.136 0.499 0.136 0.668 0 0.148-0.030 0.267-0.106 0.355-0.072 0.089-0.178 0.123-0.275 0.123h-0.004v-0.004z"></path>
<path fill="#fff" style="fill: var(--color8, #fff)" d="M31.996 27.931c0 2.728-1.36 4.069-4.113 4.069h-23.868c-2.753 0-4.015-1.65-4.015-4.374v-5.148c0-2.728 1.436-4.471 4.185-4.471h22.83c2.753 0 3.71 0.144 4.985-0.571v10.495h-0.004zM9.678 28.201l-0.093-1.058c-0.432 0.233-1.029 0.364-1.601 0.364-1.491 0-1.927-1.045-1.927-2.356 0-1.531 0.665-2.534 2.020-2.534 0.529 0 1.029 0.123 1.449 0.283l0.136-1.070c-0.474-0.135-1.004-0.216-1.533-0.216-2.249 0-3.363 1.531-3.363 3.697 0 2.479 1.343 3.236 2.956 3.236 0.788 0 1.504-0.178 1.953-0.351l0.004 0.004zM16.036 28.459c-0.013-0.584-0.025-1.299-0.025-1.937v-2.682c0-1.341-0.555-2.246-2.495-2.246-0.894 0-1.711 0.216-2.359 0.486l0.123 1.045c0.585-0.351 1.398-0.554 2.033-0.554 1.114 0 1.478 0.503 1.478 1.434v0.499c-2.55 0-4.053 0.935-4.053 2.411 0 1.070 0.758 1.667 1.872 1.667s1.965-0.639 2.291-1.464h0.030c-0.068 0.381-0.068 0.867-0.068 1.341h1.173zM14.791 25.481c0 1.058-0.733 2.14-1.83 2.14-0.623 0-1.029-0.364-1.029-0.935 0-0.609 0.517-1.328 2.859-1.328v0.123zM21.161 21.607c-1.343-0.148-2.033 0.787-2.317 1.722h-0.025c0.106-0.554 0.148-1.18 0.148-1.599h-1.177v6.73h1.22v-2.707c0-2.153 0.678-3.194 2.101-2.953l0.055-1.193h-0.004zM27.26 24.437c0-1.544-0.801-2.83-2.698-2.83s-3.012 1.502-3.012 3.519c0 2.369 1.114 3.452 3.185 3.452 0.839 0 1.626-0.148 2.279-0.419l-0.11-0.99c-0.542 0.258-1.275 0.419-1.965 0.419-1.436 0-2.181-0.77-2.13-2.572h4.409c0.025-0.228 0.038-0.419 0.038-0.584l0.004 0.004zM26.011 24.153h-3.147c0.136-0.99 0.758-1.654 1.639-1.654 0.949 0 1.533 0.664 1.504 1.654h0.004z"></path>
</symbol>
<symbol id="icon-master" viewBox="0 0 49 32">
<path fill="#fff" style="fill: var(--color8, #fff)" d="M4.049 0h40.494c2.236 0 4.049 1.791 4.049 4v24c0 2.209-1.813 4-4.049 4h-40.494c-2.236 0-4.049-1.791-4.049-4v-24c0-2.209 1.813-4 4.049-4zM32.033 27.975c6.639-0.023 11.92-5.425 11.808-12.081-0.111-6.622-5.574-12.022-12.213-11.999-2.803 0.009-5.355 0.988-7.363 2.6l0.063 0.050-0.357 0.001c-2.056-1.58-4.626-2.53-7.411-2.52-6.639 0.022-11.92 5.425-11.808 12.081s5.574 12.022 12.213 11.999c2.803-0.009 5.355-0.988 7.363-2.6l-0.064-0.050 0.358-0.001c2.056 1.58 4.626 2.53 7.411 2.52z"></path>
</symbol>
<symbol id="icon-pack" viewBox="0 0 27 32">
<path fill="#525051" style="fill: var(--color5, #525051)" d="M26.889 28.734c-0.037-1.635-0.074-3.322-0.226-4.981-0.238-2.605-0.603-5.426-1.116-8.62-0.533-3.342-1.284-6.288-2.293-8.997-0.135-0.365-0.254-0.713-0.357-1.050l-0.025-0.088c-0.41-1.379-0.558-2.557-0.464-3.719 0.021-0.272 0.021-0.669-0.254-0.954-0.271-0.289-0.673-0.325-0.993-0.325h-15.843c-0.718 0-1.116 0.393-1.128 1.11 0 0.208-0.004 0.421 0 0.649 0.029 1.186 0.057 2.304-0.451 3.346-0.123 0.252-0.201 0.513-0.275 0.765l-0.062 0.212c-1.559 5.037-2.556 10.44-3.052 16.527-0.16 1.936-0.217 3.911-0.275 5.823-0.025 0.753-0.045 1.507-0.074 2.26-0.012 0.369 0.012 0.749 0.271 1.010 0.254 0.261 0.632 0.297 1.001 0.297h12.176c1.624 0 3.245 0 4.869 0 2.486 0 4.976 0 7.466 0 0.398 0 0.689-0.096 0.886-0.297s0.287-0.485 0.275-0.874c-0.025-0.697-0.037-1.395-0.053-2.092l-0.004-0.004zM6.25 2.97v-0.902h14.067v0.902h-14.067zM21.556 29.271c0.328 0.216 0.652 0.437 0.989 0.661h-1.981c0.34-0.228 0.669-0.449 0.993-0.661zM24.235 28.59c-0.513-0.349-1.030-0.697-1.546-1.034-0.082-0.052-0.107-0.068-0.107-0.229 0-2.124 0.004-2.693 0.008-2.841 0-0.024 0-0.048 0-0.072l-0.119-0.397c-0.168-0.349-0.501-0.573-0.903-0.581-0.271-0.008-0.517 0.096-0.706 0.281-0.209 0.2-0.32 0.481-0.32 0.785v0.625c-0.006 0.155-0.006 0.596 0 1.322v0.878c0 0.148-0.021 0.168-0.111 0.229-0.681 0.449-1.358 0.906-2.039 1.367l-0.177 0.12c-0.279-4.376 1.592-17.112 3.192-21.981 2.125 6.612 3.261 13.814 3.47 21.957-0.213-0.144-0.422-0.285-0.636-0.429h-0.008zM5.803 28.642c0.226 0.004 0.451-0.032 0.677-0.112 0.48-0.196 0.714-0.669 0.554-1.122-0.119-0.345-0.418-0.593-0.583-0.709-0.205-0.144-0.443-0.132-0.619-0.128h-3.639c0-0.028 0-0.056 0-0.088-0.004-0.301-0.012-0.581 0.004-0.858 0.402-6.885 1.395-12.908 3.027-18.419 0.205-0.697 0.443-1.415 0.697-2.116 0.004-0.008 0.016-0.020 0.029-0.028 4.652-0.004 9.304-0.008 13.956-0.008-0.090 0.285-0.176 0.553-0.279 0.818-0.008 0-0.016 0.004-0.021 0.008h-0.349c-0.282 0.008-0.505 0.012-0.669 0.012h-0.603c-0.373 0-0.685 0.112-0.902 0.325-0.189 0.184-0.283 0.433-0.279 0.709 0.008 0.597 0.476 1.002 1.165 1.002h1.050c-1.817 6.785-2.753 13.994-2.867 22.009h-14.063v-1.299h0.833c0.711 0 1.422 0 2.133 0h0.751l-0.004 0.004z"></path>
</symbol>
<symbol id="icon-paw" viewBox="0 0 35 32">
<path fill="#fff" style="fill: var(--color8, #fff)" d="M28.399 20.944c0.027 0.088 0.056 0.174 0.081 0.263 0.081 0.291 0.103 0.589 0.108 0.891 0.004 0.27-0.020 0.537-0.068 0.803-0.072 0.404-0.206 0.79-0.392 1.161-0.25 0.496-0.587 0.932-1.005 1.31-0.138 0.125-0.281 0.246-0.443 0.344-0.145 0.089-0.28 0.191-0.426 0.277-0.113 0.067-0.233 0.125-0.356 0.173-0.362 0.143-0.731 0.269-1.114 0.339-0.216 0.039-0.437 0.057-0.659 0.062-0.5 0.011-0.995-0.037-1.492-0.059-0.081-0.004-0.163 0.007-0.244 0.010-0.206 0.009-0.412 0.018-0.617 0.027-0.009 0-0.018 0.001-0.027 0.003-0.161 0.028-0.321 0.056-0.482 0.083-0.134 0.023-0.268 0.046-0.403 0.063-0.338 0.041-0.656 0.161-0.982 0.251-0.132 0.037-0.263 0.080-0.391 0.128-0.234 0.089-0.469 0.177-0.699 0.277-0.203 0.089-0.402 0.187-0.596 0.293-0.165 0.090-0.32 0.197-0.479 0.297-0.122 0.077-0.249 0.149-0.365 0.235-0.253 0.187-0.499 0.383-0.752 0.571-0.118 0.087-0.251 0.155-0.367 0.244-0.177 0.136-0.376 0.237-0.578 0.324-0.268 0.115-0.542 0.222-0.831 0.28-0.214 0.043-0.428 0.090-0.644 0.123-0.106 0.016-0.215 0.008-0.323 0.010-0.076 0.002-0.151 0.002-0.227 0.005-0.382 0.013-0.75-0.054-1.114-0.145-0.421-0.105-0.81-0.281-1.174-0.499-0.332-0.199-0.632-0.438-0.888-0.724-0.122-0.136-0.252-0.269-0.357-0.416-0.108-0.151-0.184-0.324-0.286-0.479-0.128-0.193-0.19-0.411-0.261-0.625-0.077-0.231-0.153-0.467-0.187-0.707-0.055-0.386-0.062-0.778-0.004-1.169 0.046-0.304 0.124-0.601 0.215-0.896 0.204-0.664 0.408-1.327 0.608-1.992 0.152-0.505 0.298-1.012 0.45-1.516 0.168-0.56 0.341-1.119 0.509-1.679 0.145-0.483 0.354-0.941 0.598-1.386 0.27-0.492 0.608-0.938 0.987-1.36 0.245-0.274 0.53-0.505 0.802-0.75 0.128-0.115 0.28-0.207 0.425-0.304 0.15-0.1 0.301-0.2 0.458-0.29 0.149-0.086 0.306-0.163 0.461-0.239 0.192-0.094 0.384-0.189 0.58-0.273 0.13-0.056 0.268-0.092 0.401-0.14 0.341-0.123 0.697-0.189 1.049-0.263 0.102-0.021 0.207-0.029 0.311-0.035 0.289-0.017 0.576-0.081 0.869-0.053 0.15 0.014 0.305-0.013 0.458-0.008 0.128 0.004 0.255 0.026 0.382 0.042 0.156 0.019 0.313 0.030 0.467 0.060 0.244 0.048 0.488 0.103 0.727 0.167 0.531 0.142 1.024 0.364 1.505 0.618 0.471 0.248 0.883 0.567 1.29 0.895 0.469 0.377 0.939 0.753 1.406 1.133 0.443 0.36 0.88 0.727 1.325 1.086 0.441 0.356 0.891 0.702 1.33 1.062 0.259 0.213 0.503 0.441 0.709 0.706 0.183 0.235 0.341 0.481 0.481 0.743 0.11 0.207 0.163 0.432 0.243 0.647l-0.002-0.002z"></path>
<path fill="#fff" style="fill: var(--color8, #fff)" d="M13.676 14.207c-0.227 0.045-0.495 0.101-0.764 0.149-0.083 0.015-0.171 0.013-0.256 0.012-0.146-0.002-0.294-0.001-0.438-0.018-0.222-0.027-0.446-0.053-0.661-0.108-0.226-0.058-0.448-0.138-0.662-0.228-0.381-0.161-0.732-0.371-1.049-0.631-0.267-0.219-0.511-0.46-0.724-0.728-0.154-0.194-0.288-0.402-0.419-0.611-0.2-0.318-0.306-0.671-0.454-1.009-0.019-0.043-0.025-0.092-0.036-0.139-0.025-0.106-0.052-0.212-0.073-0.319-0.037-0.192-0.090-0.383-0.102-0.577-0.024-0.393-0.024-0.787 0.034-1.183 0.072-0.482 0.206-0.942 0.421-1.384 0.211-0.436 0.485-0.833 0.839-1.177 0.21-0.204 0.432-0.391 0.685-0.545 0.151-0.092 0.309-0.17 0.463-0.256 0.257-0.142 0.535-0.209 0.811-0.283 0.151-0.041 0.313-0.048 0.47-0.061s0.317-0.022 0.474-0.020c0.494 0.007 0.968 0.103 1.42 0.282 0.38 0.151 0.734 0.345 1.060 0.587 0.328 0.244 0.62 0.526 0.871 0.841 0.14 0.175 0.263 0.364 0.38 0.558 0.186 0.309 0.334 0.633 0.453 0.969 0.12 0.338 0.195 0.688 0.228 1.046 0.018 0.194 0.041 0.389 0.039 0.584-0.001 0.215-0.016 0.432-0.045 0.646-0.048 0.349-0.137 0.691-0.261 1.024-0.183 0.488-0.445 0.934-0.79 1.336-0.197 0.23-0.416 0.44-0.666 0.617-0.183 0.129-0.373 0.245-0.57 0.353-0.204 0.112-0.429 0.158-0.675 0.273l-0.001-0z"></path>
<path fill="#fff" style="fill: var(--color8, #fff)" d="M25.050 7.336c0.029 0.096 0.060 0.192 0.089 0.288 0.063 0.218 0.092 0.442 0.097 0.669 0.004 0.169 0.024 0.338 0.019 0.506-0.004 0.161-0.033 0.321-0.045 0.481-0.024 0.308-0.107 0.607-0.205 0.898-0.111 0.33-0.261 0.649-0.45 0.951-0.177 0.284-0.392 0.538-0.616 0.786-0.098 0.108-0.218 0.197-0.328 0.294-0.229 0.202-0.494 0.361-0.763 0.498-0.228 0.116-0.467 0.231-0.732 0.263-0.076 0.009-0.152 0.033-0.226 0.055-0.164 0.050-0.331 0.054-0.498 0.057-0.085 0.001-0.17 0.009-0.254 0.010-0.46 0.004-0.891-0.098-1.311-0.268-0.434-0.176-0.807-0.433-1.143-0.74-0.15-0.137-0.265-0.308-0.4-0.46-0.179-0.201-0.295-0.441-0.432-0.668-0.007-0.011-0.014-0.023-0.018-0.035-0.102-0.274-0.254-0.529-0.309-0.818-0.040-0.209-0.073-0.42-0.096-0.632-0.022-0.203-0.042-0.408-0.037-0.613 0.007-0.245 0.029-0.493 0.069-0.736 0.052-0.326 0.147-0.644 0.274-0.953 0.134-0.326 0.296-0.636 0.507-0.926 0.201-0.277 0.426-0.529 0.683-0.759 0.191-0.171 0.404-0.312 0.615-0.456 0.067-0.046 0.143-0.082 0.217-0.115 0.32-0.145 0.641-0.284 0.995-0.341 0.23-0.037 0.461-0.066 0.692-0.069 0.192-0.002 0.385 0.016 0.574 0.044 0.515 0.077 0.982 0.27 1.412 0.544 0.316 0.202 0.588 0.452 0.826 0.735 0.148 0.176 0.292 0.356 0.394 0.565 0.068 0.139 0.167 0.266 0.226 0.408 0.071 0.173 0.114 0.357 0.169 0.536l0.009-0.003-0.001 0.001z"></path>
<path fill="#fff" style="fill: var(--color8, #fff)" d="M10.075 15.647c0.081 0.259 0.149 0.521 0.167 0.792s0.019 0.544-0.018 0.817c-0.032 0.233-0.083 0.458-0.155 0.684-0.148 0.466-0.399 0.873-0.738 1.234-0.167 0.178-0.355 0.332-0.561 0.471-0.324 0.218-0.673 0.375-1.049 0.475-0.22 0.059-0.444 0.087-0.672 0.109-0.33 0.033-0.653 0.012-0.973-0.044-0.406-0.071-0.793-0.199-1.157-0.382-0.361-0.182-0.691-0.406-0.982-0.677-0.232-0.216-0.451-0.445-0.629-0.709-0.144-0.213-0.267-0.433-0.385-0.661-0.136-0.264-0.218-0.542-0.29-0.824-0.046-0.18-0.058-0.368-0.075-0.554-0.015-0.168-0.026-0.337-0.018-0.505 0.009-0.181 0.031-0.363 0.067-0.541 0.086-0.42 0.244-0.818 0.484-1.185 0.179-0.274 0.399-0.514 0.652-0.731 0.251-0.214 0.53-0.384 0.827-0.52 0.26-0.119 0.536-0.203 0.826-0.241 0.208-0.027 0.416-0.054 0.624-0.053 0.428 0.002 0.845 0.064 1.248 0.198 0.446 0.149 0.856 0.358 1.229 0.635 0.279 0.207 0.529 0.439 0.751 0.703 0.157 0.186 0.292 0.385 0.422 0.59 0.182 0.287 0.306 0.597 0.406 0.918l0.001 0.001z"></path>
<path fill="#fff" style="fill: var(--color8, #fff)" d="M28.886 17.493c-0.14 0.043-0.278 0.093-0.42 0.127-0.1 0.024-0.205 0.031-0.307 0.038-0.117 0.008-0.234 0.010-0.35 0.011-0.327 0.002-0.644-0.053-0.954-0.143-0.458-0.134-0.856-0.366-1.206-0.675-0.215-0.189-0.394-0.407-0.556-0.638-0.075-0.106-0.117-0.232-0.186-0.342-0.169-0.272-0.231-0.582-0.321-0.881-0.056-0.187-0.069-0.383-0.075-0.579-0.004-0.152-0.014-0.303-0.011-0.454 0.007-0.375 0.079-0.742 0.188-1.103 0.141-0.462 0.357-0.892 0.639-1.292 0.204-0.29 0.442-0.552 0.715-0.788 0.254-0.219 0.526-0.41 0.822-0.569 0.302-0.162 0.619-0.3 0.958-0.365 0.539-0.103 1.079-0.121 1.608 0.015 0.495 0.127 0.935 0.352 1.319 0.678 0.247 0.211 0.449 0.458 0.63 0.721 0.083 0.121 0.128 0.265 0.205 0.391 0.152 0.251 0.22 0.532 0.284 0.811 0.040 0.175 0.081 0.355 0.073 0.541-0.006 0.138 0.006 0.276 0.009 0.414 0.008 0.309-0.048 0.613-0.118 0.915-0.079 0.345-0.206 0.677-0.372 0.992-0.172 0.328-0.374 0.642-0.627 0.923-0.203 0.226-0.422 0.439-0.668 0.618-0.206 0.15-0.427 0.282-0.657 0.403-0.201 0.107-0.417 0.155-0.625 0.231l0.002 0z"></path>
</symbol>
<symbol id="icon-filled-star" viewBox="0 0 34 32">
<path fill="#f6b626" style="fill: var(--color2, #f6b626)" d="M9 20.264l-1.922 11.164 10.065-5.271 10.065 5.271-1.922-11.164 8.143-7.907-11.253-1.629-5.033-10.158-5.033 10.158-11.253 1.629 8.143 7.907z"></path>
</symbol>
<symbol id="icon-menu" viewBox="0 0 61 32">
<path fill="#f6b626" style="fill: var(--color2, #f6b626)" d="M1.6 14.4c-0.884 0-1.6 0.716-1.6 1.6s0.716 1.6 1.6 1.6v-3.2zM59.2 17.6c0.884 0 1.6-0.716 1.6-1.6s-0.716-1.6-1.6-1.6v3.2zM1.6 0c-0.884 0-1.6 0.716-1.6 1.6s0.716 1.6 1.6 1.6v-3.2zM59.2 3.2c0.884 0 1.6-0.716 1.6-1.6s-0.716-1.6-1.6-1.6v3.2zM1.6 28.8c-0.884 0-1.6 0.716-1.6 1.6s0.716 1.6 1.6 1.6v-3.2zM59.2 32c0.884 0 1.6-0.716 1.6-1.6s-0.716-1.6-1.6-1.6v3.2zM1.6 17.6h57.6v-3.2h-57.6v3.2zM1.6 3.2h57.6v-3.2h-57.6v3.2zM1.6 32h57.6v-3.2h-57.6v3.2z"></path>
</symbol>
<symbol id="icon-unfilled-star" viewBox="0 0 34 32">
<path fill="#f6b626" style="fill: var(--color2, #f6b626)" d="M7.566 28.593l-0.488 2.836 10.065-5.271 10.065 5.271-1.922-11.164 8.143-7.907-11.253-1.629-5.033-10.158-5.033 10.158-11.253 1.629 8.143 7.907-1.434 8.328zM10.592 18.624l-4.81-4.67 6.655-0.963c0.744-0.108 1.387-0.574 1.721-1.247l2.984-6.024 2.984 6.024c0.334 0.673 0.977 1.14 1.721 1.247l6.655 0.963-4.81 4.67c-0.541 0.526-0.788 1.284-0.66 2.028l1.137 6.605-5.967-3.125c-0.664-0.348-1.457-0.348-2.121 0l-5.967 3.125 1.137-6.605c0.128-0.743-0.119-1.502-0.66-2.028z"></path>
</symbol>
<symbol id="icon-user" viewBox="0 0 27 32">
<path fill="none" stroke="#f6b626" style="stroke: var(--color2, #f6b626)" stroke-linejoin="round" stroke-linecap="round" stroke-miterlimit="4" stroke-width="2.4" d="M7.171 21.93h12.857c3.077 0 5.571 2.528 5.571 5.647v2.824h-24v-2.824c0-3.119 2.494-5.647 5.571-5.647z"></path>
<path fill="none" stroke="#f6b626" style="stroke: var(--color2, #f6b626)" stroke-linejoin="round" stroke-linecap="round" stroke-miterlimit="4" stroke-width="2.4" d="M13.599 1.6c3.787 0 6.857 3.034 6.857 6.776s-3.070 6.776-6.857 6.776c-3.787 0-6.857-3.034-6.857-6.776s3.070-6.776 6.857-6.776z"></path>
</symbol>
<symbol id="icon-arrow-up" viewBox="0 0 55 32">
<path fill="#f6b626" style="fill: var(--color2, #f6b626)" d="M47.874 29.865c1.345 1.332 3.516 1.321 4.848-0.025s1.321-3.517-0.025-4.849l-4.824 4.873zM2.132 25.019c-1.331 1.347-1.318 3.518 0.029 4.849s3.518 1.318 4.849-0.029l-4.878-4.819zM30.422 7.786v0zM23.959 7.818v0zM52.698 24.992c-6.62-6.554-13.247-13.098-19.864-19.644l-4.822 4.875c6.625 6.554 13.241 13.087 19.863 19.642l4.824-4.873zM21.522 5.406c-6.464 6.529-12.928 13.072-19.39 19.613l4.878 4.819c6.463-6.541 12.924-13.081 19.385-19.608l-4.873-4.824zM32.834 5.348c-3.139-3.105-8.203-3.082-11.311 0.058l4.873 4.824c0.443-0.447 1.166-0.452 1.616-0.007l4.822-4.875z"></path>
</symbol>
<symbol id="icon-arrow-left" viewBox="0 0 19 32">
<path fill="#f6b626" style="fill: var(--color2, #f6b626)" d="M18.526 3.689c0.859-0.806 0.902-2.156 0.096-3.015s-2.156-0.902-3.015-0.096l2.919 3.112zM15.624 31.439c0.868 0.796 2.218 0.738 3.014-0.13s0.738-2.218-0.13-3.014l-2.884 3.144zM3.808 14.583v0zM15.607 0.577c-4.423 4.149-8.841 8.303-13.259 12.45l2.92 3.111c4.425-4.153 8.833-8.298 13.258-12.449l-2.919-3.112zM2.38 19.279c4.409 4.054 8.827 8.107 13.245 12.159l2.884-3.144c-4.418-4.053-8.834-8.105-13.241-12.156l-2.888 3.141zM2.348 13.027c-1.808 1.697-1.795 4.573 0.032 6.252l2.888-3.141-2.92-3.111z"></path>
</symbol>
<symbol id="icon-arrow-right" viewBox="0 0 19 32">
<path fill="none"  stroke-linejoin="miter" stroke-linecap="round" stroke-miterlimit="10" stroke-width="4.2667" d="M2.133 29.867c4.424-4.15 8.837-8.3 13.259-12.45 0.904-0.849 0.897-2.287-0.016-3.126-4.408-4.053-8.825-8.105-13.243-12.158"></path>
</symbol>
<symbol id="icon-filter" viewBox="0 0 27 32">
<path fill="#fff" style="fill: var(--color8, #fff); stroke: var(--color8, #fff)" stroke="#fff" stroke-linejoin="round" stroke-linecap="round" stroke-miterlimit="4" stroke-width="3.3684" d="M24.862 1.684l-9.674 14.701v11.582l-3.828 2.348v-13.932l-9.676-14.699h23.178z"></path>
</symbol>
<symbol id="icon-arrow-bottom" viewBox="0 0 53 32">
<path fill="#f6b626" style="fill: var(--color2, #f6b626)" d="M6.149 1.123c-1.343-1.432-3.594-1.504-5.026-0.161s-1.504 3.594-0.161 5.026l5.186-4.865zM52.398 5.959c1.327-1.447 1.231-3.696-0.217-5.024s-3.696-1.231-5.024 0.216l5.24 4.807zM24.305 25.653v0zM0.962 5.988c6.915 7.372 13.838 14.735 20.75 22.098l5.185-4.867c-6.921-7.374-13.831-14.722-20.748-22.097l-5.186 4.865zM32.132 28.034c6.756-7.348 13.512-14.712 20.266-22.074l-5.24-4.807c-6.755 7.363-13.508 14.724-20.26 22.069l5.235 4.813zM21.712 28.086c2.828 3.013 7.621 2.991 10.42-0.053l-5.235-4.814-5.185 4.866z"></path>
</symbol>
<symbol id="icon-visa" viewBox="0 0 49 32">
<path fill="#fff" style="fill: var(--color8, #fff)" d="M37.794 17.696c0.296-0.702 1.302-3.333 1.302-3.333 0 0.058 0.296-0.702 0.414-1.111l0.237 1.053c0 0 0.651 2.866 0.77 3.45h-2.723v-0.058z"></path>
<path fill="#fff" style="fill: var(--color8, #fff)" d="M4.049 0c-2.236 0-4.049 1.791-4.049 4v24c0 2.209 1.813 4 4.049 4h40.494c2.236 0 4.049-1.791 4.049-4v-24c0-2.209-1.813-4-4.049-4h-40.494zM32.94 18.047c0 2.456-2.25 4.094-5.743 4.094-1.48 0-2.901-0.292-3.671-0.643l0.474-2.69 0.414 0.175c1.066 0.468 1.776 0.643 3.079 0.643 0.947 0 1.954-0.351 1.954-1.17 0-0.526-0.414-0.877-1.717-1.462-1.243-0.585-2.901-1.52-2.901-3.216 0-2.339 2.309-3.918 5.565-3.918 1.243 0 2.309 0.234 2.96 0.526l-0.474 2.573-0.237-0.234c-0.592-0.234-1.362-0.468-2.486-0.468-1.243 0.058-1.835 0.585-1.835 1.053 0 0.526 0.71 0.936 1.835 1.462 1.894 0.877 2.782 1.871 2.782 3.275zM41.82 10.035l2.723 11.871h-3.078c0 0-0.296-1.345-0.414-1.754h-4.203c-0.118 0.351-0.71 1.813-0.71 1.813h-3.434l4.855-10.936c0.355-0.76 0.947-0.994 1.717-0.994h2.546zM4.109 9.918h5.091c0.71 0 1.243 0.234 1.421 0.994l1.125 5.263c-1.125-2.807-3.73-5.088-7.696-6.023l0.059-0.234zM18.909 10.035l-5.15 11.871h-3.493l-2.96-9.941c2.131 1.345 3.907 3.45 4.558 4.912l0.355 1.228 3.197-8.129h3.493v0.058zM23.527 9.977l-2.072 11.93h-3.256l2.072-11.93h3.256z"></path>
</symbol>
</defs>
</svg>
